SplineFontDB: 3.0
FontName: Aenniway-Regular
FullName: Aenniway Regular
FamilyName: Aenniway
Weight: Regular
Copyright: Anna-Lisa Wehmann & Christoph Pfeiffer
UComments: "Aenniway, liebevoll fontifizierte Handschrift.+AAoACgAA-Perfectly different artifacts of a summer emerge from the glyphs, from their loveable, purple lines through their rough edges and spikes.+AAoACgAA-https://maybegeek.github.io/Aenniway/"
Version: 1.7.1
ItalicAngle: -11.9
UnderlinePosition: -153
UnderlineWidth: 51
Ascent: 819
Descent: 205
InvalidEm: 0
LayerCount: 2
Layer: 0 0 "Back" 1
Layer: 1 0 "Zeichen" 0
XUID: [1021 862 158305084 7697856]
StyleMap: 0x0040
FSType: 0
OS2Version: 4
OS2_WeightWidthSlopeOnly: 0
OS2_UseTypoMetrics: 1
CreationTime: 1502261341
ModificationTime: 1531240787
PfmFamily: 65
TTFWeight: 400
TTFWidth: 5
LineGap: 92
VLineGap: 0
Panose: 3 0 5 0 0 0 0 0 0 0
OS2TypoAscent: 0
OS2TypoAOffset: 1
OS2TypoDescent: 0
OS2TypoDOffset: 1
OS2TypoLinegap: 92
OS2WinAscent: 0
OS2WinAOffset: 1
OS2WinDescent: 0
OS2WinDOffset: 1
HheadAscent: 0
HheadAOffset: 1
HheadDescent: 0
HheadDOffset: 1
OS2Vendor: 'CLGR'
OS2CodePages: 00000001.00000000
OS2UnicodeRanges: 00000003.00000000.00000000.00000000
Lookup: 4 0 1 "'liga' Standard Ligatures in Latin lookup 0" { "'liga' Standard Ligatures in Latin lookup 0 subtable"  } ['liga' ('DFLT' <'dflt' > 'latn' <'dflt' > ) ]

StartChar: .notdef
Encoding: 1114112 -1 0
Width: 372
VWidth: 1004
Flags: HW
HStem: -20 34<68 271> 628 34<68 271>
VStem: 34 34<14 628> 271 34<14 628>
LayerCount: 2
Fore
SplineSet
34 -20 m 1
 34 662 l 1
 305 662 l 1
 305 -20 l 1
 34 -20 l 1
68 14 m 1
 271 14 l 1
 271 628 l 1
 68 628 l 1
 68 14 l 1
EndSplineSet
EndChar

StartChar: exclam
Encoding: 33 33 5
Width: 220
VWidth: 968
Flags: HW
HStem: 1.23954 45.5984<58.8806 121.738> 648 20G<108.667 116>
VStem: 57.7422 72.5241<5.19245 39.5641> 67 37<193.704 507.26>
LayerCount: 2
Fore
SplineSet
114 668 m 1xd0
 118 668 120.666666667 664.666666667 122 658 c 0
 123.333333333 651.333333333 125.333333333 645.333333333 128 640 c 0
 132.666666667 633.333333333 135 628.666666667 135 626 c 0
 135 622 135 622 135 622 c 0
 135 622 135 622 135 621 c 0
 135.039215686 620.647058823 135.058823529 620.164936563 135.058823529 619.553633218 c 0
 135.058823529 609.7727797 130.039215686 566.921568627 120 491 c 0
 109.333333333 410.333333333 104 348 104 304 c 0
 104 238 107.333333333 202.666666667 114 198 c 0
 116.666666667 196 118 193.5 118 190.5 c 0
 118 187.5 117 183.333333333 115 178 c 0
 113 172.666666667 110.666666667 170 108 170 c 0
 105.333333333 170 99.3333333333 174.666666667 90 184 c 0
 80.6666666667 193.333333333 74.6666666667 206.666666667 72 224 c 0
 68.6666666667 245.333333333 67 273 67 307 c 0
 67 358.118003108 72.084273064 430.308480361 82.252819192 523.571431759 c 0
 92.7509397307 619.85714392 103.333333333 668 114 668 c 1xd0
57.7421875 29.9482421875 m 0xe0
 57.7421875 41.2080078125 65.6439340605 46.837890625 81.4474271815 46.837890625 c 0
 97.2509203025 46.837890625 109.378524469 41.2341339926 117.830239681 30.0266207278 c 0
 126.120970289 19.0325833132 130.266335593 11.5102035482 130.266335593 7.4594814329 c 0
 130.266335593 7.38082685726 130.26477264 7.30348122233 130.261646735 7.22744452811 c 0
 130.097536224 3.23550699311 126.816764322 1.23953822561 120.419331028 1.23953822561 c 0
 114.021897735 1.23953822561 110.622181204 1.24204892124 110.220181437 1.2470703125 c 0
 78.1069348643 1.2470703125 60.691744177 9.86588541667 57.974609375 27.103515625 c 0
 57.8196614583 28.0887504913 57.7421875 29.0369926788 57.7421875 29.9482421875 c 0xe0
EndSplineSet
EndChar

StartChar: comma
Encoding: 44 44 6
Width: 142
VWidth: 968
Flags: HW
HStem: -75 134
VStem: 34 63<-30.0293 30.2119>
LayerCount: 2
Fore
SplineSet
46 -1 m 4
 53.3333333333 25 60.3333333333 41.6666666667 67 49 c 4
 73 55.6666666667 80 59 88 59 c 4
 94 59 97 53.3333333333 97 42 c 4
 97 37.3333333333 95.3333333333 28.3333333333 92 15 c 4
 91.3333333333 12.3333333333 84.3333333333 -5.66666666667 71 -39 c 4
 68.3333333333 -45.6666666667 66 -50.6666666667 64 -54 c 4
 62 -57.3333333333 60 -61 58 -65 c 4
 58 -65 58 -65 51 -72 c 4
 49 -74 47 -75 45 -75 c 4
 37 -75 33.3333333333 -67 34 -51 c 4
 34 -45.6666666667 38 -29 46 -1 c 4
EndSplineSet
EndChar

StartChar: period
Encoding: 46 46 7
Width: 181
VWidth: 968
Flags: HW
HStem: -0 55<48.0312 91.9365>
VStem: 44 66<12.0624 51.4844>
LayerCount: 2
Fore
SplineSet
45 20 m 4
 44.3333333333 22.6666666667 44 25 44 27 c 4
 44 31.6666666667 44.3333333333 34.6666666667 45 36 c 4
 47 40 49.3333333333 43 52 45 c 4
 54 46.3333333333 58.3333333333 48.3333333333 65 51 c 4
 72.3333333333 53.6666666667 78.6666666667 55 84 55 c 4
 88 55 90.6666666667 54.6666666667 92 54 c 4
 97.3333333333 51.3333333333 101.666666667 47 105 41 c 4
 108.333333333 35 110 30 110 26 c 4
 110.666666667 25.3333333333 110.666666667 24.3333333333 110 23 c 4
 104 11 96.3333333333 4 87 2 c 4
 83.6666666667 1.33333333333 80.6666666667 0.666666666667 78 0 c 4
 71 -0 71 -0 71 -0 c 4
 61.6666666667 -0.666666666667 54.6666666667 1.33333333333 50 6 c 4
 48 8 48 8 48 8 c 4
 47.3333333333 9.33333333333 47 10.6666666667 47 12 c 4
 46.3333333333 13.3333333333 45.8333333333 14.5 45.5 15.5 c 4
 45.1666666667 16.5 45 18 45 20 c 4
EndSplineSet
EndChar

StartChar: question
Encoding: 63 63 8
Width: 387
VWidth: 968
Flags: HW
HStem: 7 36.5703<169.186 194.453> 196.755 35.2402<153.066 287.904> 640.827 26.6822<167.947 275.806>
VStem: 102.374 37.5291<244.827 351.79> 150.475 58.5254<8.94113 36.4541> 296.308 35.6036<544.875 625.405>
LayerCount: 2
Fore
SplineSet
150.474609375 28.2177734375 m 0
 150.211680841 32.0013791719 150.283946466 34.5114703177 150.69140625 35.748046875 c 0
 151.666316217 36.8346164054 153.598933405 38.9394341137 156.489257812 42.0625 c 2
 169.185546875 45.3525390625 l 1
 194.453125 43.5703125 l 1
 208.370117188 36.4541015625 l 2
 208.790039063 34.5446060712 209 29.5599055504 209 21.5 c 0
 209 11.8333333333 201.166666667 7 185.5 7 c 0
 166.859183267 7 156.447073892 7.63216145833 154.263671875 8.896484375 c 0
 152.578530806 9.84466700887 151.552163618 11.0653701339 151.184570312 12.55859375 c 0
 150.474761581 14.8074746988 150.074370956 16.7687377196 149.983398438 18.4423828125 c 0
 150.650531895 21.6537286405 150.814268874 24.9121921822 150.474609375 28.2177734375 c 0
241.556640625 667.498046875 m 0
 242.235078026 667.505225874 242.910121768 667.508815373 243.58177185 667.508815373 c 0
 272.595015536 667.508815373 295.275766065 660.810889936 311.624023438 647.415039062 c 0
 321.459828745 639.711790876 331.898787151 624.400847214 331.9112525 607.005830139 c 0
 331.9112525 588.675366931 327.58536625 571.036704802 318.93359375 554.08984375 c 0
 309.696218371 534.592732312 295.875905871 514.066690645 277.47265625 492.51171875 c 0
 263.699563637 475.980297297 245.407245929 456.177562922 222.595703125 433.103515625 c 0
 207.358132632 417.45475244 194.05670034 402.529622232 182.69140625 388.328125 c 0
 166.798550855 367.769925471 155.432339918 348.854886409 148.592773438 331.583007812 c 0
 142.799963726 316.988413176 139.90355887 303.163912829 139.90355887 290.109506771 c 0
 139.90355887 282.152453656 140.979651226 274.481511295 143.131835938 267.096679688 c 0
 146.420398725 254.35435503 154.717924766 245.015162321 168.024414062 239.079101562 c 0
 177.585726549 234.359388529 193.224398425 231.998060404 214.940429688 231.995117188 c 0
 227.546010494 231.998048718 239.45453914 233.373374239 250.666015625 236.12109375 c 0
 268.907552083 241.574544271 286.870768229 246.904296875 304.555664062 252.110351562 c 0
 306.84602018 252.653484945 308.741202472 252.827313071 310.241210938 252.631835938 c 0
 311.723321743 252.438760459 312.771824347 252.167276083 313.38671875 251.817382812 c 0
 316.076276996 250.281134094 317.142032204 244.685430969 316.583984375 235.030273438 c 0
 316.656697232 233.611061293 316.630981086 232.596412855 316.506835938 231.986328125 c 0
 301.852162552 219.565807063 283.126902135 210.539439875 260.331054688 204.907226562 c 0
 238.878007355 199.633425755 213.745194855 196.915977839 184.932617188 196.754882812 c 0
 168.581195756 196.910889219 154.827289506 199.28230849 143.670898438 203.869140625 c 0
 134.205254723 207.774096289 126.564304202 213.669278581 120.748046875 221.5546875 c 0
 108.540227666 237.904697388 102.374440691 259.615398602 102.374440691 286.866127544 c 0
 102.374440691 300.700895502 104.408481295 315.695063925 108.4765625 331.848632812 c 0
 111.817976102 346.58497273 121.168562039 363.893240959 136.528320312 383.7734375 c 0
 154.969127734 408.098527373 181.438203255 436.017798206 215.935546875 467.53125 c 0
 239.565478126 488.794867669 259.463264585 512.013292149 275.62890625 537.186523438 c 0
 288.448557116 557.564269558 295.341460762 574.634582058 296.307617188 588.397460938 c 0
 296.857839612 594.983426852 295.90406357 600.896187269 293.446289062 606.135742188 c 0
 288.837113796 615.820287929 282.050980984 623.821915533 273.087890625 630.140625 c 0
 263.382074994 637.264649769 249.714984554 640.826662153 232.086619307 640.826662153 c 0
 231.771253556 640.826662153 231.454620036 640.825522165 231.13671875 640.823242188 c 0
 221.807284587 640.948364523 211.903313233 639.644653586 201.424804688 636.912109375 c 0
 170.295248518 629.404007842 139.381511539 618.902705758 108.68359375 605.408203125 c 0
 78.4656566146 592.12468207 60.7283519271 584.421231549 55.4716796875 582.297851562 c 0
 52.664673629 581.163630231 48.2001553998 583.431208357 42.078125 589.100585938 c 0
 39.057976215 592.017514448 37.2112965275 595.73333476 36.5380859375 600.248046875 c 1
 43.9705952342 607.83924717 53.5744363801 614.775119565 65.349609375 621.055664062 c 0
 80.3666836251 629.412159843 99.1866706041 637.52446453 121.809570312 645.392578125 c 0
 142.463164818 652.605517923 162.275664818 657.913135111 181.247070312 661.315429688 c 0
 202.198297476 665.111875613 222.30148758 667.172748008 241.556640625 667.498046875 c 0
304.555664062 252.110351562 m 1
 304.555664062 252.110351562 l 1
331.911132812 607.172851562 m 1
 331.911132812 607.172851562 l 1
317.360351562 231.400390625 m 1025
304.297851562 253.077148438 m 1025
332.91015625 607.239257812 m 1025
303.782226562 255.010742188 m 1025
303.264648438 256.943359375 m 1025
EndSplineSet
EndChar

StartChar: A
Encoding: 65 65 9
Width: 508
VWidth: 1084
Flags: HW
HStem: -19.6719 24.9834<-26.5889 36.4212> 190.4 23.9141<130.062 196.663> 259.873 11.2646<503.761 513.644> 667.78 30.4729<421.192 454.864>
VStem: 294.502 28.8829<2.2207 111.666 153.621 203.277> 445.711 25.5518<581.569 667.581>
LayerCount: 2
Fore
SplineSet
128.348632812 193.103515625 m 2
 125.296875 205.497070312 l 1
 128.495117188 213.3515625 l 1
 130.061523438 214.314453125 l 1
 180.765753247 217.786845624 224.33736783 223.658915937 260.776367188 231.930664062 c 1
 278.82971681 254.864897131 288.183711767 268.358546545 288.83835206 272.411612302 c 0
 293.289709663 299.971243537 296.913214345 326.564521952 299.708866107 352.191447546 c 0
 314.168927699 484.742621314 344.442730143 584.996513799 390.530273438 652.953125 c 0
 411.426034071 683.114730465 430.059327152 698.212800361 446.664036085 698.253201497 c 0
 463.063142236 698.253201497 471.262695312 681.502134332 471.262695312 648 c 0
 470.820461415 615.971860171 467.312116483 588.308900734 460.737660514 565.011121691 c 0
 444.267779829 506.647107552 428.858258165 462.236053787 414.509095524 431.777960397 c 0
 390.249341263 380.283257927 361.574759942 324.690929982 328.485351562 265.000976562 c 1
 327.821954045 256.917263281 327.271172795 249.462185156 326.833007812 242.635742188 c 1
 339.562205599 244.941560854 357.407908724 248.400545229 380.370117188 253.012695312 c 2
 444.23828125 265.841796875 l 2
 461.807777932 269.372395833 471.342934182 271.137695312 472.84375 271.137695312 c 0
 502.380208333 268.962565104 517.1484375 265.207682292 517.1484375 259.873046875 c 0
 514.799780873 256.04251219 450.444637644 239.037303856 324.083007812 208.857421875 c 1
 322.846679687 183.118615728 322.228515625 155.245387551 322.228515625 125.237737343 c 0
 322.228515625 95.2300871355 322.549967448 67.5367020776 323.192871094 42.1575821693 c 0
 323.320829846 37.1063112026 323.384809222 32.5330549877 323.384809222 28.4378135248 c 0
 323.384809222 11.9573177474 322.348661878 3.21828094752 320.276367188 2.220703125 c 1
 304.24609375 -0.0771484375 l 1
 298.815155837 -0.0771484375 295.567108962 1.62890625 294.501953125 5.041015625 c 1
 293.774088542 11.9837239583 292.958333333 21.7877604167 292.0546875 34.453125 c 0
 291.151692708 47.0657552083 290.363932291 56.9713541667 289.69140625 64.169921875 c 0
 287.845114617 83.8985576691 284.036210979 101.435208805 278.264695337 116.779875283 c 0
 272.493179696 132.124541761 260.984049479 144.763020833 243.737304688 154.6953125 c 1
 205.891461684 110.769488867 181.264148068 83.5154092613 169.855363841 72.9330736818 c 0
 103.297285684 11.1964412273 49.0824769034 -19.671875 7.2109375 -19.671875 c 0
 -7.893227233 -19.671875 -22.8880188997 -12.3125 -37.7734375 2.40625 c 0
 -38.2252604167 3.89583333333 -38.1927083333 4.8642578125 -37.67578125 5.3115234375 c 0
 -34.9798177083 6.2001953125 -32.7721354167 6.64453125 -31.052734375 6.64453125 c 2
 -15.4111328125 5.98046875 l 1
 42.9311215854 5.98046875 112.255340336 53.8736979167 192.561523438 149.66015625 c 0
 198.357747396 156.572916667 204.7265625 164.252929687 211.66796875 172.700195312 c 1
 187.277699616 184.500325521 161.387725658 190.400390625 133.998046875 190.400390625 c 0
 130.231770833 190.400390625 128.348632812 191.301432292 128.348632812 193.103515625 c 2
331.1484375 337.482421875 m 1
 336.273664046 347.66842601 344.236285787 363.226157513 355.036302722 384.155616383 c 0
 365.836319657 405.085075253 376.873165266 427.286622356 388.146839547 450.760257691 c 0
 399.420513829 474.233893027 411.832948725 508.650870826 425.384144235 554.011191089 c 0
 438.935339745 599.371511352 445.7109375 629.334894443 445.7109375 643.901340364 c 0
 445.7109375 659.82062908 443.278971354 667.780273438 438.415039062 667.780273438 c 0
 432.861434179 667.780273438 427.156952229 662.95296224 421.301593212 653.298339844 c 0
 390.326888217 602.225625135 368.803831104 548.233274874 356.732421875 491.321289062 c 0
 343.286945479 427.955949825 334.758950687 376.67632743 331.1484375 337.482421875 c 1
231.297851562 195.374023438 m 1
 237.383789062 201.420898438 l 1
 225.61328125 200.141601562 l 2
 222.405598958 199.814127604 219.680013021 199.532877604 217.436523438 199.297851562 c 1
 223.085611979 198.060221354 227.706054687 196.752278646 231.297851562 195.374023438 c 1
289.626953125 203.27734375 m 1
 282.268554688 202.329101562 l 1
 262.353515625 178.412109375 l 1
 272.875722075 170.359322982 281.429433013 162.095651107 288.014648438 153.62109375 c 1
 288.139648438 159.888671875 288.353190105 166.918294271 288.655273438 174.709960938 c 0
 289.168510127 187.947927938 289.492403356 197.470388875 289.626953125 203.27734375 c 1
EndSplineSet
EndChar

StartChar: B
Encoding: 66 66 10
Width: 550
VWidth: 875
Flags: HW
HStem: 2.00098 39.5665<180.776 373.748> 650 28<178.983 388.151>
VStem: 212.831 35.0186<522.86 613.995> 425.85 41<574.999 629.396> 463.849 39.0078<105.868 180.83>
LayerCount: 2
Fore
SplineSet
183.280273438 277.162109375 m 0xe8
 160.887695313 173.375976562 147.224934896 108.755208333 142.291992188 83.2998046875 c 0
 142.213284151 82.891373792 142.339586234 82.5619467086 142.670898438 82.3115234375 c 0
 156.619541412 71.7757114821 174.550856516 62.7164666904 196.46484375 55.1337890625 c 0
 218.36666186 47.5563364888 239.475711339 43.1790578429 259.791992188 42.001953125 c 0
 264.7914721 41.7122895799 269.79407368 41.5674578074 274.799796926 41.5674578074 c 0
 301.83795462 41.5674578074 328.967188978 45.7930187465 356.1875 54.244140625 c 0
 388.467597123 64.2660779047 415.909003373 79.2683565506 438.51171875 99.2509765625 c 0
 455.403965955 116.141270642 463.849603975 132.724278455 463.848632812 149 c 0
 463.849596589 165.393836384 450.344062735 181.019161905 423.33203125 195.875976562 c 0
 411.331320092 201.109683298 371.249288842 212.14158434 303.0859375 228.971679688 c 0
 257.780273437 239.973632813 218.350911458 256.247395833 184.797851562 277.79296875 c 0
 184.191170837 278.182715155 183.685311463 277.972428697 183.280273438 277.162109375 c 0xe8
311.849609375 678 m 0
 415.153395196 678 466.820061863 655.013020833 466.849609375 609.0390625 c 1xf0
 463.512934142 567.34685775 414.979405496 511.933446292 321.249023438 442.798828125 c 0
 258.485611677 394.72451756 221.072200219 361.305246726 209.008789062 342.541015625 c 2
 208.970703125 342.477539062 l 2
 208.516409333 341.640733831 207.427867666 339.726996852 205.705078125 336.736328125 c 0
 203.963911386 333.71627736 202.879927011 331.727019547 202.453125 330.768554688 c 0
 202.023604859 329.804230727 201.44222465 328.116405206 200.708984375 325.705078125 c 0
 199.926940621 323.131276161 199.794128121 321.067474078 200.310546875 319.513671875 c 0
 200.784427675 318.094884179 201.622643821 316.362136783 202.825195312 314.315429688 c 0
 204.051768727 312.229000322 205.84571404 310.201656572 208.20703125 308.233398438 c 0
 237.002696928 284.125603508 274.14787922 267.38829882 319.642578125 258.021484375 c 0
 363.612486977 248.694356474 399.579934894 239.703145537 427.544921875 231.047851562 c 0
 477.748046875 214.532961846 502.849609375 185.517011325 502.849609375 144 c 2
 502.856445312 143.1171875 l 1xe8
 498.890752797 109.403414282 476.357875193 77.2995731365 435.2578125 46.8056640625 c 0
 394.102675964 16.9352213542 335.299941589 2 258.849609375 2 c 2
 249.849609375 2.0009765625 l 2
 227.969819472 1.99999926261 204.415131972 6.64680915845 179.185546875 15.94140625 c 0
 157.604280982 23.3964154714 136.753044003 33.4992800547 116.631835938 46.25 c 0
 80.8036196392 68.9546771819 58.479400889 93.4917865569 49.6591796875 119.861328125 c 0
 48.4726127773 123.410351088 47.8793293223 127.856426478 47.8793293223 133.199554295 c 0
 47.8793293223 143.783666567 50.2073132982 157.887721385 54.86328125 175.51171875 c 1
 58.2587890625 183.018554688 l 2
 58.61825751 182.251063997 58.9753538641 181.399175976 59.330078125 180.462890625 c 0
 60.0736123781 178.497623658 60.6706175864 177.11578772 61.12109375 176.317382812 c 0
 64.219200298 170.817071983 68.1833396215 163.442864189 73.0135117204 154.194759429 c 0
 77.8436838193 144.946654668 81.5494383755 138.016969671 84.130775389 133.405704438 c 0
 86.7121124026 128.794439205 90.1617533542 123.632937679 94.4796982438 117.921199858 c 0
 98.7976431333 112.209462038 103.363655177 107.378957919 108.177734375 103.4296875 c 0
 108.73511895 102.972754651 109.219819471 103.039811943 109.631835938 103.630859375 c 0
 175.519205729 421.990234375 209.918945313 588.716796875 212.831054688 603.810546875 c 0
 213.270436307 606.086221007 214.461517036 607.872028299 216.404296875 609.16796875 c 0
 220.27545862 612.389322917 224.756903933 614 229.848632812 614 c 0
 241.849283854 614 247.849609375 608.333333333 247.849609375 597 c 0
 247.849609375 593.741603367 244.5234375 577.477931492 237.87109375 548.208984375 c 0
 237.368164063 545.690429688 233.075520833 525.166341146 224.993164062 486.63671875 c 0
 216.907226562 448.088867187 211.334635416 419.638997396 208.275390625 401.287109375 c 0
 208.15769794 400.576049402 208.457828148 400.189330652 209.17578125 400.126953125 c 0
 209.441541909 400.10397382 209.678195555 400.175262882 209.885742188 400.340820312 c 0
 224.953125 412.36328125 246.919596354 430.698893229 275.78515625 455.34765625 c 0
 304.635589562 479.983334405 323.874196333 496.281185967 333.500976562 504.241210938 c 0
 395.066731784 559.114439189 425.849609396 594.033806502 425.849609396 608.999312879 c 0xf0
 425.849274009 620.169056035 411.610447882 629.821944009 383.129882812 637.959960938 c 0
 356.376842824 645.986653646 324.616751678 650 287.849609375 650 c 0
 251.098632812 650 211.693033854 645.325195313 169.6328125 635.975585938 c 1
 134.214518229 625.285481771 98.988606771 612.433268229 63.955078125 597.418945312 c 0
 28.9290339157 582.407225291 9.41145579067 573.899087271 5.40234375 571.89453125 c 0
 -6.66202516778 565.86462452 -19.2297625692 562.849671155 -32.3008684541 562.849671155 c 0
 -34.8776316821 562.849671155 -37.4739567808 562.966838061 -40.08984375 563.201171875 c 0
 -53.0188953405 564.35892509 -62.4739734655 567.344602173 -68.455078125 572.158203125 c 0
 -68.5333462618 572.221284907 -68.6801561576 572.353771886 -68.8955078125 572.555664062 c 1
 23.2394417828 617.318719323 106.889181366 648.140333906 182.053710938 665.020507812 c 0
 227.315604999 673.673502604 270.580904478 678 311.849609375 678 c 0
EndSplineSet
EndChar

StartChar: C
Encoding: 67 67 11
Width: 466
VWidth: 875
Flags: HW
HStem: 1.14169 38.2942<143.399 274.891>
VStem: 26.3959 39.3296<142.66 348.247>
LayerCount: 2
Fore
SplineSet
327.59417435 666.287076004 m 4
 344.106734026 662.490802295 358.088204427 656.978107781 369.538585553 649.748992462 c 4
 375.273568254 646.129651345 381.218700248 641.649085833 387.373981537 636.307295926 c 4
 393.529262826 630.96550602 399.900745111 624.759917812 406.488428392 617.690531301 c 6
 406.581121883 617.574962782 l 6
 407.733651578 615.897007772 408.566026131 614.506159953 409.078245543 613.402419325 c 4
 409.590464955 612.298678698 409.788393546 611.338166219 409.672031315 610.520881888 c 4
 409.453832874 608.958299507 406.693446748 608.620138991 401.390872935 609.506400342 c 4
 398.776133741 609.942207045 395.526407543 610.723868743 391.64169434 611.851385437 c 4
 387.756981137 612.97890213 383.126365076 614.466844277 377.749846156 616.315211878 c 4
 372.373327237 618.163579479 366.206048933 620.385863203 359.248011244 622.982063052 c 4
 354.217965883 624.859278915 349.750333738 626.472962187 345.845114808 627.823112867 c 4
 341.939895878 629.173263546 338.769380546 630.20820931 336.333568813 630.927950159 c 4
 333.89775708 631.647691007 332.12407589 632.084096166 331.012525242 632.237165636 c 4
 285.051050924 628.023082241 226.330108222 577.80356826 154.849697137 481.578623691 c 4
 119.56555616 433.06658477 94.0324886898 381.947752358 78.2504947273 328.222126456 c 4
 71.7524817042 306.095956184 67.7829586403 284.516356352 66.3419255356 263.48332696 c 4
 65.9309629161 257.484999214 65.7254816064 251.531492607 65.7254816064 245.622807138 c 0
 65.7254816064 230.812792262 67.0164082676 216.284364081 69.5982615903 202.037522594 c 4
 76.3577315676 164.701379887 86.6210901671 133.578567946 100.388337389 108.669086771 c 4
 114.155584611 83.7596055971 131.408464326 65.0399852264 152.146976534 52.5102256591 c 4
 166.574610676 43.7940343533 182.934518661 39.4359387004 201.226700488 39.4359387004 c 0
 217.930251864 39.4359387004 236.245024893 43.0699257317 256.171019577 50.3378997944 c 4
 259.186978544 51.4379176205 262.262766126 52.6617987666 265.398382321 54.0095432325 c 4
 268.533998516 55.3572876984 271.729064187 56.8288542924 274.983579332 58.4242430145 c 4
 281.463541371 61.6015147238 287.941351914 65.1319722828 294.417010961 69.0156156915 c 4
 300.860369138 72.8829992367 307.187189816 76.8496890123 313.397472997 80.9156850184 c 4
 319.598871532 84.9766918057 326.119446461 89.435127765 332.959197786 94.2909928964 c 4
 339.849115795 99.1824055261 346.158501607 103.706445738 351.887355221 107.863113531 c 4
 357.531254906 111.957989872 363.953384919 116.593319257 371.15374526 121.769101687 c 4
 378.196310439 126.829937688 384.383970838 131.188655805 389.716726459 134.845256036 c 4
 391.354173811 135.967994614 393.208446955 137.341483374 395.279545892 138.965722315 c 4
 397.304524573 140.553103782 399.111444911 141.999537328 400.700306907 143.305022953 c 4
 402.231082821 144.562162758 403.987309403 145.911921981 405.968986652 147.354300622 c 4
 407.939393258 148.789033875 409.783175739 150.005331506 411.500334094 151.003193517 c 4
 415.113962243 153.104001057 420.61080904 155.649529639 427.990874484 158.639779263 c 4
 430.886468334 159.81232781 433.409586131 160.840637469 435.560227874 161.72470824 c 4
 436.227263209 161.998907689 436.671291165 161.792761372 436.892311743 161.106269289 c 4
 436.897373097 160.676920821 436.869014652 160.408551197 436.807236409 160.301160418 c 4
 435.896847853 158.718607549 434.63399566 156.594648212 433.018679829 153.929282407 c 6
 431.232547017 150.964438657 l 5
 399.405967308 110.419207936 361.925395221 75.0741025238 318.790830755 44.9291224201 c 4
 288.621490979 23.93959017 257.803738087 10.6357145349 226.337572079 5.01749551485 c 4
 219.284053254 3.1955824235 212.240620748 2.02593828169 205.207274563 1.50856308942 c 4
 201.887994562 1.26398286259 198.612846834 1.14169274917 195.381831378 1.14169274917 c 0
 178.946318833 1.14169274917 163.652750069 4.30600826798 149.501125083 10.6346393056 c 4
 126.838892995 19.9545325937 106.651071801 35.1186012103 88.9376615007 56.1268451554 c 4
 71.157218483 77.2129286657 57.2328938379 101.019810269 47.1646875652 127.547489964 c 4
 37.0785553601 154.121096734 30.6172707855 182.25851953 27.7808338414 211.959758352 c 6
 27.4235961435 216.821127337 l 6
 26.7384573479 226.129765896 26.3958879501 235.387691018 26.3958879501 244.594902702 c 0
 26.3958879501 278.662020973 31.0857827857 312.034854554 40.4655724567 344.713403447 c 4
 56.4785962581 400.499165336 82.2840723262 452.92358555 117.882000661 501.986664088 c 4
 165.276582046 567.310525173 214.549222417 615.376236521 265.699921776 646.183798133 c 4
 278.778580123 654.06013397 290.459934304 659.679163473 300.743984318 663.04088664 c 4
 311.028034332 666.402609807 319.978097676 667.484672929 327.59417435 666.287076004 c 4
405.756835938 617.008789062 m 1029
406.5390625 617.63671875 m 1029
432.041015625 150.331054688 m 1029
407.3359375 618.27734375 m 1029
EndSplineSet
EndChar

StartChar: D
Encoding: 68 68 12
Width: 674
VWidth: 875
Flags: HW
HStem: 629.458 40.7122<205.429 424.333>
VStem: 592.48 45.0791<240.884 465.489>
LayerCount: 2
Fore
SplineSet
324.940429688 670.169921875 m 4
 429.473632813 670.169921875 510.813476563 631.296549479 568.959960938 553.549804688 c 4
 614.693033854 493.443033855 637.559570312 427.129882813 637.559570312 354.610351562 c 4
 637.559570312 272.290039062 609.79296875 206.629882812 554.259765625 157.629882812 c 4
 530.086588542 136.069986979 508.853190104 120.716796875 490.559570312 111.5703125 c 4
 435.680013021 84.1302083333 376.553385417 60.2835286458 313.1796875 40.0302734375 c 4
 249.806640625 19.7770182292 193.293294271 7.36360677083 143.639648438 2.7900390625 c 4
 131.226236979 1.4833984375 120.446289063 0.830078125 111.299804688 0.830078125 c 4
 92.3531901043 0.830078125 82.8798828125 8.669921875 82.8798828125 24.349609375 c 4
 82.8798828125 27.6165364583 85.330078125 30.3932291667 90.23046875 32.6796875 c 4
 95.1302083333 34.966796875 103.133463542 37.4169921875 114.240234375 40.0302734375 c 4
 125.347005208 42.6435546875 131.553710937 44.2766927083 132.860351562 44.9296875 c 4
 146.725585937 49.0852864583 166.895507813 53.2428385417 193.370117188 57.40234375 c 4
 219.844726563 61.5611979167 238.384765625 64.9169921875 248.990234375 67.4697265625 c 4
 291.797526042 77.7731119792 328.057291667 88.2265625 357.76953125 98.830078125 c 4
 415.374348958 119.387369792 454.247721354 136.047200521 474.389648438 148.809570312 c 4
 507.383138021 169.716471354 535.313151041 194.216471354 558.1796875 222.309570312 c 4
 581.046875 250.403320312 592.48046875 292.870117187 592.48046875 349.709960938 c 4
 592.48046875 363.430013021 591.500325521 378.129882812 589.540039062 393.809570312 c 4
 585.620117187 435.623372396 569.940104167 475.313476563 542.5 512.879882812 c 4
 510.100260417 557.236653645 476.453450521 587.126627604 441.559570312 602.549804688 c 4
 400.474692018 620.488435109 361.183268175 629.457750319 323.685298785 629.457750319 c 0
 318.846928887 629.457750319 314.038417834 629.308422088 309.259765625 629.009765625 c 4
 224.326822916 623.130208334 146.253580729 595.690429688 75.0400390625 546.690429688 c 4
 44.9866536458 525.129882813 25.7132161458 514.349609375 17.2197265625 514.349609375 c 4
 10.0335286458 514.349609375 6.4404296875 516.963216146 6.4404296875 522.190429688 c 4
 6.4404296875 531.989908855 15.2604166667 546.036458334 32.900390625 564.330078125 c 4
 68.8333333333 604.18359375 128.61328125 634.563476562 212.240234375 655.469726562 c 4
 255.360026042 665.269856771 292.926757813 670.169921875 324.940429688 670.169921875 c 4
287.700195312 511.41015625 m 4
 293.579752604 525.130208333 298.152994792 531.990234375 301.419921875 531.990234375 c 4
 304.033203125 531.990234375 306.319986979 528.0703125 308.280273438 520.23046875 c 4
 310.239908854 512.389973958 311.219726562 503.569661458 311.219726562 493.76953125 c 4
 311.219726562 476.783203125 307.953125 458.489908854 301.419921875 438.889648438 c 6
 300.440429688 434.969726562 l 5
 254.053710937 289.930013021 227.920247395 176.903320312 222.040039062 95.8896484375 c 4
 221.386393229 90.6630859375 220.896484375 87.0699869792 220.5703125 85.1103515625 c 4
 220.243489583 83.1500651042 219.753255208 81.5166015625 219.099609375 80.2099609375 c 6
 218.120117188 80.2099609375 l 6
 216.813476563 80.2099609375 215.833333333 80.86328125 215.1796875 82.169921875 c 4
 213.220052083 84.783203125 210.606770833 89.0299479167 207.33984375 94.91015625 c 4
 198.193359375 111.243489583 193.620117188 132.803385417 193.620117188 159.58984375 c 6
 193.620117188 167.4296875 l 5
 200.806966146 234.723307292 219.427083333 316.389973959 249.48046875 412.4296875 c 4
 269.080078125 467.309895833 281.819986979 500.303385417 287.700195312 511.41015625 c 4
EndSplineSet
EndChar

StartChar: E
Encoding: 69 69 13
Width: 467
VWidth: 875
Flags: HW
HStem: 2 42.8457<96.2002 190.605> 641 35.999<273.208 394.711>
VStem: 41 44<52.9567 228.594>
LayerCount: 2
Fore
SplineSet
136.959960938 578.719726562 m 0
 141.54355183 593.780954077 167.042575267 613.577829077 213.45703125 638.110351562 c 0
 265.310554961 664.037113418 306.158211211 677.000004043 336 676.999023438 c 0
 358.084043545 677.00000195 380.969460212 668.918296221 404.65625 652.75390625 c 0
 417.754557292 642.566439503 424.303710938 636.263054087 424.303710938 633.84375 c 0
 424.303710938 633.550644773 423.820638021 633.391139565 422.854492188 633.365234375 c 0
 421.011874387 633.365234375 413.767082721 634.543619792 401.120117188 636.900390625 c 0
 384.311415193 639.604174524 366.604383943 640.970710982 347.999023438 641 c 0
 331.222465427 641 308.615043552 636.148763021 280.176757812 626.446289062 c 0
 278.381531163 625.581318021 273.397481684 623.455015937 265.224609375 620.067382812 c 0
 257.020370176 616.667911719 249.602726947 613.359969011 242.971679688 610.143554688 c 0
 236.263199873 606.888272981 231.705582686 604.078051627 229.298828125 601.712890625 c 2
 229.04296875 601.291992188 l 1
 217.045120313 561.965656932 203.382359896 519.644042349 188.0546875 474.327148438 c 2
 150.451171875 365.930664062 l 2
 150.215018812 365.249123875 150.445813083 364.817157729 151.143554688 364.634765625 c 0
 151.334033902 364.584947984 151.522510464 364.590807359 151.708984375 364.65234375 c 0
 181.129141436 374.327402712 222.832591957 384.502858441 276.819335938 395.178710938 c 0
 283.798702681 396.380533854 289.536007368 396.981445312 294.03125 396.981445312 c 0
 295.118905527 396.981445312 296.136809173 396.945963541 297.084960938 396.875 c 0
 299.790690105 396.670584737 301.143554688 396.028983174 301.143554688 394.950195312 c 0
 301.143554688 394.337361821 300.818033855 393.542439947 300.166992188 392.565429688 c 0
 297.933117819 389.213099869 291.730318339 384.657435806 281.55859375 378.8984375 c 0
 278.87983746 377.73345227 258.515579647 369.505913207 220.465820312 354.215820312 c 0
 182.381188772 338.911237978 153.394535126 325.864688499 133.505859375 315.076171875 c 0
 133.272257592 314.949472603 133.114054467 314.759368436 133.03125 314.505859375 c 0
 120.034179687 274.432617188 110.203450521 242.856119792 103.5390625 219.776367188 c 0
 91.1796875 176.732152998 85 143.473363935 85 120 c 0
 85 72.0444257487 99.6419270833 47.0454023112 128.92578125 45.0029296875 c 0
 130.332085503 44.8981119792 131.767957899 44.845703125 133.233398438 44.845703125 c 0
 155.124058427 44.845703125 181.836623531 56.6871744792 213.37109375 80.3701171875 c 0
 226.933015595 90.5554370196 244.714591116 107.481869311 266.715820312 131.149414062 c 0
 270.186523437 134.8828125 274.125976563 139.195963542 278.534179688 144.088867188 c 0
 282.94140625 148.979492188 286.259765625 152.646809896 288.489257812 155.090820312 c 0
 290.7109375 157.526367187 293.075520833 160.005859375 295.583007812 162.529296875 c 0
 298.049510302 165.012249166 300.019562385 166.727743957 301.493164062 167.67578125 c 0
 302.862726431 168.55859375 304.031671744 169 305 169 c 0
 309.666666667 169 312 166 312 160 c 0
 312 152.233160208 302.737955729 136.772548229 284.213867188 113.618164062 c 0
 266.244276784 90.3246481941 247.948703867 70.0316794442 229.327148438 52.7392578125 c 0
 192.183214944 18.9130859375 158.407498798 2 128 2 c 0
 97.7119482918 2 73.3330420418 17.5013020833 54.86328125 48.50390625 c 0
 45.62109375 64.3489126269 41 82.5142772102 41 103 c 0
 41 170.878764314 76.3111979167 297.758972647 146.93359375 483.640625 c 0
 154.723091641 503.880821952 165.317167162 535.193972994 178.715820312 577.580078125 c 0
 178.934270243 578.26856358 178.691757222 578.693693788 177.98828125 578.85546875 c 0
 177.76307883 578.908573251 177.545630913 578.885461271 177.3359375 578.786132812 c 0
 175.013949437 577.689319144 169.237582249 574.557808727 160.006835938 569.391601562 c 0
 150.961094573 564.330708608 143.824050302 560.760396108 138.595703125 558.680664062 c 0
 135.923828125 558.790875183 134.587890625 560.969911641 134.587890625 565.217773438 c 0
 134.587890625 568.553996391 135.378580729 573.054647433 136.959960938 578.719726562 c 0
404.65625 652.75390625 m 1
 404.65625 652.75390625 l 1
EndSplineSet
EndChar

StartChar: F
Encoding: 70 70 14
Width: 490
VWidth: 875
Flags: HW
HStem: 433.592 16.8643<414.043 455.231> 641.285 34.7848<414.661 627.185>
VStem: 70 44<12.6975 135.357>
LayerCount: 2
Fore
SplineSet
540 675.596679688 m 4
 546.371102481 675.911817779 552.438786446 676.069386824 558.203051895 676.069386824 c 0
 605.978760902 676.069386824 632.911076937 665.245151112 639 643.596679688 c 4
 639.666666667 638.929361979 640 634.929361979 640 631.596679688 c 4
 640 625.596679688 638 622.596679688 634 622.596679688 c 4
 629.333333333 622.596679688 622.666666667 625.596679688 614 631.596679688 c 4
 603.953254619 638.055301718 584.798196118 641.284612733 556.534824497 641.284612733 c 0
 549.003324323 641.284612733 540.825049491 641.055301718 532 640.596679688 c 4
 505.294921875 639.208658855 470.73046875 635.415039063 428.306640625 629.215820312 c 4
 385.883463542 623.016601563 351.114583333 616.143554688 324 608.596679688 c 4
 323.333333333 607.262695313 320.666666667 599.929361979 316 586.596679688 c 4
 312.107421875 575.808919271 303.141927083 550.676432291 289.103515625 511.19921875 c 4
 275.065104167 471.722005209 264.030598959 441.187825521 256 419.596679688 c 5
 306.487630208 433.012044271 350.586588541 442.44140625 388.296875 447.884765625 c 4
 400.173335323 449.599011294 410.660840749 450.456134129 419.759391276 450.456134129 c 0
 434.593470479 450.456134129 445.735522346 448.177787336 453.185546875 443.62109375 c 4
 455.180594764 442.400721109 456.178118709 441.202262643 456.178118709 440.025718354 c 0
 456.178118709 437.802854917 452.617443723 435.658214424 445.49609375 433.591796875 c 4
 444.388671875 433.270833333 443.198893229 432.957682291 441.926757812 432.65234375 c 4
 437.737304687 431.502604167 415.219075521 425.555989583 374.372070312 414.8125 c 4
 333.525065104 404.069010417 303.401041667 395.663736979 284 389.596679688 c 4
 262.666666667 382.929361979 247.333333333 376.929361979 238 371.596679688 c 5
 223.481119792 337.830403646 206.481119792 299.830403646 187 257.596679688 c 4
 138.333333333 149.596679688 114 81.2633463542 114 52.5966796875 c 4
 114 47.2626953125 115.333333333 41.9293619792 118 36.5966796875 c 4
 120.666666667 31.9293619792 122 27.9293619792 122 24.5966796875 c 4
 122 16.0543619792 119.271158854 9.9638671875 113.813476562 6.3251953125 c 4
 108.084960937 2.50618489583 101.147135417 0.5966796875 93 0.5966796875 c 4
 77.6666666667 0.5966796875 70 15.9300130208 70 46.5966796875 c 5
 73.7018229167 78.2900390625 81.5706380208 110.47265625 93.6064453125 143.14453125 c 4
 105.641601563 175.81640625 122.11328125 213.705078125 143.021484375 256.810546875 c 4
 163.9296875 299.915364584 178.255859375 330.844075521 186 349.596679688 c 5
 174.12890625 343.314778646 149.795572917 331.314778646 113 313.596679688 c 4
 72.2864583333 293.596679688 46.953125 283.596679688 37 283.596679688 c 6
 34 283.596679688 l 5
 33 283.596679688 l 6
 27.6666666667 286.262695313 25 291.096028646 25 298.096679688 c 4
 25 303.763346355 33.3333333333 311.930013021 50 322.596679688 c 4
 66.6666666667 332.596679688 94.6666666667 347.263346355 134 366.596679688 c 4
 169.19921875 383.588867188 193.532552083 395.922200521 207 403.596679688 c 5
 240.94921875 492.075846355 264.566731771 556.208333334 277.852539062 595.994140625 c 5
 239.299804687 583.665364583 203.015625 571.199544271 169 558.596679688 c 4
 111 536.596679688 74 525.596679688 58 525.596679688 c 4
 54 525.596679688 50.6666666667 527.596679688 48 531.596679688 c 4
 46.6666666667 533.596679688 46 535.596679688 46 537.596679688 c 4
 46 544.262695313 52 551.262695313 64 558.596679688 c 4
 72 563.262695313 83.6666666667 567.929361979 99 572.596679688 c 4
 163.388020833 593.123372396 214.051432292 608.837239583 250.990234375 619.73828125 c 4
 287.928385417 630.638671875 334.295572917 642.051106771 390.091796875 653.975585938 c 4
 445.888020833 665.900065105 495.857421875 673.107096355 540 675.596679688 c 4
EndSplineSet
EndChar

StartChar: G
Encoding: 71 71 15
Width: 541
VWidth: 965
Flags: HW
HStem: 3.60352 40.9191<117.894 223.281> 630.901 39.7822<374.794 467.968>
VStem: 46.3035 42.1772<72.9025 241.209> 338.437 38.1925<20.6636 151.142>
LayerCount: 2
Fore
SplineSet
383.723632812 656.514648438 m 4
 401.942382812 665.960611979 420.1484375 670.68359375 438.341796875 670.68359375 c 4
 466.404296875 670.68359375 484.780273437 656.980794271 493.469726562 629.575195312 c 4
 496.157226562 622.851888021 497.501302083 617.174804687 497.501953125 612.543945312 c 4
 497.501953125 606.344075521 495.079752604 602.94140625 490.235351562 602.3359375 c 4
 489.357747395 601.660807292 488.720052083 601.323242188 488.322265625 601.323242188 c 4
 482.462239583 601.323242188 474.533854166 605.65234375 464.537109375 614.310546875 c 4
 454.519394625 624.318206833 442.11370019 630.901095524 429.213397473 630.901367239 c 0
 398.304151944 630.901367239 356.909777266 605.985351596 305.030273438 556.153320312 c 4
 242.335611979 494.092773437 191.608398437 423.960611979 152.848632812 345.756835938 c 4
 112.680405393 264.712701532 88.480660936 192.036240399 88.480660936 132.320487051 c 0
 88.480660936 106.086075705 96.4031229157 85.2077623135 112.248046875 69.685546875 c 4
 129.371697111 52.9102873641 148.389691379 44.5226576087 169.302029678 44.5226576087 c 0
 173.283091993 44.5226576087 177.332806059 44.8266285099 181.451171875 45.4345703125 c 4
 206.953776042 49.1988932292 232.334635417 67.689453125 257.59375 100.90625 c 4
 277.641276041 127.26953125 292.066731771 146.574544271 300.870117188 158.821289062 c 4
 309.681966146 171.081054687 321.083984375 189.197916667 335.076171875 213.171875 c 4
 349.072265625 237.15234375 362.385742187 263.380533854 375.016601562 291.856445312 c 4
 393.343424479 333.939127604 409.281575521 363.787760417 422.831054688 381.40234375 c 4
 426.735351563 387.257161458 431.225911458 390.183919271 436.302734375 390.182617188 c 6
 438.233398438 390.18359375 l 6
 444.130533854 388.803385417 449.008789062 385.861979167 452.868164062 381.359375 c 4
 454.744466146 379.479817708 455.682617188 376.981119791 455.682617188 373.86328125 c 4
 455.682617188 371.425130209 455.441731771 369.965169271 454.959960938 369.483398438 c 6
 454.73828125 369.149414062 l 5
 436.375 324.262044271 422.76953125 289.569010417 413.921875 265.0703125 c 4
 405.067057292 240.546875 396.725585938 210.755859375 388.897460938 175.697265625 c 4
 380.718495459 139.072589528 376.629012719 109.710537243 376.629012719 87.6111087717 c 0
 376.629012719 83.0724293424 376.801503272 78.8400805848 377.146484375 74.9140625 c 4
 378.34375 61.2845052083 383.471028645 44.1770833333 392.528320312 23.591796875 c 4
 399.271158854 10.7766927083 402.642578125 2.07389322917 402.642578125 -2.5166015625 c 6
 402.642578125 -4.556640625 l 6
 403.973958334 -8.26497395833 402.045898438 -10.4293619792 396.858398438 -11.0498046875 c 4
 396.571436009 -11.0581075774 396.285065832 -11.0622590223 395.999287909 -11.0622590223 c 0
 385.036118108 -11.0622590223 374.944558596 -4.95263882736 365.724609375 7.2666015625 c 4
 351.876953125 26.7412109375 343.099283854 49.0299479167 339.391601562 74.1328125 c 4
 338.291992187 78.8059895833 337.973632813 85.1643880208 338.436523438 93.2080078125 c 4
 338.903971354 101.321289063 339.473958333 107.807942709 340.146484375 112.66796875 c 4
 340.819661458 117.544921875 341.788411458 123.950520834 343.052734375 131.884765625 c 4
 344.318359375 139.839192708 345.19140625 145.979492187 345.671875 150.305664062 c 4
 345.753255208 151.037434895 345.426106771 151.414388021 344.690429688 151.436523438 c 4
 340.597330729 146.383138021 333.687825521 136.646484375 323.961914062 122.2265625 c 4
 314.245117187 107.819010417 307.729817708 98.40234375 304.416015625 93.9765625 c 4
 295.259114583 81.7662760417 283.213216145 67.6842447917 268.278320312 51.73046875 c 4
 253.397460937 35.8359375 238.188476563 23.8352864583 222.651367188 15.728515625 c 4
 207.156575521 7.64518229167 191.673502605 3.603515625 176.202148438 3.603515625 c 4
 141.890299479 3.603515625 111.508138021 15.0849609375 85.0556640625 38.0478515625 c 4
 59.2208730504 58.6990964348 46.3034775443 90.7563365245 46.3034775443 134.219571832 c 0
 46.3034775443 167.519163514 53.8859121129 207.514006757 69.05078125 254.204101562 c 4
 92.6985677087 324.591471354 126.655924479 392.165690104 170.922851562 456.926757812 c 4
 236.103190104 551.980794271 307.036783854 618.510091146 383.723632812 656.514648438 c 4
396.858398438 -11.0498046875 m 5
 396.858398438 -11.0498046875 l 5
464.537109375 614.310546875 m 5
 464.537109375 614.310546875 l 5
EndSplineSet
EndChar

StartChar: H
Encoding: 72 72 16
Width: 635
VWidth: 965
Flags: HW
HStem: 0 39<111.748 165.473> 642 31<592.538 700.079>
VStem: 31 37.0332<88.5611 181.204> 305.033 37.001<466.914 632.917> 370.031 35.002<64.5125 263.384> 715.483 34.5498<556.779 627.286>
LayerCount: 2
Fore
SplineSet
325.033203125 633 m 0
 336.363396386 633 342.030388574 620.341471354 342.034179688 595.024414062 c 0
 340.404211269 562.026587265 336.714432623 528.856990911 330.96484375 495.515625 c 0
 325.211407869 462.154677485 319.95001464 436.292372797 315.180664062 417.928710938 c 0
 310.408203125 399.553710938 302.371419271 370.334635417 291.0703125 330.271484375 c 0
 290.874577715 329.57784923 291.13043709 329.160531521 291.837890625 329.01953125 c 0
 306.138346354 335.469075521 324.671549479 343.5390625 347.4375 353.229492188 c 0
 370.231895955 362.932644109 391.245242309 372.557644109 410.477539062 382.104492188 c 0
 410.713225932 382.220843933 410.876962911 382.401833517 410.96875 382.647460938 c 0
 426.649738925 424.33842103 434.652343092 445.67826478 434.9765625 446.666992188 c 0
 466.92346877 531.192713977 498.850552103 590.073898872 530.7578125 623.310546875 c 0
 561.896868317 656.436848958 601.321998525 673 649.033203125 673 c 0
 674.825609681 673 698.301195619 665.726888021 719.459960938 651.180664062 c 0
 739.842122396 636.716406769 750.033203125 618.322852082 750.033203125 596 c 0
 750.033203125 573.609696816 737.466796875 549.847652545 712.333984375 524.713867188 c 0
 652.225234586 467.018342271 562.779596565 409.583771958 443.997070312 352.41015625 c 0
 443.721271373 352.27634269 443.543862519 352.061824461 443.46484375 351.766601562 c 0
 418.097936234 256.573043521 405.287389359 188.984176333 405.033203125 149 c 0
 405.033203125 98.4965984349 414.820963542 65.9057781224 434.396484375 51.2275390625 c 0
 436.132209568 49.6202771468 440.310269463 46.5493136052 446.930664062 42.0146484375 c 0
 453.483124562 37.5269692361 459.145884979 33.2564614236 463.918945312 29.203125 c 0
 468.478981869 25.3308470437 470.85040114 22.2510944396 471.033203125 19.9638671875 c 0
 471.021530378 15.0749316165 468.554733503 11.3932909915 463.6328125 8.9189453125 c 0
 461.31707274 8.0556640625 458.886083157 7.6240234375 456.33984375 7.6240234375 c 0
 454.993912235 7.6240234375 453.614354944 7.74479166667 452.201171875 7.986328125 c 0
 400.558101623 16.8038420649 373.168127665 49.8266285233 370.03125 107.0546875 c 0
 369.629233329 114.395648852 369.428712496 121.980284269 369.4296875 129.80859375 c 0
 369.4296875 162.675179127 372.9609375 200.023811939 380.0234375 241.854492188 c 0
 383.670031114 271.11894249 389.34809101 302.051559677 397.057617188 334.65234375 c 0
 397.223178354 335.353832545 396.949740854 335.759757024 396.237304688 335.870117188 c 0
 383.870442709 330.783854167 363.055989583 321.716471354 333.793945312 308.66796875 c 0
 304.53125 295.62109375 287.477539063 288.037109375 282.6328125 285.916015625 c 0
 282.361760767 285.797683338 282.179469101 285.598790109 282.0859375 285.319335938 c 0
 274.935195415 264.083651048 264.596979269 229.400708339 251.071289062 181.270507812 c 0
 241.33203125 146.62109375 228.556640625 110.737304688 212.745117188 73.619140625 c 0
 196.994209317 36.6478408488 183.569404629 14.3835179321 172.470703125 6.826171875 c 0
 165.786264336 2.275390625 160.973764336 0 158.033203125 0 c 0
 137.608338563 0 117.154562521 8.58984375 96.671875 25.76953125 c 0
 56.2226065441 58.9247492475 34.3423982107 97.3537857059 31.03125 141.056640625 c 0
 31.0104166667 141.612890625 31 142.175065104 31 142.743164062 c 0
 31 159.446014564 40.2610677083 178.977590085 58.783203125 201.337890625 c 0
 84.422176593 228.594035961 124.314754718 255.179973461 178.4609375 281.095703125 c 0
 188.529296875 285.85546875 198.833984375 290.485677083 209.375 294.986328125 c 0
 219.926757813 299.493164062 228.194661459 303.033854167 234.178710938 305.608398438 c 0
 240.208642674 308.202876543 244.667301528 310.382238522 247.5546875 312.146484375 c 0
 247.768281249 312.277070127 247.912486979 312.46196596 247.987304688 312.701171875 c 0
 261.293714554 355.269186415 273.929782262 404.911113498 285.895507812 461.626953125 c 0
 297.867264687 518.371420001 304.246496458 563.825521563 305.033203125 597.989257812 c 0
 305.033203125 621.329752604 311.699869792 633 325.033203125 633 c 0
58.783203125 201.337890625 m 1
 58.783203125 201.337890625 l 1
463.6328125 8.9189453125 m 1
 463.6328125 8.9189453125 l 1
471.033203125 19.9638671875 m 1
 471.033203125 19.9638671875 l 1
342.034179688 595.024414062 m 1
 342.034179688 595.024414062 l 1
458.2265625 400.5390625 m 0
 507.561523437 419.459960937 561.347330729 448.335286458 619.583984375 487.165039062 c 0
 647.535513216 505.395317106 670.598338737 524.782361377 688.772460938 545.326171875 c 0
 706.579752605 564.294787274 715.483398438 581.319201336 715.483398438 596.399414062 c 0
 715.483398438 607.644505591 710.555989584 617.759414445 700.701171875 626.744140625 c 0
 689.174393591 636.914713542 670.118404008 642 643.533203125 642 c 0
 616.934827171 642 591.873954775 630.910481771 568.350585938 608.731445312 c 0
 521.333957407 565.308369883 484.186496469 496.314554779 456.908203125 401.75 c 0
 456.708161328 401.056603589 456.961416537 400.637658276 457.66796875 400.493164062 c 0
 457.85848886 400.454282407 458.044686777 400.469581887 458.2265625 400.5390625 c 0
234.77734375 266.966796875 m 0
 187.052057545 254.290957734 143.256159107 231.557233776 103.389648438 198.765625 c 0
 79.818684896 178.561661661 68.033203125 157.973119995 68.033203125 137 c 0
 68.033203125 118.968588864 78.1067708333 97.4262711557 98.25390625 72.373046875 c 0
 104.261526798 64.9025063979 111.932425235 57.4962563979 121.266601562 50.154296875 c 0
 130.720018387 42.7180989583 137.642218908 39 142.033203125 39 c 0
 151.02578858 39 157.95547608 42.1285807292 162.822265625 48.3857421875 c 0
 175.528997874 70.0393048662 186.874700999 94.490476741 196.859375 121.739257812 c 0
 206.837280871 148.967185457 214.223348579 172.125714103 219.017578125 191.21484375 c 0
 223.809570312 210.293945313 229.474283854 235.152669271 236.01171875 265.791015625 c 0
 236.162410224 266.496692773 235.750951891 266.888619856 234.77734375 266.966796875 c 0
EndSplineSet
EndChar

StartChar: I
Encoding: 73 73 17
Width: 301
VWidth: 965
Flags: HW
HStem: 2.43848 21G<126.798 135.755> 641.239 20G<228.596 229.064>
VStem: 110.87 39.6309<6.63741 241.14>
LayerCount: 2
Fore
SplineSet
114.8515625 132.858398438 m 0
 117.813476563 156.439453125 120.363606771 177.8046875 122.501953125 196.954101562 c 0
 124.620184098 215.913249428 133.940496598 262.066895261 150.462890625 335.415039062 c 0
 167.065429688 409.130859375 181.180989583 481.802734375 192.809570312 553.430664062 c 0
 202.888927067 615.52129338 208.977794254 650.807100672 211.076171875 659.288085938 c 0
 211.715290596 659.553959325 212.581176012 659.779545263 213.673828125 659.96484375 c 0
 215.04159065 660.196520039 216.251226066 660.351467955 217.302734375 660.4296875 c 0
 218.628526182 660.52601844 220.283148578 660.642229377 222.266601562 660.778320312 c 0
 224.469447061 660.932282632 226.268600707 661.069977945 227.6640625 661.19140625 c 0
 228.044941603 661.223307291 228.415709833 661.239257812 228.776367188 661.239257812 c 0
 229.350911459 661.239257812 229.911132813 661.200195312 230.45703125 661.122070312 c 0
 231.313724964 661.000233693 232.078698922 660.80003838 232.751953125 660.521484375 c 0
 233.410440063 660.252456526 234.015257771 659.912612776 234.56640625 659.501953125 c 0
 235.578408126 658.745436988 236.39644198 657.663080217 237.020507812 656.254882812 c 0
 238.097668545 653.826830878 238.636731045 648.962573066 238.637695312 641.662109375 c 0
 238.636714978 613.342204562 229.803381645 554.741293103 212.137695312 465.859375 c 0
 189.309570312 350.99609375 173.338541666 265.609049479 164.224609375 209.698242188 c 0
 155.075520833 153.553087985 150.500976562 115.938830172 150.500976562 96.85546875 c 0
 150.500976562 66.1867510815 151.292317708 41.5484047273 152.875 22.9404296875 c 0
 152.995442708 21.6204164566 153.055664062 20.36390604 153.055664062 19.1708984375 c 0
 153.055664062 13.3064351903 151.637695312 9.08801071113 148.801757812 6.515625 c 0
 147.396959501 5.23925970284 145.495917835 4.25065293201 143.098632812 3.5498046875 c 0
 140.591009853 2.81668560317 137.546087978 2.44624289484 133.963867188 2.4384765625 c 0
 119.631944191 2.4384765625 112.142360857 7.681640625 111.495117188 18.16796875 c 0
 111.390185546 30.4247546755 111.193896483 46.8586739464 110.90625 67.4697265625 c 0
 110.883152765 69.2770851982 110.871108495 71.097723219 110.870117188 72.931640625 c 0
 110.870117188 91.7158203123 112.197265625 111.69140625 114.8515625 132.858398438 c 0
111.495117188 18.16796875 m 1
 111.495117188 18.16796875 l 1
110.49609375 18.1328125 m 1025
109.497070312 18.0986328125 m 1025
107.497070312 18.03125 m 1025
106.497070312 17.998046875 m 1025
EndSplineSet
EndChar

StartChar: J
Encoding: 74 74 18
Width: 392
VWidth: 965
Flags: HW
HStem: -119.146 37.8242<217.611 268.418> 643.824 20G<265.305 269.971>
VStem: 251.4 36.2793<417.462 663.82> 297.6 33.5352<-43.5032 249.531>
LayerCount: 2
Fore
SplineSet
251.400390625 624.079101562 m 0
 251.400390625 636.868879017 251.772460937 644.380597767 252.516601562 646.614257812 c 0
 255.703763247 658.087565104 261.301093977 663.82421875 269.30859375 663.82421875 c 0
 270.634281571 663.82421875 272.033695634 663.675455729 273.506835938 663.377929688 c 0
 282.955403646 662.031349055 287.6796875 657.294695409 287.6796875 649.16796875 c 0
 287.6796875 647.376617247 287.467122396 645.417632872 287.041992188 643.291015625 c 0
 286.347330729 639.821350071 286 631.584045383 286 618.579101562 c 2
 285.995117188 618.40625 l 2
 285.307617188 606.564671986 284.963867188 593.701065215 284.963867188 579.815429688 c 0
 284.963867188 517.565759876 292.662760417 429.173507272 308.060546875 314.638671875 c 0
 323.443359375 200.213078786 331.134765625 110.729029307 331.134765625 46.1865234375 c 0
 331.134765625 3.5314367899 327.78125 -28.1583418559 321.07421875 -48.8828125 c 0
 302.31006642 -95.6962610367 272.591967462 -119.117159474 231.919921875 -119.145507812 c 1
 217.611328125 -118.08203125 l 2
 186.332199266 -113.847099091 156.806483121 -103.325614716 129.034179688 -86.517578125 c 0
 101.238970572 -69.6944702347 78.3600643223 -48.9330770056 60.3974609375 -24.2333984375 c 0
 42.5322265625 0.3340873915 33.599609375 22.2523816623 33.599609375 41.521484375 c 0
 33.599609375 81.4518384677 51.201171875 105.950861905 86.404296875 115.018554688 c 0
 90.634579052 116.109522197 94.5177170728 116.662907613 98.0537109375 116.678710938 c 2
 102.715820312 115.984375 l 1
 111.610351563 110.46173363 116.057617188 105.913556547 116.057617188 102.33984375 c 0
 116.057617188 100.630829549 114.906575521 98.987925903 112.604492188 97.4111328125 c 0
 85.5348307293 81.8037109375 72.5703125 64.287109375 73.7109375 44.861328125 c 24
 73.7451171875 44.4150390625 l 1
 80.2861212339 10.1772149288 99.4469285254 -19.1688137171 131.227539062 -43.623046875 c 0
 162.954344235 -68.0346092968 195.222573401 -80.600690026 228.032226562 -81.3212890625 c 0
 242.616999498 -81.3212890625 255.857233873 -75.7236328125 267.752929688 -64.5283203125 c 0
 287.650716146 -45.9564174932 297.599609375 3.5461866735 297.599609375 83.9794921875 c 0
 297.599609375 121.213369719 295.623372396 151.719880136 291.670898438 175.499023438 c 0
 287.739239885 199.144777675 279.82322426 257.251548508 267.922851562 349.819335938 c 0
 256.907877604 447.486024427 251.400390625 538.905946301 251.400390625 624.079101562 c 0
98.0537109375 116.678710938 m 1
 98.0537109375 116.678710938 l 1
217.611328125 -118.08203125 m 1
 217.611328125 -118.08203125 l 1
231.919921875 -119.145507812 m 1
 231.919921875 -119.145507812 l 1
321.07421875 -48.8828125 m 1
 321.07421875 -48.8828125 l 1
EndSplineSet
EndChar

StartChar: K
Encoding: 75 75 19
Width: 505
VWidth: 965
Flags: HW
HStem: -41.9951 34.1816<404.068 466.337> 2.35645 21G<37.9645 43.3011> 642.914 20G<140.852 152.754>
VStem: 40.8184 36.8896<251.212 305.23> 134.565 34.3789<424.023 654.375> 427.188 36.0312<615.097 678.232>
LayerCount: 2
Fore
SplineSet
134.931640625 344.65625 m 1
 145.401041667 336.196614583 159.423828125 315.90625 177 283.78515625 c 1
 227.267578125 327.135416667 268.070638021 372.465169271 299.409179688 419.774414062 c 0
 300.737304688 421.799804687 302.882486979 424.772786458 305.844726562 428.693359375 c 0
 363.122721354 505.824869792 402.375325521 581.793619792 423.602539062 656.599609375 c 0
 424.801106771 661.403645833 425.99609375 666.025716145 427.1875 670.465820312 c 0
 429.774088541 683.622721354 437.392903645 688.599283854 450.043945312 685.395507812 c 0
 453.698893229 684.467773437 457.172200521 682.138671875 460.463867188 678.408203125 c 0
 463.755533855 674.677734375 464.673828125 669.361653646 463.21875 662.459960938 c 0
 447.854817708 608.984700521 424.544270833 556.507486979 393.287109375 505.028320312 c 0
 339.184244792 415.926106771 290.780273437 349.511067708 248.075195312 305.783203125 c 0
 227.077799479 284.356770834 208.837565104 266.924479167 193.354492188 253.486328125 c 1
 238.053059896 169.703125 276.50390625 112.26139323 308.70703125 81.1611328125 c 0
 314.502604167 75.5947265625 318.198567708 71.7718098958 319.794921875 69.6923828125 c 0
 365.533203125 27.1044921875 408.322916667 1.26920572917 448.1640625 -7.8134765625 c 0
 452.322265625 -8.73079427083 455.885091146 -10.0846354167 458.852539062 -11.875 c 0
 469.219075521 -17.41796875 471.750651042 -25.439453125 466.447265625 -35.939453125 c 0
 464.125651042 -39.9765625 459.305664063 -41.9951171875 451.987304688 -41.9951171875 c 0
 444.500325521 -41.9951171875 434.398763021 -39.8824869792 421.682617188 -35.6572265625 c 0
 373.495117188 -18.6787109375 331.500651042 8.8203125 295.69921875 46.83984375 c 2
 272.345703125 71.6708984375 l 1
 239.715494792 108.430664062 204.369140625 161.884114583 166.306640625 232.03125 c 1
 138.369140625 211.217447917 115.029296875 200.631835937 96.287109375 200.274414062 c 1
 77.28515625 133.877278646 63.720703125 79.0777994795 55.59375 35.8759765625 c 1
 65.0618489583 27.4508463542 65.615234375 18.890625 57.25390625 10.1953125 c 0
 52.228515625 4.96940104167 46.5084635417 2.3564453125 40.09375 2.3564453125 c 0
 35.8352864583 2.3564453125 31.2711588542 3.5078125 26.4013671875 5.810546875 c 0
 21.5126953125 8.12239583333 19.560546875 11.888671875 20.544921875 17.109375 c 0
 21.5299479167 22.3307291667 23.4039713542 33.0852864583 26.1669921875 49.373046875 c 0
 28.9306640625 65.6608072917 31.2506510417 78.3759765625 33.126953125 87.5185546875 c 0
 38.89453125 115.62141927 49.5439453125 155.713216145 65.0751953125 207.793945312 c 1
 48.9039713542 219.142252604 40.818359375 236.881835937 40.818359375 261.012695312 c 0
 40.818359375 289.003580729 51.4104817708 315.09375 72.5947265625 339.283203125 c 0
 83.1331380208 350.968098958 94.111002604 357.016927083 105.528320312 357.4296875 c 1
 122.110351563 428.350260417 131.234700521 480.810546875 132.901367188 514.810546875 c 0
 134.010742188 537.446614584 134.565429688 556.8984375 134.565429688 573.166015625 c 0
 134.565429688 606.091145834 132.29296875 625.974609375 127.748046875 632.81640625 c 0
 122.286458333 642.113932291 121.836263021 649.382486979 126.397460938 654.622070312 c 0
 130.958658854 659.861653645 137.045572916 662.625651041 144.658203125 662.9140625 c 0
 160.848958334 661.842447917 168.944335938 634.889648437 168.944335938 582.055664062 c 0
 168.944335938 565.833007813 168.180989584 547.169921875 166.654296875 526.06640625 c 0
 163.15234375 479.229166667 152.578125 418.759114583 134.931640625 344.65625 c 1
92.87109375 306.392578125 m 1
 84.138671875 293.866536458 79.4095052083 283.843424479 78.68359375 276.323242188 c 0
 77.494140625 263.992513021 77.1689453125 255.472981771 77.7080078125 250.764648438 c 1
 82.6988932292 268.105794271 87.7532552083 286.6484375 92.87109375 306.392578125 c 1
124.43359375 302.453125 m 1
 118.710286458 280.16796875 112.968098958 258.857747396 107.20703125 238.522460938 c 1
 119.708333333 242.662434896 133.879231771 250.4375 149.719726562 261.84765625 c 1
 139.410481771 279.853515625 130.981770833 293.388671875 124.43359375 302.453125 c 1
EndSplineSet
EndChar

StartChar: L
Encoding: 76 76 20
Width: 487
VWidth: 965
Flags: HW
HStem: 1.16516 28.8951<305.163 420.195> 292.641 20G<110.452 115.545>
VStem: 16.3581 28.9837<59.4245 141.587>
LayerCount: 2
Fore
SplineSet
110.57421875 261.684570312 m 0
 108.077473958 260.464518229 105.446614583 258.228515625 102.681640625 254.9765625 c 0
 97.5989583333 249.001953125 91.9814453125 238.641601563 85.8291015625 223.895507812 c 0
 80.6077473958 211.377929687 75.0052083333 195.717122396 69.021484375 176.913085938 c 0
 63.1223958333 158.403971354 58.3258463542 141.903971354 54.6318359375 127.413085938 c 0
 48.4384758542 103.12391838 45.3417958126 84.4812416272 45.3417958126 71.4850556792 c 0
 45.3417958126 67.3415243711 45.6565748125 63.7719615406 46.2861328125 60.7763671875 c 0
 46.5862630208 59.3076171875 47.4215494792 58.8658854167 48.7919921875 59.451171875 c 0
 56.2249348958 63.2682291667 66.0120442708 73.9957682292 78.1533203125 91.6337890625 c 0
 87.9078776042 104.926106771 97.5286458333 119.802083333 107.015625 136.26171875 c 0
 115.797526041 151.494791667 124.466471354 168.086914063 133.022460938 186.038085938 c 0
 138.361653646 197.238606771 141.041015625 202.901367188 141.060546875 203.026367188 c 2
 138.98046875 208.674804688 l 2
 126.936197917 242.638997396 118.613606771 260.189453125 114.012695312 261.326171875 c 0
 113.929361979 261.535807292 113.576497395 261.723307292 112.954101562 261.888671875 c 0
 111.577148437 261.783203125 110.783854167 261.715169271 110.57421875 261.684570312 c 0
322.412109375 629.209960938 m 0
 322.804036458 630.403320313 323.458658854 632.1640625 324.375976562 634.4921875 c 0
 325.458658854 636.830729167 326.196940104 638.852213542 326.590820312 640.556640625 c 0
 326.863606771 642.185546875 327.310221354 643.899739583 327.930664062 645.69921875 c 0
 327.976888021 647.233072917 327.904622396 648.646484375 327.713867188 649.939453125 c 0
 327.237955729 650.646484375 326.272135417 651.191731771 324.81640625 651.575195312 c 0
 320.938802083 651.858398437 313.042317708 648.563802083 301.126953125 641.69140625 c 1
 299.042317708 645.23046875 300.026692708 649.569335937 304.080078125 654.708007812 c 0
 308.693359375 660.902669271 314.659505208 665.92578125 321.978515625 669.77734375 c 0
 331.992838542 675.92578125 340.7421875 677.901041667 348.2265625 675.703125 c 0
 353.408854167 674.567708333 357.880859375 672.146158854 361.642578125 668.438476562 c 0
 364.547526042 665.479492187 366.299479167 662.404947917 366.8984375 659.21484375 c 0
 367.6328125 655.73828125 367.584635417 652.930664063 366.75390625 650.791992188 c 0
 356.91796875 624.263997396 347.592122396 598.863606771 338.776367188 574.590820312 c 0
 328.258789063 546.196940104 317.908854167 518.814778646 307.7265625 492.444335938 c 0
 298.575520833 468.148111979 289.3671875 444.620442708 280.1015625 421.861328125 c 0
 269.3671875 395.287109375 259.1796875 370.340494792 249.5390625 347.021484375 c 0
 241.1796875 327.007161458 232.965494792 307.875 224.896484375 289.625 c 0
 210.298828125 255.875 196.230143229 225.636393229 182.690429688 198.909179688 c 1
 186.230143229 185.636393229 190.168945313 173.291992187 194.506835938 161.875976562 c 0
 208.835611979 123.291992187 227.133463542 94.8056640625 249.400390625 76.4169921875 c 0
 255.133463542 71.4723307292 261.489257813 66.9641927083 268.467773438 62.892578125 c 0
 275.489257813 58.9641927083 282.54296875 55.0852864583 289.62890625 51.255859375 c 0
 296.54296875 47.751953125 303.993164063 44.6233723958 311.979492188 41.8701171875 c 0
 335.208013781 33.9968654665 357.284257886 30.0602396059 378.208224502 30.0602396059 c 0
 399.100968161 30.0602396059 416.786740585 32.7624857283 429.817382812 36.146484375 c 0
 431.939127604 36.7154947917 432.750976563 36.1331380208 432.252929688 34.3994140625 c 0
 430.750976563 28.7998046875 428.250325521 24.0543619792 424.750976562 20.1630859375 c 0
 421.583658854 16.0543619792 417.011067708 12.7330729167 411.033203125 10.19921875 c 0
 399.677734375 4.73307291667 388.875976563 1.72265625 378.627929688 1.16796875 c 0
 378.163145273 1.16609334429 377.698972603 1.16515564143 377.235411676 1.16515564143 c 0
 350.020073072 1.16515564143 324.913282201 4.39721313596 301.915039062 10.861328125 c 0
 278.638346354 17.6204427083 257.11328125 28.3470052083 237.33984375 43.041015625 c 0
 227.779947917 50.3470052083 218.76171875 58.33984375 210.28515625 67.01953125 c 0
 197.428385417 80.33984375 186.463867187 95.255859375 177.391601562 111.767578125 c 0
 169.797200521 125.255859375 163.712239583 139.414388021 159.13671875 154.243164062 c 1
 139.045572917 119.414388021 127.627278646 99.6686197917 124.881835938 95.005859375 c 4
 102.293945313 57.001953125 78.5400390625 27.603515625 53.6201171875 6.810546875 c 4
 46.1320250128 0.27838136094 39.3165953253 -3.00351968073 33.173828125 -3.03515625 c 0
 30.3912760417 -3.01171875 27.8177083333 -2.10416666667 25.453125 -0.3125 c 0
 23.1510416667 1.22916666667 21.4469401042 3.75227864583 20.3408203125 7.2568359375 c 0
 17.6857029333 16.0776126175 16.3581442437 28.9344645772 16.3581442437 45.8273918167 c 0
 16.3581442437 51.5880993141 16.51252585 57.8181614169 16.8212890625 64.517578125 c 0
 17.6070963542 78.8391927083 21.3525390625 100.887695313 28.0576171875 130.663085938 c 0
 31.3525390625 144.221028646 35.2763671875 159.667317708 39.8291015625 177.001953125 c 0
 45.9430338542 199.667317708 55.1175130208 223.585286458 67.3525390625 248.755859375 c 0
 79.1175130208 272.918619792 88.6969401042 290.403645833 96.0908203125 301.2109375 c 0
 101.042063524 308.830825897 106.984981515 312.640770095 113.919574286 312.640770095 c 0
 117.17107221 312.640770095 120.640589115 311.803156627 124.328125 310.127929688 c 0
 127.442708333 308.709309896 130.819986979 306.305013021 134.459960938 302.915039062 c 0
 136.153320313 300.971679687 137.8203125 298.962565104 139.4609375 296.887695312 c 0
 141.8203125 294.295898437 144.081054687 290.849283854 146.243164062 286.547851562 c 0
 148.747721354 282.849283854 150.513997396 279.304036458 151.541992188 275.912109375 c 0
 153.180664063 272.637369792 154.784179687 268.804361979 156.352539062 264.413085938 c 0
 158.117513021 260.137695313 159.561848958 256.742838542 160.685546875 254.228515625 c 2
 162.064453125 250.185546875 l 2
 162.688151042 247.395182292 163.242513021 246.007161458 163.727539062 246.021484375 c 0
 171.909179687 262.673828125 180.174153646 279.359700521 188.522460938 296.079101562 c 0
 196.840820313 312.693033854 204.768880208 329.58984375 212.306640625 346.76953125 c 0
 223.435546875 371.58984375 234.450846354 396.755208333 245.352539062 422.265625 c 0
 255.117513021 446.088541667 264.750651042 470.013997396 274.251953125 494.041992188 c 0
 284.750651042 520.680664063 294.688802083 547.684244792 304.06640625 575.052734375 c 0
 310.022135417 593.017578125 316.137369792 611.069986979 322.412109375 629.209960938 c 0
EndSplineSet
EndChar

StartChar: M
Encoding: 77 77 21
Width: 480
VWidth: 965
Flags: HW
HStem: 1.2832 15.792<314.247 343.191> 241.275 31.9424<162.986 222.336> 664.729 20G<422.325 426.463>
VStem: 27.6533 35.2725<0.527583 37.6478> 268.8 33.915<27.6459 215.589>
LayerCount: 2
Fore
SplineSet
405.262695312 671.630859375 m 4
 412.798502604 680.36328125 419.445638021 684.729492188 425.204101562 684.729492188 c 4
 427.721679687 684.729492188 430.301432292 683.830403646 432.943359375 682.032226562 c 5
 429.27734375 644.840820313 420.507486979 601.519856771 406.633789062 552.069335938 c 4
 399.033528646 515.808919271 385.405924479 463.860351563 365.750976562 396.223632812 c 4
 346.086914062 328.566731771 330.406575521 267.502604167 318.709960938 213.03125 c 4
 308.049804687 163.38671875 302.718098958 118.061848958 302.71484375 77.056640625 c 4
 302.71484375 73.04296875 302.765950521 69.0712890625 302.868164062 65.1416015625 c 4
 304.478190104 47.0302734375 307.614257813 34.4192708333 312.276367188 27.30859375 c 4
 317.324544271 19.6100260417 324.778645833 16.1988932292 334.638671875 17.0751953125 c 4
 341.450520833 17.6806640625 344.856445312 16.767578125 344.856445312 14.3359375 c 4
 344.856445312 7.12369791667 337.838541666 2.89290364583 323.802734375 1.6435546875 c 4
 321.089192708 1.4033203125 318.476888021 1.283203125 315.965820312 1.283203125 c 4
 303.634440104 1.283203125 293.564127604 4.171875 285.754882812 9.94921875 c 4
 274.658528645 18.1588541667 269.020182291 32.755859375 268.83984375 53.740234375 c 4
 268.813802083 56.83984375 268.800455729 59.9137369792 268.799804688 62.9619140625 c 4
 268.799804688 114.155273438 272.563151042 158.088216146 280.08984375 194.760742188 c 4
 288.067708333 233.624023437 305.541015625 299.350260416 332.509765625 391.939453125 c 4
 332.7109375 392.6328125 332.458658855 393.052408855 331.752929688 393.198242188 c 4
 331.254231771 393.301757813 330.889322916 393.126953125 330.658203125 392.673828125 c 4
 319.974609375 371.700520834 310.402669271 354.104166667 301.942382812 339.884765625 c 4
 293.488606771 325.676432292 282.985677083 310.25 270.43359375 293.60546875 c 4
 257.930338542 277.025390625 244.57421875 264.307617187 230.365234375 255.452148438 c 4
 216.197265625 246.622721354 201.465820313 241.911458333 186.170898438 241.318359375 c 4
 185.426106771 241.289713542 184.694986979 241.275390625 183.977539062 241.275390625 c 4
 172.478190104 241.275390625 162.216796875 244.874674479 153.193359375 252.073242188 c 4
 143.54296875 259.772460937 135.973958334 270.187825521 130.486328125 283.319335938 c 4
 124.951822916 296.563476563 120.766276041 308.611002604 117.9296875 319.461914062 c 4
 115.09375 330.316731771 112.852864583 341.595377604 111.20703125 353.297851562 c 4
 111.106770833 354.012695313 110.704427083 354.291666667 110 354.134765625 c 4
 109.587890625 354.043619792 109.334960938 353.791992187 109.241210938 353.379882812 c 4
 88.162434896 260.413085937 72.7239583333 149.474283854 62.92578125 20.5634765625 c 5
 59.01953125 7.85123697917 52.8046875 1.11588541667 44.28125 0.357421875 c 4
 43.67578125 0.302734375 43.0901692708 0.276041666667 42.5244140625 0.27734375 c 4
 33.8512369792 0.27734375 28.8942057292 7.25 27.6533203125 21.1953125 c 4
 27.2177734375 26.1048177083 27 31.6865234375 27 37.9404296875 c 4
 32.3014322917 159.177408855 54.6279296875 297.231770834 93.9794921875 452.103515625 c 4
 111.650716146 521.00390625 123.569986979 573.426757812 129.737304688 609.372070312 c 4
 135.651367188 643.822591145 143.081705729 661.841145833 152.028320312 663.427734375 c 4
 160.203450521 664.877604166 164.556640625 662.621419271 165.087890625 656.659179688 c 4
 165.907552083 647.433268229 166.317382812 637.141601563 166.317382812 625.784179688 c 4
 166.317382812 592.735351563 162.846679687 550.64453125 155.905273438 499.51171875 c 4
 148.400065105 444.242838542 144.647460938 402.610677084 144.647460938 374.615234375 c 4
 144.647460938 367.565755208 144.885742188 361.358072917 145.362304688 355.9921875 c 4
 150.956054688 300.809244792 165.171549479 273.217773438 188.008789062 273.217773438 c 4
 196.833658854 273.217773438 206.890625 277.372070313 218.1796875 285.680664062 c 4
 248.84765625 308.258138021 279.510416667 351.215494792 310.16796875 414.552734375 c 4
 329.623046875 458.647786458 346.924479167 506.252604167 362.072265625 557.3671875 c 4
 377.128255208 608.1640625 391.525065104 646.251953125 405.262695312 671.630859375 c 4
EndSplineSet
EndChar

StartChar: N
Encoding: 78 78 22
Width: 581
VWidth: 965
Flags: HW
HStem: -0.362305 41.7158<322.484 379.791> 647.671 20G<532.65 533.503>
LayerCount: 2
Fore
SplineSet
400.600585938 27.181640625 m 0
 384.681315105 8.81901041667 368.818684896 -0.3623046875 353.012695312 -0.3623046875 c 0
 350.214518229 -0.3623046875 347.417317709 -0.07421875 344.62109375 0.501953125 c 0
 326.041015625 4.32942708333 308.51953125 16.7229817708 292.056640625 37.6826171875 c 0
 275.59375 58.6416015625 261.191080729 83.791015625 248.848632812 113.130859375 c 0
 236.505533854 142.470052084 225.007161458 175.351236979 214.353515625 211.774414062 c 0
 195.404296875 276.566731771 181.3828125 341.514973958 172.2890625 406.619140625 c 1
 112.162760417 238.712890625 78.1057942708 112.151367188 70.1181640625 26.9345703125 c 0
 67.1708984375 -4.52180989583 59.4931640625 -20.8141276042 47.0849609375 -21.9423828125 c 0
 46.8035800018 -21.9680462203 46.5190030876 -21.9808779242 46.2312301951 -21.9808779242 c 0
 42.8396211044 -21.9808779242 39.004080831 -20.1985149703 34.724609375 -16.6337890625 c 0
 30.0833333333 -12.7666015625 27.7626953125 -4.3251953125 27.7626953125 8.6904296875 c 0
 27.7626953125 21.7067057292 32.2919921875 51.5481770833 41.3505859375 98.21484375 c 0
 50.4091796875 144.881510417 72.5654296877 221.098958333 107.819335938 326.8671875 c 0
 142.348204822 430.461446121 159.612639264 499.196442955 159.612639264 533.072178002 c 0
 159.612639264 533.782862133 159.605040759 534.478203841 159.58984375 535.158203125 c 0
 159.783203125 537.35546875 159.879882812 539.561197916 159.879882812 541.775390625 c 0
 159.879882812 553.114583334 157.346679687 564.69140625 152.280273438 576.505859375 c 0
 148.508789063 585.302083333 143.886393229 589.700195312 138.413085938 589.700195312 c 0
 135.098632813 589.700195312 131.47265625 588.088216145 127.53515625 584.864257812 c 0
 126.011067709 582.952148437 123.94140625 580.05859375 121.326171875 576.18359375 c 0
 120.354337262 574.743623718 119.577816059 574.023638702 118.996608266 574.023638702 c 0
 118.131837902 574.023638702 117.69945272 575.617542836 117.69945272 578.805351103 c 0
 117.69945272 579.240587432 117.707512751 579.705535502 117.723632812 580.200195312 c 0
 118.397460937 600.792643229 123.706380208 618.1796875 133.650390625 632.361328125 c 0
 143.594401042 646.542317708 152.320638021 654.081380208 159.829101562 654.978515625 c 0
 160.093894437 655.002592327 160.358049404 655.014630678 160.621566461 655.014630678 c 0
 167.105978286 655.014630678 173.204128007 647.725248577 178.916015625 633.146484375 c 0
 184.860026042 617.975911458 193.265299479 559.414713542 204.131835938 457.462890625 c 1
 208.126627605 390.020182292 219.766276042 322.450195313 239.05078125 254.752929688 c 0
 258.334635417 187.056315104 278.750325521 134.036132812 300.297851562 95.6923828125 c 0
 320.653971354 59.4664713542 337.326497396 41.353515625 350.315429688 41.353515625 c 0
 351.074544271 41.353515625 351.821289062 41.4153645833 352.555664062 41.5390625 c 0
 371.403971354 45.9348958333 387.001953125 65.6409505207 399.349609375 100.657226562 c 0
 413.896484375 141.907226562 423.872721354 179.930013021 429.278320312 214.725585938 c 0
 434.683268229 249.520507813 438.870117188 277.216471354 441.838867188 297.813476562 c 0
 444.806966146 318.410481771 447.830403646 344.846679687 450.909179688 377.122070312 c 0
 455.357747396 423.753580729 458.878255208 463.351888021 461.470703125 495.916992188 c 0
 468.507161458 584.312825521 473.499348958 631.564778646 476.447265625 637.672851562 c 0
 479.395833334 643.781575521 482.038736979 648.140950521 484.375976562 650.750976562 c 0
 486.714518229 653.362304687 488.710286458 655.396158854 490.36328125 656.852539062 c 0
 492.016927083 658.308919271 494.429361979 659.603190104 497.600585938 660.735351562 c 0
 500.773111979 661.866210937 503.00390625 662.59375 504.29296875 662.91796875 c 0
 505.583333333 663.2421875 508.325195313 663.741861979 512.518554688 664.416992188 c 0
 516.711914063 665.092122396 520.663736979 665.772135417 524.374023438 666.45703125 c 0
 528.084309896 667.141927083 531.294596354 667.546549479 534.004882812 667.670898438 c 1
 533.000976563 666.588867187 531.715169271 665.384114583 530.147460938 664.056640625 c 0
 514.946940105 651.164713542 507.045247396 641.426757813 506.442382812 634.842773438 c 0
 505.840169271 628.258138021 503.345052083 596.540364583 498.95703125 539.689453125 c 0
 494.569010417 482.83984375 490.44140625 433.790039062 486.57421875 392.540039062 c 0
 475.158203125 270.762044271 459.705403645 173.932942708 440.215820312 102.052734375 c 0
 432.544596354 73.751953125 419.339518229 48.794921875 400.600585938 27.181640625 c 0
EndSplineSet
EndChar

StartChar: O
Encoding: 79 79 23
Width: 437
VWidth: 965
Flags: HW
HStem: 1.00098 42.4174<121.596 206.899> 569 41<203.304 259.962> 639 34<198.631 316.659>
VStem: 31 41<115.241 357.997> 254 36<518.754 569> 254 25.0859<509.203 558.953> 369 38.7433<332.74 591.373>
LayerCount: 2
Fore
SplineSet
263 673 m 0xf6
 317.962890625 673 359.014973959 651.154622396 386.15625 607.463867188 c 0
 394.748046875 594.243164063 400.366210937 579.040364583 403.010742188 561.85546875 c 0
 406.165785318 538.86502513 407.743306883 514.97388986 407.743306883 490.182062941 c 0
 407.743306883 432.108455776 399.087334797 369.092690003 381.775390625 301.134765625 c 0
 365.300130208 237.849609375 340.422851563 178.643554687 307.143554688 123.516601562 c 0
 285.863606771 88.2698567707 265.595703125 62.0146484375 246.33984375 44.7509765625 c 0
 213.194661458 15.5830078125 184.748046875 0.999674479167 161 1.0009765625 c 0
 137.901041667 0.999674479167 116.447916667 8.921875 96.640625 24.767578125 c 0
 60.1927083333 56.5774739583 38.6448567708 118.347330729 31.9970703125 210.077148438 c 0
 31.3323567708 218.726236979 31 227.3671875 31 236 c 0
 31 326.459635417 65.2734375 421.602213542 133.8203125 521.427734375 c 0
 159.725911459 557.961588542 186.276692709 583.525390625 213.47265625 598.119140625 c 2
 213.5546875 598.16796875 l 2
 225.387369792 606.055989583 235.702473959 610 244.5 610 c 0
 253.345703125 610 260.038736979 609.030924479 264.579101562 607.092773438 c 0
 273.727539062 602.512044271 281.248697916 595.309570313 287.142578125 585.485351562 c 0
 289.047526042 582.310872395 290 578.149088541 290 573 c 0xfa
 290 563.139322917 286.361979167 549.94140625 279.0859375 533.40625 c 0
 268.595703125 509.802083333 260.572265625 498 255.015625 498 c 0
 254.338541667 498.615885417 254 500.949544271 254 505.000976562 c 0
 254 508.946940104 254.661783854 514.889322917 255.985351562 522.828125 c 0
 258.661783854 537.550130208 260 548.607421875 260 556 c 2
 260 559 l 2
 259.263020833 565.666666667 253.9296875 569 244 569 c 2
 240.000976562 569 l 2
 227.704752604 568.317708333 212.299804687 558.551432292 193.786132812 539.701171875 c 0
 175.394856771 520.975911458 159.844401042 500.576497396 147.134765625 478.502929688 c 0
 97.044921875 392.346028646 72 313.678385417 72 242.5 c 0
 72 206.764322917 74.1731770833 178.197916667 78.51953125 156.80078125 c 0
 82.8736979167 135.368489583 91.0732421873 113.611002604 103.118164062 91.5283203125 c 0
 118.607096354 62.5699869792 134.845377604 46.7317708333 151.833007812 44.013671875 c 0
 154.055851508 43.6167763505 156.346772074 43.4183285882 158.705769511 43.4183285882 c 0
 176.487760758 43.4183285882 198.137920922 54.6942503088 223.65625 77.24609375 c 0
 258.212890625 107.33984375 289.622395834 156.017903646 317.884765625 223.280273438 c 0
 339.760416667 275.344075521 355.130533855 343.218098958 363.995117188 426.90234375 c 0
 367.331054688 460.924479167 368.999348959 489.623697917 369 513 c 2
 369 527.013671875 l 2
 367.654947917 573.412760417 347.815104167 606.700520834 309.48046875 626.876953125 c 0
 295.337239583 634.958984375 277.010416667 639 254.5 639 c 0
 231.9609375 639 216.939778646 636.442057292 209.436523438 631.326171875 c 0
 202.015950521 626.266276042 196.606119791 621.527669271 193.20703125 617.110351562 c 0
 189.823567709 612.711914062 187.448242188 608.806315104 186.081054688 605.393554688 c 0
 179.510742188 591.058919271 174.810872396 581.541666666 171.981445312 576.841796875 c 1
 171.327148437 578.458333333 171 580.844401041 171 584 c 0
 171 588.595703125 171.992513021 595.525716146 173.977539062 604.790039062 c 2
 179.975585938 632.780273438 l 2
 182.569335938 643.803059896 191.7265625 653.244791667 207.447265625 661.10546875 c 0
 223.307942708 669.03515625 241.825520833 673 263 673 c 0xf6
186.081054688 605.393554688 m 1
 186.081054688 605.393554688 l 1
264.579101562 607.092773438 m 1
 264.579101562 607.092773438 l 1
EndSplineSet
EndChar

StartChar: P
Encoding: 80 80 24
Width: 551
VWidth: 965
Flags: HW
HStem: 632.437 37.5633<226.768 452.36>
VStem: 87.8135 43.7129<0.70343 159.333> 525.566 39.343<420.957 566.156>
LayerCount: 2
Fore
SplineSet
131.526367188 47.2333984375 m 4
 130.834309896 16.8759765625 123.6640625 1.3515625 110.015625 0.66015625 c 4
 102.3359375 0.67578125 96.7757161458 4.4228515625 93.3349609375 11.9013671875 c 4
 89.6546223958 19.9059244792 87.8141276042 31.0852864583 87.8134765625 45.439453125 c 4
 87.8134765625 73.5423177083 90.2998046875 97.384765625 95.2724609375 116.966796875 c 4
 98.2314453125 127.697916666 101.562825521 138.4921875 105.266601562 149.349609375 c 4
 108.969726562 160.207682292 113.251302083 172.23046875 118.111328125 185.41796875 c 4
 122.971354167 198.60546875 126.705078125 209.002929687 129.3125 216.610351562 c 5
 93.9296875 223.363606771 69.3147786458 231.538085937 55.4677734375 241.133789062 c 4
 48.7151692708 245.812825521 46.2923177083 255.596028646 48.19921875 270.483398438 c 4
 49.6315104167 275.447591146 51.4537760417 277.890950521 53.666015625 277.813476562 c 4
 86.123046875 263.321940104 115.665364583 254.847330729 142.29296875 252.389648438 c 5
 144.662109375 256.825195313 150.756835938 270.172200521 160.577148438 292.430664062 c 4
 204.377929687 388.374023437 229.822916666 453.975911458 236.912109375 489.236328125 c 4
 237.251953125 490.924479167 237.734049479 493.338216146 238.358398438 496.477539062 c 4
 240.209960938 505.790039062 241.6328125 512.63671875 242.626953125 517.017578125 c 4
 243.610026042 521.345703125 244.939127604 526.225260417 246.614257812 531.65625 c 4
 248.217773437 536.85546875 249.876302083 540.415690104 251.58984375 542.336914062 c 4
 253.100260417 544.030273437 254.804036458 544.876953125 256.701171875 544.876953125 c 4
 262.081380208 544.876953125 267.291992187 539.377929687 272.333007812 528.379882812 c 4
 274.668294271 523.285481771 276.427734375 518.479817708 277.611328125 513.962890625 c 4
 278.779947916 509.499348958 279.364257812 505.287109375 279.364257812 501.326171875 c 4
 275.512044271 483.794921875 270.963867187 466.344401042 265.719726562 448.974609375 c 4
 260.475585937 431.604166666 254.182942708 413.517578125 246.841796875 394.71484375 c 4
 239.500651042 375.912109375 233.25390625 360.345377605 228.1015625 348.014648438 c 4
 222.94921875 335.683919271 215.551757813 318.615885417 205.909179688 296.810546875 c 4
 196.266601563 275.004557292 189.508463542 259.590820313 185.634765625 250.569335938 c 5
 243.284505208 253.870768229 304.114257813 271.045898437 368.124023438 302.094726562 c 4
 380.922851563 308.304361979 393.024088542 314.862630209 404.427734375 321.76953125 c 4
 415.844401042 328.684895833 426.56640625 335.947916667 436.59375 343.55859375 c 4
 446.62109375 351.169921875 455.968098958 359.138671875 464.634765625 367.46484375 c 4
 473.306640625 375.796875 481.283528646 384.469401042 488.565429688 393.482421875 c 4
 513.04835385 425.249421321 525.565676178 458.324766764 525.565676178 496.640082375 c 0
 525.565676178 529.891391852 514.665854432 559.044241997 492.866210938 584.098632812 c 4
 473.877929687 605.295898437 447.477864583 619.408528646 413.666015625 626.436523438 c 4
 403.945963542 628.456705729 393.909505208 629.972330729 383.556640625 630.983398438 c 4
 371.51770468 631.95224506 359.659825048 632.43666837 347.983001727 632.43666837 c 0
 316.103654326 632.43666837 285.573838646 628.825942977 256.393554688 621.604492188 c 4
 225.806315104 613.838216146 202.356119791 607.325195313 186.04296875 602.065429688 c 4
 169.729166667 596.805013021 150.51171875 587.910807292 128.390625 575.3828125 c 4
 106.270182292 562.854166667 86.4137369792 547.384765625 68.8212890625 528.974609375 c 4
 66.7509765625 526.38671875 65.1927083333 523.956705729 64.146484375 521.684570312 c 4
 63.0475260417 519.295898437 62.498046875 517.051757813 62.498046875 514.952148438 c 4
 62.498046875 513.447591146 62.8291015625 511.762044271 63.4912109375 509.895507812 c 4
 63.6207682292 509.526367187 63.8401692708 509.222330729 64.1494140625 508.983398438 c 4
 64.9013671875 508.400716146 66.0149739583 507.575195313 67.490234375 506.506835938 c 4
 68.8977864583 505.488606771 70.7760416667 504.148763021 73.125 502.487304688 c 4
 75.4296875 500.858398437 78.0807291667 498.996744791 81.078125 496.90234375 c 4
 82.3216145833 496.034505209 84.3665364583 494.649414063 87.212890625 492.747070312 c 4
 90.0501302083 490.847981771 91.9593098958 489.523763021 92.9404296875 488.774414062 c 4
 93.9222005208 488.025716146 95.1878255208 486.965820313 96.7373046875 485.594726562 c 4
 98.1083984375 484.379231771 99.0071614583 483.308268229 99.43359375 482.381835938 c 4
 99.7708333333 481.653320313 99.9853515627 480.736653646 100.077148438 479.631835938 c 4
 99.9599609377 478.213216146 99.1813151042 477.299479167 97.7412109375 476.890625 c 4
 96.3004557292 476.481770833 93.6253255208 476.846679687 89.7158203125 477.985351562 c 4
 85.8056640625 479.124023437 80.7994791667 481.213216146 74.697265625 484.252929688 c 4
 67.9485677083 487.510742188 62.4677734375 490.132161459 58.2548828125 492.1171875 c 4
 54.0478515625 494.100260417 51.443359375 495.294596354 50.44140625 495.700195312 c 4
 48.1419270833 496.627929687 45.7906901042 497.685546875 43.3876953125 498.873046875 c 4
 41.6539713542 499.729817708 40.078125 501.06640625 38.66015625 502.8828125 c 4
 37.1171875 504.860677083 35.3291015625 507.661458333 33.2958984375 511.28515625 c 4
 29.0139973958 518.915364583 28.904296875 524.759114583 32.966796875 528.81640625 c 4
 35.9140625 531.756510417 42.6549479167 538.994466146 53.189453125 550.530273438 c 4
 76.158203125 575.680664063 102.444986979 596.910807292 132.049804688 614.220703125 c 4
 161.672851563 631.539713542 194.567708333 644.919270833 230.734375 654.359375 c 4
 250.705729167 659.572265625 269.871419271 663.482421875 288.231445312 666.08984375 c 4
 306.578450521 668.6953125 324.137695313 669.998697917 340.909179688 670 c 4
 349.972330729 669.998697917 358.799479167 669.616861979 367.390625 668.854492188 c 4
 397.207682292 667.167643229 423.701171875 662.331705729 446.87109375 654.346679688 c 4
 470.040364583 646.361653646 488.655598958 636.748372396 502.716796875 625.506835938 c 4
 516.77734375 614.264648438 528.479492188 600.978841146 537.823242188 585.649414062 c 4
 547.166341146 570.319335937 553.75390625 555.470703125 557.5859375 541.103515625 c 4
 561.461147321 526.57690949 564.908659788 510.415527334 564.908659788 493.600087804 c 0
 564.908659788 453.353497283 550.76918465 415.745590411 522.490234375 380.776367188 c 4
 493.840494792 345.348632813 459.650065104 315.539713542 419.918945312 291.349609375 c 4
 380.762695312 267.565104166 339.176106771 248.771484375 295.159179688 234.96875 c 4
 251.142252604 221.165364583 209.556966145 214.210611979 170.403320312 214.104492188 c 5
 144.162434896 140.629231771 131.203450521 85.0055338538 131.526367188 47.2333984375 c 4
EndSplineSet
EndChar

StartChar: Q
Encoding: 81 81 25
Width: 526
VWidth: 965
Flags: HW
HStem: -22.3619 21.9635<497.747 562.099> 0.739434 37.8582<139.751 255.629> 629.785 39.1572<265.575 400.225>
VStem: 31.0537 39.8154<120.67 349.048> 467.562 35.1133<310.824 544.672>
LayerCount: 2
Fore
SplineSet
71.9892578125 253.231445312 m 4
 71.2425130208 244.583007812 70.869140625 235.94140625 70.869140625 227.306640625 c 4
 70.869140625 199.2578125 74.8131510417 171.341471355 82.701171875 143.557617188 c 4
 93.041015625 107.133138021 109.400065104 80.0192057292 131.778320312 62.2158203125 c 4
 152.952148437 46.4703776042 174.415690104 38.59765625 196.168945312 38.59765625 c 4
 210.750976563 38.59765625 225.483723959 42.1321614583 240.3671875 49.201171875 c 4
 257.336588541 56.9192708333 276.989583333 68.3424479167 299.326171875 83.470703125 c 6
 299.447265625 83.5673828125 l 6
 300.522135416 84.5706380208 303.883138021 87.3053385417 309.530273438 91.771484375 c 4
 315.209309896 96.26171875 320.589192708 100.728515625 325.669921875 105.171875 c 4
 330.80859375 109.66796875 334.193684896 113.195963542 335.825195312 115.755859375 c 4
 336.024414063 116.069661458 336.043294271 116.393554687 335.881835938 116.727539062 c 4
 318.380533854 153.000325521 302.313151041 194.075520833 287.6796875 239.953125 c 4
 286.175130208 244.689453125 284.889322916 249.031901042 283.822265625 252.98046875 c 4
 282.759765625 256.909505209 281.933919271 260.409830729 281.344726562 263.481445312 c 4
 280.764648437 266.489257812 280.404947917 269.100911458 280.265625 271.31640625 c 4
 280.1796875 272.690104167 280.13671875 274.013020833 280.13671875 275.28515625 c 4
 280.13671875 279.900390625 280.704101563 283.836263021 281.838867188 287.092773438 c 4
 283.146809896 290.845377605 285.463867187 293.720377605 288.790039062 295.717773438 c 4
 289.322591146 295.419596354 289.622070313 295.666015625 289.688476562 296.45703125 c 6
 290.485351562 297.255859375 l 5
 293.325195312 297.517578125 l 5
 294.326171875 297.551757812 l 6
 298.841796875 297.551757812 303.121419271 295.420898437 307.165039062 291.159179688 c 5
 328.129882813 217.765299479 347.295572917 169.121419271 364.662109375 145.227539062 c 4
 365.12890625 144.585611979 365.638020834 144.550130209 366.189453125 145.12109375 c 4
 402.802083334 182.999348958 429.340494792 232.344726562 445.8046875 293.157226562 c 4
 460.306640625 346.717773437 467.559244792 397.987304687 467.5625 446.965820312 c 4
 467.5625 453.519856771 467.432291667 460.036458333 467.171875 466.515625 c 4
 464.610677083 515.739583333 450.678710937 555.958984375 425.375976562 587.173828125 c 4
 402.347330729 615.581380208 372.938151041 629.78515625 337.1484375 629.78515625 c 4
 333.490234375 629.78515625 329.768880208 629.637044271 325.984375 629.340820312 c 4
 294.38671875 627.458007812 263.046549479 613.416666666 231.963867188 587.216796875 c 4
 200.956054688 561.081380208 174.389973959 529.130859375 152.265625 491.365234375 c 4
 130.157552083 453.637369792 111.825846354 413.486653646 97.2705078125 370.913085938 c 4
 82.7067057292 328.317382813 74.2796223958 289.090169271 71.9892578125 253.231445312 c 4
502.220703125 490.205078125 m 4
 502.608723958 480.64453125 502.760416667 471.490234375 502.67578125 462.7421875 c 4
 502.760416667 397.774088541 494.199869792 334.588541666 476.994140625 273.185546875 c 4
 458.333984375 206.123046875 427.421549479 151.039713542 384.256835938 107.935546875 c 4
 383.897460938 107.576171875 383.843424479 107.175455729 384.094726562 106.733398438 c 4
 396.709960937 84.5595703127 408.384440104 67.41015625 419.118164062 55.28515625 c 4
 430.079752604 43.0846354167 446.288085937 31.7880859375 467.743164062 21.3955078125 c 4
 488.978190104 11.4274088542 516.040039063 4.12076822917 548.928710938 -0.5244140625 c 4
 550.302734375 -0.501953125 l 6
 551.408854166 -0.462890625 552.433268229 -0.428385416667 553.375976562 -0.3984375 c 4
 557.331705729 -0.4296875 559.900065104 -0.927734375 561.081054688 -1.892578125 c 4
 562.689778646 -2.6328125 563.373046875 -4.0986328125 563.130859375 -6.2900390625 c 4
 563.108723958 -6.48470052083 563.141927083 -6.67024739583 563.23046875 -6.8466796875 c 4
 563.126953125 -7.2451171875 563.063476562 -7.55208333333 563.040039062 -7.767578125 c 4
 561.985139709 -17.4971465417 552.566386496 -22.36193075 534.783779421 -22.36193075 c 0
 534.227640269 -22.36193075 533.663320567 -22.3571725833 533.090820312 -22.34765625 c 4
 494.137044271 -21.4459635417 459.196289063 -12.7132161458 428.268554688 3.8505859375 c 4
 400.043294271 19.1396484375 376.073567708 43.4596354167 356.359375 76.810546875 c 4
 355.958333333 77.4895833333 355.456380208 77.5748697917 354.853515625 77.06640625 c 4
 299.033203125 29.974609375 247.854166667 4.7119140625 201.31640625 1.2783203125 c 4
 196.477864583 0.808919270833 191.549479167 0.630859375 186.53125 0.744140625 c 4
 186.038403453 0.741002602516 185.548860601 0.739433591274 185.062621444 0.739433591274 c 0
 165.877369757 0.739433591274 151.835337088 3.18208333169 142.936523438 8.0673828125 c 4
 108.716471354 26.6617838542 82.2880859375 52.4765625 63.6513671875 85.51171875 c 4
 45.0152994792 118.546223958 34.1552734375 158.764322916 31.0712890625 206.166015625 c 4
 31.2470703125 206.98046875 31.2412109375 207.902994791 31.0537109375 208.93359375 c 4
 31.2932942708 268.541015625 40.3675130208 326.791992187 58.2763671875 383.686523438 c 4
 76.8955078125 440.941080729 100.648763021 490.097330729 129.536132812 531.155273438 c 4
 158.672851563 571.592122396 191.478841146 604.484049479 227.954101562 629.831054688 c 4
 261.274414062 652.492513021 297.128580729 665.376953125 335.516601562 668.484375 c 4
 339.269205729 668.801432292 342.999023437 668.954101563 346.706054688 668.942382812 c 4
 374.115559896 668.954101563 399.400390625 660.334960938 422.560546875 643.084960938 c 4
 448.744791666 623.327799479 468.274739583 599.748046875 481.150390625 572.345703125 c 4
 494.283854167 544.478515625 501.307291667 517.098307292 502.220703125 490.205078125 c 4
EndSplineSet
EndChar

StartChar: R
Encoding: 82 82 26
Width: 583
VWidth: 965
Flags: HW
HStem: 222.314 33.6728<174.445 250.843> 637.873 37.6533<221.946 396.778>
VStem: 65.8359 33.6641<3.57275 79.6581> 453.838 36.6631<425.233 579.408>
LayerCount: 2
Fore
SplineSet
147.154296875 279.640625 m 5
 147.751953125 281.568359375 148.472330729 283.87109375 149.315429688 286.548828125 c 4
 150.157877604 289.225911458 151.125 292.284179687 152.216796875 295.723632812 c 4
 153.30859375 299.163085937 154.523763021 302.979817708 155.862304688 307.173828125 c 4
 157.200846355 311.368489583 158.667317709 315.954101562 160.26171875 320.930664062 c 4
 166.768880209 341.245117187 171.659830729 356.884765625 174.934570312 367.849609375 c 5
 171.741210937 367.544270833 168.626302083 366.855143229 165.58984375 365.782226562 c 4
 162.554036458 364.709309895 159.577473958 363.245442708 156.66015625 361.390625 c 4
 153.743489583 359.53515625 150.869466146 357.278320313 148.038085938 354.620117188 c 4
 141.893554687 348.851236979 137.264648437 340.405598958 134.151367188 329.283203125 c 4
 131.499023437 319.802734375 131.124023437 311.333658854 133.026367188 303.875976562 c 4
 133.812174479 300.793945313 134.881835937 297.812174479 136.235351562 294.930664062 c 4
 137.588867187 292.048502604 139.177734375 289.3359375 141.001953125 286.79296875 c 4
 142.826171875 284.25 144.876953125 281.865885417 147.154296875 279.640625 c 5
204.607421875 361.346679688 m 5
 202.69140625 354.695638021 200.393229167 347.111979167 197.712890625 338.595703125 c 4
 195.032552083 330.078776042 191.957682291 320.588867187 188.48828125 310.125976562 c 4
 181.639973958 289.474283854 176.761067708 274.165364583 173.8515625 264.19921875 c 5
 186.521848476 258.724590603 199.001700506 255.987276529 211.291118592 255.987276529 c 0
 224.914760907 255.987276529 238.304375022 259.351218207 251.459960938 266.079101562 c 5
 250.486653646 268.965820313 249.38671875 272.55078125 248.16015625 276.833984375 c 4
 246.93359375 281.1171875 245.497395833 286.375325521 243.8515625 292.608398438 c 4
 240.445963541 305.511393229 237.470703125 315.905273437 234.92578125 323.790039062 c 4
 232.407552083 331.592122395 228.360026042 339.391927083 222.783203125 347.189453125 c 4
 220.1484375 350.873046875 217.311523438 353.887369792 214.272460938 356.232421875 c 4
 211.234049479 358.578125 208.012369792 360.282877604 204.607421875 361.346679688 c 5
101.485351562 20.037109375 m 4
 101.159179687 18.4049479167 100.829101563 16.8382161458 100.495117188 15.3369140625 c 4
 100.161132813 13.8349609375 99.8294270833 12.4244791667 99.5 11.10546875 c 4
 97.2825520833 7.353515625 89.7496744792 4.46321614583 76.9013671875 2.4345703125 c 4
 69.5244140625 1.69563802083 65.8359375 6.31705729167 65.8359375 16.298828125 c 6
 65.837890625 16.3623046875 l 6
 66.5026041667 26.9964192708 74.9293619792 59.734375 91.1181640625 114.576171875 c 4
 97.4625651042 136.069661458 105.914713542 162.108398437 116.474609375 192.692382812 c 4
 126.574869792 221.941731771 132.450846354 239.103515625 134.102539062 244.177734375 c 5
 128.134440104 249.682942708 123.478190104 254.159505208 120.133789062 257.607421875 c 4
 118.385742187 259.409505208 116.781901042 261.21484375 115.322265625 263.0234375 c 4
 113.86328125 264.831380208 112.548177083 266.643554687 111.376953125 268.459960938 c 4
 109.041015625 272.084960938 107.351236979 275.171549479 106.307617188 277.719726562 c 4
 105.790690104 278.984049479 105.192708333 280.576497396 104.513671875 282.497070312 c 4
 103.834635417 284.417643229 103.071614584 286.675130209 102.224609375 289.26953125 c 4
 99.6839060353 297.049712858 98.4135543655 305.029668226 98.4135543655 313.209397354 c 0
 98.4135543655 320.695261315 99.477525827 328.348443968 101.60546875 336.168945312 c 4
 105.848307291 351.766601563 114.536458333 366.125325521 127.669921875 379.245117188 c 4
 135.954427084 387.521158855 147.121419271 394.270507813 161.170898438 399.493164062 c 4
 162.327148438 399.923502604 163.703450521 400.308919271 165.299804688 400.649414062 c 4
 166.895507813 400.989908854 168.726236979 401.291666667 170.791992188 401.5546875 c 4
 174.859700521 402.072265625 178.361979167 402.475585938 181.298828125 402.764648438 c 6
 185.176757812 403.359375 l 5
 190.709960938 429.318359375 l 6
 191.429361979 433.703776042 192.031575521 437.692382813 192.516601562 441.284179688 c 4
 193.000976562 444.875976563 193.367513021 448.067382813 193.616210938 450.858398438 c 4
 193.782877605 452.726236979 193.963216146 454.897460937 194.157226562 457.372070312 c 4
 194.351888021 459.846028645 194.560546875 462.624348958 194.783203125 465.70703125 c 4
 195.005859375 468.789713542 195.2421875 472.174479167 195.4921875 475.861328125 c 4
 196.244791667 486.934244792 196.908528646 495.7734375 197.483398438 502.37890625 c 4
 198.836914063 510.849609375 200.056315104 515.846679688 201.141601562 517.370117188 c 4
 202.336263021 519.046549479 205.411458333 519.884765625 210.3671875 519.884765625 c 4
 215.204427083 519.884765625 218.588867187 519.66796875 220.520507812 519.234375 c 4
 222.679361979 518.75 224.469401041 517.180989583 225.890625 514.52734375 c 4
 227.250651041 511.985677083 227.836588541 507.98046875 227.6484375 502.51171875 c 4
 227.222005208 490.108723958 225.999023437 475.233072916 223.979492188 457.884765625 c 4
 221.959960937 440.536458334 219.152994791 420.761067709 215.55859375 398.55859375 c 5
 225.977864583 395.883463542 235.461914063 388.908528646 244.010742188 377.633789062 c 4
 250.433268229 369.162434895 256.284830729 357.559244791 261.565429688 342.82421875 c 4
 266.820638021 328.158203125 271.174804688 313.955078125 274.627929688 300.21484375 c 4
 275.362304688 297.293619791 276.051757813 294.588216145 276.696289062 292.098632812 c 4
 277.340820313 289.608398437 277.912109375 287.440104167 278.41015625 285.59375 c 4
 278.908203125 283.747395833 279.343098958 282.177408854 279.71484375 280.883789062 c 4
 280.086588542 279.589518229 280.387369792 278.598958333 280.6171875 277.912109375 c 5
 288.944010417 282.162109375 296.999023437 286.569010417 304.782226562 291.1328125 c 4
 312.565429687 295.696614583 320.090820313 300.426757813 327.358398438 305.323242188 c 4
 334.625325521 310.219726563 341.633789062 315.279947917 348.383789062 320.50390625 c 4
 355.133138021 325.728515625 361.640625 331.130533854 367.90625 336.709960938 c 4
 374.172526041 342.290039063 380.192057291 348.040364583 385.96484375 353.9609375 c 4
 391.73828125 359.881510417 397.285807292 365.990885417 402.607421875 372.2890625 c 4
 434.783203125 410.375651041 451.860026042 453.711914062 453.837890625 502.297851562 c 5
 452.51953125 547.254231771 440.419270833 581.007486979 417.537109375 603.557617188 c 4
 394.654947917 626.107096355 360.901041667 637.545572917 316.275390625 637.873046875 c 4
 252.492838542 637.873046875 186.372395833 612.201497396 117.9140625 560.858398438 c 4
 105.4453125 552.326497396 90.0068359375 537.214518229 71.5986328125 515.522460938 c 4
 57.0895182292 495.736653646 45.544921875 480.233723958 36.96484375 469.013671875 c 4
 28.37109375 457.776692708 21.4267578125 449.1796875 16.1318359375 443.22265625 c 4
 5.1650390625 434.233398438 l 6
 4.04264322917 433.135742187 3.08430989583 432.983072916 2.2900390625 433.775390625 c 4
 1.7626953125 434.302734375 1.4990234375 435.695638021 1.4990234375 437.954101562 c 4
 1.4990234375 471.203450521 20.0615234375 508.711263021 57.1865234375 550.477539062 c 4
 90.2672526045 586.865559895 131.280598959 617.295898437 180.2265625 641.768554688 c 4
 203.388020833 653.018554688 225.892578125 661.457356771 247.740234375 667.084960938 c 4
 269.587890625 672.712565105 290.783203125 675.526367188 311.326171875 675.526367188 c 6
 318.270507812 675.526367188 l 6
 325.786132812 675.305664063 333.207356771 674.771809896 340.534179688 673.924804688 c 4
 347.861002604 673.078450521 355.093424479 671.919270834 362.231445312 670.447265625 c 4
 369.368815104 668.975911458 376.415364583 667.191080729 383.37109375 665.092773438 c 4
 400.65234375 660.215820313 416.213541667 652.172200521 430.0546875 640.961914062 c 4
 443.971354167 629.288085937 455.152018229 616.315104167 463.596679688 602.04296875 c 4
 467.853190104 594.688151042 471.6171875 587.112630209 474.888671875 579.31640625 c 4
 478.159505208 571.520182291 480.9375 563.504557291 483.22265625 555.26953125 c 4
 487.792317709 538.798177083 490.218424479 522.131184896 490.500976562 505.268554688 c 4
 490.500976562 470.137044271 482.219075521 435.345052083 465.655273438 400.892578125 c 4
 438.239257813 344.190755208 380.2734375 292.421223958 291.7578125 245.583984375 c 5
 311.228515625 197.200520833 330.469726563 155.8125 349.481445312 121.419921875 c 4
 368.492513021 87.02734375 387.4453125 59.2939453125 406.33984375 38.2197265625 c 4
 414.774088542 28.8115234375 425.158203125 22.6624348958 437.4921875 19.7724609375 c 4
 438.944010417 19.4319661458 441.044921875 19.0699869792 443.794921875 18.6865234375 c 4
 446.545572917 18.3030598958 449.914713542 17.9039713542 453.90234375 17.4892578125 c 4
 466.287109375 16.2008463542 473.141276042 14.6422526042 474.46484375 12.8134765625 c 4
 476.206380209 10.4046223958 473.304036459 7.48697916667 465.7578125 4.060546875 c 4
 465.111979167 3.767578125 464.415364583 3.46061197917 463.66796875 3.1396484375 c 6
 461.236328125 2.1259765625 l 6
 450.608076043 -2.1846644616 440.920267249 -4.33998497365 432.172901743 -4.33998497365 c 0
 427.484417046 -4.33998497365 423.066106048 -3.7207972741 418.91796875 -2.482421875 c 4
 401.611979167 2.84244791667 387.623372396 10.5071614583 376.952148438 20.51171875 c 4
 366.333658854 30.4674479167 352.750976562 48.3515625 336.204101562 74.1640625 c 4
 312.767903646 113.328776041 287.750976563 166.606770833 261.153320312 233.998046875 c 5
 241.875976563 226.40234375 224.821940105 222.510742188 209.991210938 222.323242188 c 4
 209.528959067 222.31738472 209.065862155 222.314455986 208.601920201 222.314455986 c 0
 194.214886927 222.314455986 179.015223422 225.130861282 163.002929688 230.763671875 c 5
 134.886393229 149.089192708 115.042643229 82.15625 103.471679688 29.96484375 c 4
 102.808268229 25.990234375 102.146158854 22.6809895833 101.485351562 20.037109375 c 4
EndSplineSet
EndChar

StartChar: S
Encoding: 83 83 27
Width: 457
VWidth: 965
Flags: HW
HStem: 0.592773 31.8545<205.948 288.999> 128.779 19.458<214.095 300.136> 636.909 35.5039<359.258 418.799>
VStem: 76.6025 29.2676<149.654 237.785> 298.716 35.6445<400.865 607.615> 327.332 32.3223<83.4887 307.639> 425.752 33.3848<515.636 630.926>
LayerCount: 2
Fore
SplineSet
117.3515625 237.993164062 m 2xf2
 115.8828125 237.993164062 114.538411458 236.785481771 113.318359375 234.370117188 c 0
 108.352864584 224.436523437 105.870117188 214.125976562 105.870117188 203.438476562 c 0
 105.870117188 197.468424479 106.642903646 191.391601563 108.188476562 185.208007812 c 0
 113.138346354 162.933919271 120.6171875 145.958658854 130.625 134.282226562 c 0
 131.056640625 133.778320313 131.527669271 133.738932292 132.038085938 134.1640625 c 0
 136.107096354 137.554036459 140.169921875 141.277669271 144.2265625 145.334960938 c 0
 146.943359375 148.053710938 149.152018229 150.433268229 150.852539062 152.473632812 c 0
 152.586914062 154.552408854 153.807942708 156.30078125 154.515625 157.71875 c 0
 154.738932292 158.166015625 154.668945313 158.561197917 154.305664062 158.904296875 c 0
 144.987955729 167.703776042 136.977864583 178.383138021 130.275390625 190.942382812 c 0
 124.947916667 202.273763021 121.615885417 216.289713542 120.279296875 232.990234375 c 0
 119.516927084 235.814453125 118.8671875 237.411458333 118.330078125 237.78125 c 2
 117.3515625 237.993164062 l 2xf2
318.435546875 307.233398438 m 0
 309.224609375 294.569986979 292.738606771 273.541992187 268.977539062 244.149414062 c 0
 256.189778646 228.332356771 241.043294271 209.988606771 223.538085938 189.118164062 c 0
 223.416992187 188.974283854 223.341145833 188.801757813 223.310546875 188.600585938 c 0
 222.811848958 187.540039063 220.200846354 184.353190104 215.477539062 179.040039062 c 2
 215.391601562 178.9296875 l 2
 214.066080729 176.94140625 212.407552083 174.785481771 210.416015625 172.461914062 c 0
 206.35546875 167.726236979 203.973958333 164.83203125 203.271484375 163.779296875 c 0
 202.860677084 163.162109375 202.982096355 162.678710937 203.635742188 162.329101562 c 0
 221.196940104 152.934570313 248.256835937 148.237304688 284.815429688 148.237304688 c 0
 295.374023437 148.237304688 306.755859375 148.630208334 318.9609375 149.416015625 c 0
 320.249348959 148.746744792 320.893554688 148.146809896 320.893554688 147.616210938 c 0
 320.893554688 146.907877605 320.029947917 146.016276042 318.302734375 144.94140625 c 0
 302.696614584 139.16796875 290.05859375 134.985026042 280.388671875 132.392578125 c 0
 271.400390625 129.983723958 258.854492187 128.779296875 242.750976562 128.779296875 c 0
 241.597981771 128.779296875 240.426757813 128.785481771 239.237304688 128.797851562 c 0
 221.456705729 128.982747395 203.465820313 132.356445312 185.264648438 138.918945312 c 0
 184.831705729 139.075846354 184.464192708 138.981119792 184.162109375 138.634765625 c 0
 175.91015625 129.203776042 165.150390625 117.772135417 151.8828125 104.33984375 c 0
 151.474609375 103.926432291 151.444661458 103.487955729 151.79296875 103.024414062 c 0
 187.082194008 55.9729817616 219.723380567 32.4472656114 249.71652843 32.4472656114 c 0
 257.383408807 32.4473494362 264.867296319 33.9802410511 272.169921875 37.046875 c 0
 308.268880208 52.03125 326.65625 104.525390625 327.33203125 194.529296875 c 0xf6
 327.33203125 205.323567708 326.994791667 216.7890625 326.3203125 228.92578125 c 0
 325.649088541 241.024739583 324.806966145 253.489257813 323.793945312 266.319335938 c 0
 322.353841145 284.551757813 321.174804687 298.027018229 320.256835938 306.745117188 c 0
 320.180013021 307.469075521 319.783854166 307.764973959 319.068359375 307.6328125 c 0
 318.8046875 307.583333333 318.59375 307.450195313 318.435546875 307.233398438 c 0
398.032226562 636.909179688 m 0
 355.584309895 636.909179688 334.360351562 595.289388021 334.360351562 512.049804688 c 0xfa
 334.360351562 509.995768229 334.374348958 507.846679687 334.40234375 505.602539062 c 0
 334.40234375 469.872070313 336.424804687 435.157552084 340.469726562 401.458984375 c 0
 340.556966146 400.736328125 340.957682292 400.446289063 341.671875 400.588867188 c 0
 370.88671875 439.554361979 392.678710937 475.100585937 407.047851562 507.227539062 c 0
 419.517252604 535.104492187 425.751953125 563.557942708 425.751953125 592.587890625 c 0
 425.751953125 597.100260416 425.601236979 601.630859375 425.299804688 606.1796875 c 0
 424.612304688 615.45703125 422.530598959 622.529296875 419.0546875 627.396484375 c 0
 413.634765625 633.73828125 406.627278646 636.909179688 398.032226562 636.909179688 c 0
306.116210938 403.713867188 m 0
 304.775065105 421.842773437 303.428710938 437.828776041 302.077148438 451.671875 c 0
 300.733398438 465.455078125 299.724283855 480.418294271 299.049804688 496.561523438 c 0
 298.827148437 501.932617187 298.715820312 507.209960937 298.715820312 512.393554688 c 0xfa
 298.715820312 522.763346355 299.163411458 532.759114584 300.05859375 542.380859375 c 0
 301.578125 558.71484375 303.922851563 571.950846355 307.092773438 582.088867188 c 0
 315.036132813 611.879231771 328.376953125 634.462239583 347.115234375 649.837890625 c 0
 365.457682292 664.888020834 384.531901042 672.413085938 404.337890625 672.413085938 c 0
 404.761067708 672.413085938 405.165364583 672.409830729 405.55078125 672.403320312 c 0
 406.724609375 672.385091145 407.890299479 672.338867187 409.047851562 672.264648438 c 0
 428.564127604 669.835611979 441.596028646 662.268229167 448.143554688 649.5625 c 0
 454.786132813 636.669270833 458.450520833 619.318359375 459.13671875 597.509765625 c 0
 458.98828125 583.625 457.239257813 568.926106771 453.889648438 553.413085938 c 0
 444.814127605 511.387695313 421.975585938 461.925455729 385.374023438 405.026367188 c 0
 366.358398438 375.696289063 354.80078125 357.547851563 350.701171875 350.581054688 c 1
 351.889973958 337.403971355 352.854492187 325.9296875 353.594726562 316.158203125 c 0
 354.942382813 298.313802083 355.952473959 285.014973958 356.625 276.26171875 c 0
 357.296875 267.532552083 358.138020833 253.736979167 359.1484375 234.875 c 0
 359.75390625 223.576822917 360.056640625 213.615885417 360.056640625 204.9921875 c 0
 360.056640625 199.243489583 359.922526042 194.092447917 359.654296875 189.5390625 c 0xf6
 359.652994792 183.4765625 359.317057292 176.923502604 358.646484375 169.879882812 c 0
 357.972005208 162.786132812 357.298502604 154.873046875 356.625976562 146.140625 c 0
 352.323242187 104.985677083 343.766927083 72.5335286458 330.95703125 48.7841796875 c 0
 323.940755209 35.7757161458 314.714192709 25.4908854167 303.27734375 17.9296875 c 0
 286.346354167 6.73763020833 269.444010417 0.964192708333 252.5703125 0.609375 c 0
 252.047526041 0.598307291667 251.522460937 0.5927734375 250.995117188 0.5927734375 c 0
 233.573893229 0.5927734375 213.849934896 6.58268229167 191.823242188 18.5625 c 0
 171.708007813 29.50390625 149.796223958 48.3196614583 126.087890625 75.009765625 c 0
 125.599609375 75.5592447917 125.103190104 75.5670572917 124.598632812 75.033203125 c 0
 101.736653646 50.8268229167 81.9049479167 32.0029296875 65.103515625 18.5615234375 c 0
 49.0078125 5.15006510417 29.5582682292 -6.5859375 6.7548828125 -16.646484375 c 1
 5.97265625 -16.5771484375 l 2
 4.79817708333 -16.7900390625 3.70833333333 -16.896484375 2.703125 -16.896484375 c 0
 -2.07682291667 -16.896484375 -4.9736328125 -14.3616536458 -5.9873046875 -9.2919921875 c 0
 -6.1982421875 -8.8173828125 -6.3037109375 -8.47233072917 -6.3037109375 -8.2568359375 c 0
 -6.3037109375 -7.92415364583 -6.041015625 -7.62662760417 -5.515625 -7.3642578125 c 0
 6.12955729167 6.9248046875 25.4036458333 27.1852213542 52.306640625 53.4169921875 c 0
 77.9134114583 78.3486328125 95.7744140627 96.546875 105.889648438 108.01171875 c 0
 106.215820313 108.381510417 106.251953125 108.77734375 105.998046875 109.19921875 c 0
 101.97265625 115.907552083 98.4501953125 122.281575521 95.4306640625 128.321289062 c 0
 92.4202473958 134.342122395 89.7418619792 140.536132812 87.3955078125 146.903320312 c 0
 85.0478515625 153.275716145 82.8671875 159.815755208 80.853515625 166.5234375 c 0
 78.01953125 177.186848959 76.6025390625 187.514973959 76.6025390625 197.5078125 c 0
 76.6025390625 208.606119792 78.3509114583 219.288085938 81.84765625 229.553710938 c 0
 89.5748697917 252.240559896 103.220377604 270.567382813 122.784179688 284.534179688 c 0
 124.311523437 285.064127604 125.676106771 285.329101562 126.877929688 285.329101562 c 0
 129.857747396 285.329101562 132.420247396 283.841471354 134.565429688 280.866210938 c 0
 135.885091146 278.219726563 137.208333333 275.238932292 138.53515625 271.923828125 c 0
 139.863932291 268.6015625 141.195638021 264.270833334 142.530273438 258.931640625 c 0
 149.400716146 229.589192708 155.494466146 209.977213542 160.811523438 200.095703125 c 0
 166.388346354 190.536458334 170.879882812 184.692382813 174.286132812 182.563476562 c 0
 174.799804687 182.241861979 175.243489583 182.319661459 175.6171875 182.796875 c 0
 238.916666667 263.602864583 283.703125 322.532552083 309.9765625 359.5859375 c 0
 310.124348959 359.795572917 310.184244792 360.02734375 310.15625 360.28125 c 0
 309.485677083 366.326822917 308.982421875 372.870442708 308.646484375 379.912109375 c 0
 308.309895833 387.004557292 307.466471354 394.938476563 306.116210938 403.713867188 c 0
EndSplineSet
EndChar

StartChar: T
Encoding: 84 84 28
Width: 580
VWidth: 965
Flags: HW
HStem: -0.0322266 32.958<289.026 301.611> 458.218 31.1691<-19.1314 119.388> 594.898 30.7865<75.9955 252.638> 667 20G<687.733 693.038>
VStem: -56.5196 36.2207<494.182 535.907> 255.151 33.8743<32.9418 178.621> 328.399 14.9161<138.109 307.332>
LayerCount: 2
Fore
SplineSet
686.484375 686.9921875 m 4
 686.993222663 686.997301465 687.490425852 686.999858448 687.975984569 686.999858448 c 0
 698.099554203 686.999858448 703.161339021 685.888352941 703.161339021 683.665341927 c 0
 703.161339021 681.719235949 699.282038514 678.921283432 691.5234375 675.271484375 c 4
 690.825520833 674.943359375 690.358072917 674.720703125 690.12109375 674.603515625 c 4
 674.045572917 666.65625 661.034505208 660.763671875 651.087890625 656.92578125 c 4
 610.421223958 640.259114583 553.421223958 618.592447917 480.087890625 591.92578125 c 4
 463.610677083 585.934244791 427.376302083 572.954427083 371.384765625 552.986328125 c 5
 362.328776042 503.652994792 352.120442708 446.939453125 340.759765625 382.845703125 c 5
 340.888671875 349.381510416 341.328125 326.659505208 342.078125 314.6796875 c 4
 342.09765625 313.694010417 342.316731771 305.249023437 342.735351562 289.344726562 c 4
 343.121538831 274.672613375 343.314632465 263.418285217 343.314632465 255.581742088 c 0
 343.314632465 224.344383355 342.498374157 198.571875732 341.28125 182.328125 c 4
 337.180338541 131.782552083 330.971354166 91.8157552083 322.654296875 62.427734375 c 4
 315.090494792 35.7005208333 307.477864583 17.5670572917 299.81640625 8.02734375 c 4
 297.787760417 5.501953125 294.978841146 3.505859375 291.389648438 2.0390625 c 4
 287.800455729 0.572265625 283.988932292 -0.1181640625 279.955078125 -0.0322265625 c 4
 275.920572916 0.0537109375 271.970377604 1.77473958333 268.104492188 5.130859375 c 4
 264.239257813 8.48697916667 261.290364583 13.390625 259.2578125 19.841796875 c 4
 256.520268367 28.5306449876 255.151496301 40.1742582866 255.151496301 54.7726367721 c 0
 255.151496301 70.8891014084 256.819747533 90.6068162344 260.15625 113.92578125 c 4
 270.811197917 188.395182291 289.246744792 299.866536458 315.462890625 448.33984375 c 5
 309.73046875 486.298828125 303.029947916 511.990234375 295.361328125 525.4140625 c 5
 292.686197916 524.352864583 290.914388021 523.549153646 290.045898438 523.002929688 c 4
 289.177408854 522.457356771 286.524739583 521.431640625 282.087890625 519.92578125 c 4
 269.451822916 514.989583333 256.76953125 510.432291667 244.041015625 506.25390625 c 4
 231.3125 502.074869791 218.547200521 498.078450521 205.745117188 494.264648438 c 4
 192.943684896 490.450846354 183.891276042 487.671223958 178.587890625 485.92578125 c 4
 144.681640625 474.766276042 113.014973958 466.932942709 83.587890625 462.42578125 c 4
 65.2702238771 459.620350048 47.9313311046 458.217634447 31.5712123075 458.217634447 c 0
 18.4468831671 458.217634447 5.95244260632 459.120350048 -5.912109375 460.92578125 c 4
 -14.0052083333 462.119140625 -22.9762369792 465.235351562 -32.8251953125 470.274414062 c 4
 -42.6741536458 475.312825521 -49.0364583333 480.86328125 -51.912109375 486.92578125 c 4
 -54.9837412232 495.351671335 -56.5195571474 502.839780565 -56.5195571474 509.39010894 c 0
 -56.5195571474 513.249718271 -55.9863453898 516.783744458 -54.919921875 519.9921875 c 4
 -52.0442708333 528.645833333 -45.2942708333 538.681640625 -34.669921875 550.099609375 c 4
 -9.04361979167 577.641927084 26.8756510417 598.250651042 73.087890625 611.92578125 c 4
 104.084986025 621.098581992 135.635077096 625.684982363 167.738163837 625.684982363 c 0
 169.1544444 625.684982363 170.571801246 625.67605595 171.990234375 625.658203125 c 4
 239.619140625 624.805989583 285.318359375 605.895182291 309.087890625 568.92578125 c 5
 316.104817708 571.326171875 325.883463542 574.875651042 338.423828125 579.57421875 c 5
 339.997395834 588.895182291 341.255208334 596.485026041 342.197265625 602.34375 c 4
 346.179036458 607.983072917 352.079101563 611.294921875 359.897460938 612.279296875 c 4
 367.715169271 613.263020833 374.5234375 609.540364583 380.322265625 601.111328125 c 4
 380.1953125 600.440755208 379.996419271 599.381510417 379.725585938 597.93359375 c 4
 379.454752605 596.485026042 379.265625 595.475260417 379.158203125 594.904296875 c 5
 391.288411458 599.439453125 401.764973958 603.279947917 410.587890625 606.42578125 c 4
 526.669921875 646.286458333 599.169921875 670.453125 628.087890625 678.92578125 c 4
 641.772786458 682.934895833 660.106119792 685.6015625 683.087890625 686.92578125 c 4
 684.247395834 686.958984375 685.379557292 686.981119792 686.484375 686.9921875 c 4
172.3828125 595.416015625 m 4
 166.785807292 595.420572916 161.180338542 595.248046875 155.56640625 594.8984375 c 4
 105.575520833 591.787109375 61.7493489583 578.796223958 24.087890625 555.92578125 c 4
 18.0436197917 552.255208333 11.9889322917 548.013997396 5.923828125 543.202148438 c 4
 -0.141927083333 538.390299479 -6.0888671875 532.887044271 -11.9169921875 526.692382812 c 4
 -17.7444661458 520.497721354 -20.5384114583 514.589518229 -20.298828125 508.967773438 c 4
 -20.05859375 503.345377605 -15.9296875 498.998046875 -7.912109375 495.92578125 c 4
 -2.74674479167 493.946614583 2.42415364583 492.37109375 7.6005859375 491.19921875 c 4
 12.7763671875 490.02734375 18.4420572917 489.423177083 24.59765625 489.38671875 c 4
 30.75390625 489.350911458 35.8151041667 489.331380208 39.78125 489.328125 c 4
 43.7473958333 489.325520833 49.4645182292 489.977864583 56.9326171875 491.28515625 c 4
 64.4013671875 492.593098958 69.5179036458 493.498697916 72.2822265625 494.001953125 c 4
 75.0458984375 494.505208334 80.822265625 495.751302084 89.611328125 497.740234375 c 4
 98.400390625 499.728515625 103.736979167 500.927734375 105.62109375 501.337890625 c 4
 145.545572917 510.030598958 204.034505208 528.559895833 281.087890625 556.92578125 c 5
 260.422526042 582.540364583 224.1875 595.370442708 172.3828125 595.416015625 c 4
331.357421875 538.53125 m 5
 326.666666666 536.796875 322.576822916 535.26171875 319.087890625 533.92578125 c 5
 321.802734375 526.0625 324.242838542 518.201171875 326.408203125 510.341796875 c 5
 328.401041667 521.653645833 330.05078125 531.050130208 331.357421875 538.53125 c 5
327.46875 307.33203125 m 5
 315.268880208 237.470703125 307.30859375 190.335286458 303.587890625 165.92578125 c 4
 293.879806752 102.232652692 289.025764815 61.4132902569 289.025764815 43.4676939442 c 0
 289.025764815 36.7145954518 289.713140086 33.2006245537 291.087890625 32.92578125 c 4
 294.313151042 32.7916666667 297.868489583 38.1253255208 301.75390625 48.9267578125 c 4
 305.639322917 59.7281901042 309.190104167 73.0013020833 312.40625 88.74609375 c 4
 315.623046875 104.490885417 318.48046875 120.943359375 320.978515625 138.103515625 c 4
 323.4765625 155.263671875 325.1796875 170.37109375 326.087890625 183.42578125 c 4
 327.628313822 205.572103376 328.398525421 229.630548917 328.398525421 255.601117873 c 0
 328.398525421 272.07533708 328.08860028 289.318974872 327.46875 307.33203125 c 5
EndSplineSet
EndChar

StartChar: U
Encoding: 85 85 29
Width: 489
VWidth: 965
Flags: HW
HStem: -2.0498 12.7598<362.153 383.529> -0.00585938 42.2471<100.555 164.809>
VStem: 40.0771 36.6582<53.711 345.725> 313 30.7852<29.5606 239.925>
LayerCount: 2
Fore
SplineSet
239.357421875 92.6240234375 m 4xb0
 217.374348958 58.9638671875 190.067057292 32.9235026042 157.435546875 14.5029296875 c 4
 140.301432292 4.83040364583 125.077473958 -0.005859375 111.763671875 -0.005859375 c 4
 109.727213542 -0.005859375 107.736328125 0.107421875 105.791015625 0.333984375 c 4
 86.7565104167 2.54622395833 72.5035807292 11.2106119792 63.0322265625 26.3271484375 c 4
 59.3714192708 32.1728515625 56.1822916667 38.2171223958 53.46484375 44.4599609375 c 4
 50.7610677083 50.6708984375 48.6031901042 57.64453125 46.9912109375 65.380859375 c 4
 45.3505859375 73.2428385417 44.0146484375 79.8255208333 42.9833984375 85.12890625 c 4
 41.9658203125 90.345703125 41.2721354167 97.8229166667 40.90234375 107.560546875 c 4
 40.5299479167 117.390625 40.2864583333 124.270182291 40.171875 128.19921875 c 4
 40.1087239583 130.341796875 40.0771484375 133.643880209 40.0771484375 138.10546875 c 4
 40.0771484375 141.673177083 40.0979817708 146.034505208 40.1396484375 151.189453125 c 4
 40.2314453125 162.5859375 40.2776692708 169.58984375 40.2783203125 172.201171875 c 4
 40.2796223958 202.887369792 42.5166015625 236.759440104 46.9892578125 273.817382812 c 4
 65.5315755208 434.316731771 87.5774739583 549.394856771 113.126953125 619.051757812 c 4
 115.514322916 624.338216145 117.923502604 627.564453125 120.354492188 628.73046875 c 4
 123.029622396 630.013020833 127.671223958 631.042643229 134.279296875 631.819335938 c 4
 135.8515625 631.950195313 137.285481771 632.015625 138.581054688 632.015625 c 4
 142.150065104 632.015625 144.533203125 631.534830729 145.73046875 630.573242188 c 4
 147.244140625 629.356445313 148.250325521 626.438476563 148.749023438 621.819335938 c 4
 148.057617187 618.438476563 143.600911458 599.670898437 135.37890625 565.516601562 c 4
 129.604817709 543.702148437 117.428710938 478.6640625 98.8505859375 370.40234375 c 4
 84.7477213542 286.421875 77.3759765625 215.239583333 76.7353515625 156.85546875 c 4
 77.8922526042 114.77734375 81.1302083333 85.7561848958 86.44921875 69.7919921875 c 4
 92.6360677083 53.0875651042 101.489908854 44.0169270833 113.010742188 42.580078125 c 4
 114.822591146 42.3541666667 116.650716146 42.2412109375 118.495117188 42.2412109375 c 4x70
 133.115559896 42.2412109375 148.754231771 49.3372395833 165.411132812 63.529296875 c 4
 201.335611979 94.134765625 232.890625 143.900716146 260.076171875 212.827148438 c 4
 279.931640625 263.427408854 296.268880208 307.472981771 309.087890625 344.963867188 c 4
 321.8984375 382.437825521 331.192382813 411.443684896 336.969726562 431.981445312 c 4
 342.741861979 452.499023437 351.229817709 484.687174479 362.43359375 528.545898438 c 4
 373.5859375 572.196940105 384.592447917 612.5625 395.453125 649.642578125 c 4
 397.485026041 651.994791667 403.90234375 653.186197917 414.705078125 653.216796875 c 4
 424.8046875 653.053385417 430.577799479 650.866210938 432.024414062 646.655273438 c 4
 430.180013021 639.032877605 427.02734375 628.027018229 422.56640625 613.637695312 c 6
 422.548828125 613.5703125 l 5
 404.109375 534.90625 388.0859375 449.350260417 374.478515625 356.90234375 c 4
 372.5859375 342.484375 369.538411459 320.198242187 365.3359375 290.043945312 c 4
 361.12109375 259.781575521 357.915039063 236.236328125 355.717773438 219.408203125 c 4
 353.518554687 202.561197916 351.2265625 181.921875 348.841796875 157.490234375 c 4
 346.453125 133.033203125 344.833007812 110.541015625 343.981445312 90.013671875 c 4
 343.850585937 86.4544270833 343.78515625 83.0240885417 343.78515625 79.72265625 c 4
 343.78515625 56.3938802083 347.065755208 39.5084635417 353.626953125 29.06640625 c 4
 361.317708334 16.8287760417 371.07421875 10.7099609375 382.896484375 10.7099609375 c 4
 385.324869792 10.7099609375 387.889322917 10.98046875 390.58984375 11.521484375 c 6
 382.852539062 2.822265625 l 6
 376.859049479 -0.42578125 370.319986979 -2.0498046875 363.235351562 -2.0498046875 c 4
 361.071289062 -2.0498046875 358.848958333 -1.900390625 356.568359375 -1.6015625 c 4
 338.444661458 2.42513020833 326.597005208 9.43782552083 321.025390625 19.4365234375 c 4
 315.675130208 29.0335286458 313 42.6373697917 313 60.248046875 c 4
 313 61.3600260417 313.011067708 62.501953125 313.033203125 63.673828125 c 4
 313.615885416 91.266927083 314.57421875 113.9609375 315.908203125 131.755859375 c 4
 317.826171875 157.322265625 320.864257813 186.099609375 325.022460938 218.087890625 c 4
 326.234700521 227.409505208 328.131510416 239.428710937 330.712890625 254.145507812 c 4
 333.293619792 268.858398437 336.194986979 284.952148437 339.416992188 302.426757812 c 4
 342.636393229 319.889648437 345.037434896 333.37109375 346.620117188 342.87109375 c 6
 346.657226562 343.302734375 l 6
 346.657877604 344.412760417 346.063802083 345.01953125 344.875 345.123046875 c 4
 343.831380208 345.12890625 343.161783854 344.688802084 342.866210938 343.802734375 c 4
 315.030273438 260.296875 297.119466146 209.12109375 289.133789062 190.275390625 c 4
 280.833658854 170.481770834 272.530924479 152.437825521 264.225585938 136.143554688 c 4
 255.926106771 119.867513021 247.63671875 105.361002605 239.357421875 92.6240234375 c 4xb0
356.568359375 -1.6015625 m 5
 356.568359375 -1.6015625 l 5
113.126953125 619.051757812 m 5
 113.126953125 619.051757812 l 5
356.3984375 -2.5673828125 m 1029
112.21875 619.421875 m 1029
EndSplineSet
EndChar

StartChar: V
Encoding: 86 86 30
Width: 361
VWidth: 965
Flags: HW
HStem: 0.763672 56.6328<106.866 133.44> 666.704 20G<383.549 385.065>
VStem: 34.9443 32.0537<196.966 592.899>
LayerCount: 2
Fore
SplineSet
341.984375 628.489257812 m 4
 312.561197917 573.708658854 270.279622396 443.409505208 215.139648438 237.591796875 c 4
 192.769205729 153.272786458 177.323893229 97.498046875 168.803710938 70.267578125 c 4
 161.336263021 46.396484375 153.820963541 28.9443359375 146.2578125 17.9111328125 c 4
 138.6953125 6.8779296875 128.534505208 1.162109375 115.775390625 0.763671875 c 4
 101.015625 0.763671875 86.943359375 21.0139973958 73.55859375 61.5146484375 c 4
 60.1725260417 102.015950521 50.3902994792 149.724934895 44.2119140625 204.641601562 c 4
 38.0335286458 259.558268229 34.9443359375 324.085611979 34.9443359375 398.223632812 c 4
 34.9443359375 472.360351563 35.2877604167 520.755533855 35.974609375 543.409179688 c 4
 36.6614583333 566.062174479 37.0048828125 577.732421875 37.0048828125 578.419921875 c 4
 37.0048828125 588.716145833 40.0934244792 593.864257812 46.2705078125 593.864257812 c 4
 53.8219401042 593.864257812 60.0003255208 587.685872395 64.8056640625 575.329101562 c 5
 65.7366536458 545.601236979 66.4674479167 503.999674479 66.998046875 450.524414062 c 4
 67.5286458333 397.049153646 68.26953125 356.521484375 69.220703125 328.94140625 c 4
 70.171875 301.361328125 73.2076822917 266.406901041 78.328125 224.078125 c 4
 83.4479166667 181.749348959 90.9534505207 140.432942709 100.844726562 100.12890625 c 4
 108.057617187 71.640625 114.235677083 57.396484375 119.37890625 57.396484375 c 6
 120.409179688 57.396484375 l 6
 125.204752604 57.396484375 131.3828125 70.4391276042 138.943359375 96.5244140625 c 4
 151.227864584 138.905924479 164.745768229 186.652018229 179.497070312 239.762695312 c 4
 194.247721354 292.874023437 206.350911458 336.040690104 215.806640625 369.262695312 c 4
 225.264322916 402.485351563 233.451171875 429.472330729 240.3671875 450.223632812 c 4
 264.05078125 521.271158854 280.869140625 567.778645833 290.822265625 589.74609375 c 4
 291.57421875 591.388671875 292.676432291 593.8125 294.12890625 597.017578125 c 4
 300.884114583 611.915364583 306.236979167 622.973958333 310.1875 630.193359375 c 4
 314.137369792 637.411458333 320.365234375 645.473632812 328.87109375 654.379882812 c 4
 337.378255209 663.285481771 347.520507813 670.571940104 359.297851562 676.239257812 c 4
 373.793294271 683.215820312 382.294921875 686.704101562 384.802734375 686.704101562 c 4
 385.326822917 686.704101562 385.588867188 686.551106771 385.588867188 686.245117188 c 4
 385.588867188 686.244140625 l 4
 385.585611979 685.255859375 382.606770833 681.460286458 376.65234375 674.857421875 c 4
 360.5546875 657.00390625 348.998697917 641.547851563 341.984375 628.489257812 c 4
EndSplineSet
EndChar

StartChar: W
Encoding: 87 87 31
Width: 475
VWidth: 965
Flags: HW
HStem: 0.255859 38.8242<242.461 287.431> 171.063 66.917<155.039 183.102> 661.662 20G<432.48 434.443>
VStem: 35.9346 37.1367<75.9616 278.913>
LayerCount: 2
Fore
SplineSet
450.0546875 652.100585938 m 4
 450.0546875 643.260742187 448.864583333 631.700520833 446.484375 617.419921875 c 4
 444.104166667 603.139973958 437.984049479 561.319986979 428.124023438 491.959960938 c 4
 425.618164063 476.737955729 421.483398437 450.428385417 415.719726562 413.03125 c 4
 409.956705729 375.634765625 404.654622395 342.823567709 399.813476562 314.59765625 c 4
 394.971679687 286.372395833 389.771809896 259.048502604 384.213867188 232.625976562 c 4
 365.607747396 144.187174479 344.374674479 81.0319010417 320.514648438 43.16015625 c 4
 310.258789063 26.8821614583 301.127929687 15.5354817708 293.122070312 9.1201171875 c 4
 285.746419271 3.21061197917 277.04296875 0.255859375 267.01171875 0.255859375 c 4
 266.155598958 0.255859375 265.289713541 0.27734375 264.4140625 0.3203125 c 4
 258.16015625 0.627604166667 252.08984375 2.22786458333 246.203125 5.12109375 c 4
 240.315755208 8.01432291667 235.276041666 11.3206380208 231.083984375 15.0400390625 c 4
 226.891927084 18.7594401042 222.583333334 23.62109375 218.158203125 29.625 c 4
 213.731770834 35.6282552083 210.281575521 40.7294921875 207.807617188 44.9287109375 c 4
 205.333007813 49.1285807292 202.442057292 54.3190104167 199.134765625 60.5 c 4
 190.245442708 77.11328125 183.10546875 98.7034505207 177.71484375 125.270507812 c 4
 176.473307291 131.387044271 175.444661458 138.266276042 174.62890625 145.908203125 c 4
 173.8125 153.550130208 173.090820313 159.317057292 172.463867188 163.208984375 c 4
 171.837565104 167.102213542 170.867838541 169.5859375 169.5546875 170.66015625 c 4
 169.225911459 170.929036458 168.866210938 171.063476562 168.475585938 171.063476562 c 4
 166.625325521 171.063476562 164.082356771 168.043294271 160.846679688 162.002929688 c 4
 155.487304688 151.582356771 150.229817709 137.468098958 145.07421875 119.66015625 c 4
 124.906901042 54.9837239583 104.8515625 22.6455078125 84.908203125 22.6455078125 c 4
 84.2233072917 22.6455078125 83.5387369792 22.68359375 82.8544921875 22.759765625 c 4
 71.3063151042 24.046875 60.6803385417 35.19140625 50.9765625 56.193359375 c 4
 41.2727864583 77.1940104167 36.2587890625 102.76953125 35.9345703125 132.919921875 c 4
 35.9345703125 175.080729166 48.0045572917 257.700846354 72.14453125 380.780273438 c 4
 96.2845052087 503.861002605 110.564453125 569.480794271 114.984375 577.639648438 c 4
 119.404296875 585.799804687 123.654296875 589.879882812 127.734375 589.879882812 c 4
 142.694661459 589.879882812 150.174804688 585.799804687 150.174804688 577.639648438 c 4
 144.734700521 546.360351563 135.5546875 498.760416667 122.634765625 434.83984375 c 4
 103.829427083 345.908854167 90.4690755208 277.541992187 82.5537109375 229.739257812 c 4
 76.2320963542 191.567382812 73.0712890625 160.479492187 73.0712890625 136.475585938 c 4
 73.0712890625 130.419596354 73.2724609375 124.814453125 73.6748046875 119.66015625 c 4
 74.2861328125 111.827473958 75.3098958333 104.473307291 76.74609375 97.59765625 c 4
 78.1829427083 90.7213541667 79.6337890625 85.4527994792 81.0986328125 81.7919921875 c 4
 82.5634765625 78.1298828125 83.8287760417 76.1324869792 84.89453125 75.7998046875 c 4
 84.9811197917 75.7731119792 85.0706380208 75.759765625 85.1630859375 75.759765625 c 4
 88.0888671875 75.759765625 94.0579427083 89.19140625 103.0703125 116.0546875 c 4
 103.18359375 116.392578125 103.245117187 116.574544271 103.254882812 116.600585938 c 4
 110.642252604 136.747070313 116.592122396 152.387044271 121.104492188 163.520507812 c 4
 128.107096355 180.799153645 133.376953125 193.0390625 136.9140625 200.240234375 c 4
 149.206380208 225.263671875 162.126627604 237.84375 175.674804688 237.98046875 c 4
 190.528971355 237.098307291 200.048828125 221.798177083 204.234375 192.080078125 c 4
 212.563151041 125.513671875 226.503255208 79.2737630208 246.0546875 53.3603515625 c 4
 252.005208333 43.8401692708 259.145182292 39.080078125 267.474609375 39.080078125 c 4
 274.315104166 39.080078125 284.514973958 51.3199869792 298.07421875 75.7998046875 c 4
 326.862630209 127.780924479 355.422851563 241.680989583 383.754882812 417.5 c 4
 386.474283854 436.541015625 391.234049479 468.670898438 398.034179688 513.889648438 c 4
 404.834309896 559.110351563 410.104492187 594.470377604 413.844726562 619.969726562 c 4
 417.584309895 645.469726562 419.964192708 661.449869791 420.984375 667.91015625 c 4
 422.004557292 674.37109375 424.214518229 678.791015625 427.614257812 681.169921875 c 4
 429.672851563 681.498046875 431.591145834 681.662109375 433.369140625 681.662109375 c 4
 435.516927083 681.662109375 437.460286458 681.422851563 439.19921875 680.944335938 c 4
 442.376953125 680.068684896 444.711914062 678.821940104 446.204101562 677.204101562 c 4
 447.696289062 675.585611979 448.807291666 673.403645834 449.537109375 670.658203125 c 4
 450.261067708 667.934895834 450.623046875 665.605794271 450.623046875 663.670898438 c 4
 450.623046875 663.624023438 l 4
 450.6171875 661.679361979 450.520182291 659.371744792 450.33203125 656.701171875 c 4
 450.147135417 654.075520833 450.0546875 652.549153645 450.0546875 652.122070312 c 4
 450.0546875 652.100585938 l 4
EndSplineSet
EndChar

StartChar: X
Encoding: 88 88 32
Width: 485
VWidth: 965
Flags: HW
LayerCount: 2
Fore
SplineSet
95.9716796875 644.33984375 m 0
 95.9873046875 644.340494791 96.0032552083 644.340820312 96.01953125 644.340820312 c 0
 97.9518229167 644.340820312 102.703776042 640.896484375 110.275390625 634.0078125 c 0
 127.640625 618.205078125 140.495442709 597.439453125 148.83984375 571.7109375 c 0
 154.879557291 552.19140625 161.812174479 530.296223958 169.637695312 506.025390625 c 0
 177.461263021 481.755208334 185.180013021 457.768880209 192.793945312 434.06640625 c 0
 200.407877604 410.364583333 207.307617187 388.420247396 213.493164062 368.233398438 c 1
 233.764648437 393.770507813 259.126627604 421.537760417 289.579101562 451.53515625 c 0
 318.721679687 480.240885417 349.1875 507.658854167 380.9765625 533.7890625 c 0
 414.774739583 561.572265625 447.221028646 585.525065105 478.315429688 605.647460938 c 0
 506.411783855 623.828450521 530.333984375 634.44921875 550.08203125 637.509765625 c 0
 553.488932291 638.037760416 556.251953125 638.301757812 558.37109375 638.301757812 c 0
 561.862630209 638.301757812 563.608398438 637.585611979 563.608398438 636.153320312 c 0
 563.608398438 634.244466145 560.508463542 631.063476562 554.30859375 626.610351562 c 0
 553.379557291 625.943684895 552.089192708 625.042643229 550.4375 623.907226562 c 2
 549.310546875 623.129882812 l 2
 500.897135417 589.562825521 452.9765625 551.331380208 405.548828125 508.435546875 c 0
 374.649739583 480.488932292 344.748697916 451.274414063 315.845703125 420.791992188 c 0
 283.584635416 386.770507813 254.780273437 353.613932292 229.432617188 321.322265625 c 1
 243.191080729 271.362630208 255.208658854 230.290364583 265.485351562 198.10546875 c 0
 279.168945313 155.24609375 293.180664063 116.777994792 307.520507812 82.701171875 c 0
 318.043294271 57.6959635417 329.093098958 34.1429036458 340.669921875 12.0419921875 c 0
 340.669921875 6.70670572917 335.725911458 2.75162760417 325.837890625 0.1767578125 c 0
 322.348958334 -0.732747395833 319.139322917 -1.1875 316.208984375 -1.1875 c 0
 310.420572917 -1.1875 305.719726563 0.585286458333 302.106445312 4.130859375 c 0
 292.549804687 22.9583333333 283.276041667 43.2473958333 274.28515625 64.998046875 c 0
 260.891927083 97.4023437503 246.830078125 136.622395834 232.099609375 182.658203125 c 0
 227.848307292 195.943359375 222.043619792 214.535481771 214.685546875 238.434570312 c 0
 207.326171875 262.334309896 202.1875 278.911783855 199.26953125 288.166992188 c 1
 176.440755209 262.278320313 157.173828125 238.198242187 141.46875 215.926757812 c 0
 125.044921875 192.638997396 111.576497395 169.937174479 101.063476562 147.821289062 c 0
 98.032877604 141.444986979 95.2034505208 135.088216146 92.5751953125 128.750976562 c 0
 89.9462890625 122.413085937 87.4768880208 115.862304687 85.1669921875 109.098632812 c 0
 82.8577473958 102.336263021 80.8356119792 96.2298177083 79.1005859375 90.779296875 c 0
 77.3668619792 85.3287760417 75.4661458333 78.7428385417 73.3984375 71.021484375 c 0
 71.3307291667 63.30078125 69.6663411458 56.9772135417 68.4052734375 52.05078125 c 0
 67.1435546875 47.1223958333 65.3893229167 40.13671875 63.142578125 31.09375 c 0
 60.89453125 22.0501302083 59.1363932292 15.0400390625 57.8681640625 10.0634765625 c 0
 53.6012369792 2.9580078125 46.6796875 -0.66796875 37.103515625 -0.814453125 c 0
 34.4635416667 -0.664713541667 31.6995442708 -0.145182291667 28.8115234375 0.744140625 c 0
 25.9235026042 1.630859375 23.30078125 2.99869791667 20.943359375 4.84765625 c 0
 18.5865885417 6.69661458333 17.3811848958 8.76497395833 17.3271484375 11.052734375 c 0
 32.9430338542 76.264322917 49.4166666667 126.687825521 66.748046875 162.323242188 c 0
 79.2337239583 187.995117188 95.4303385417 215.200195313 115.337890625 243.938476562 c 0
 133.309895834 269.883138021 155.986002605 299.552083333 183.366210938 332.9453125 c 1
 176.299153646 354.197916667 160.295898437 406.7734375 135.356445312 490.671875 c 0
 110.416341146 574.5703125 97.4417317708 619.381835937 96.4326171875 625.106445312 c 0
 95.0276692708 631.874023437 94.3251953125 636.855794271 94.3251953125 640.051757812 c 0
 94.3251953125 642.875325521 94.8740234375 644.3046875 95.9716796875 644.33984375 c 0
EndSplineSet
EndChar

StartChar: Y
Encoding: 89 89 33
Width: 376
VWidth: 965
Flags: HW
VStem: 22.6172 38.899<442.489 621.083> 112.569 34.4555<32.5854 265.937> 299.135 37.4144<509.079 655.004>
LayerCount: 2
Fore
SplineSet
147.331054688 140.372070312 m 4
 147.126679574 135.697468664 147.024492018 131.075379303 147.024492018 126.50580223 c 0
 147.024492018 97.6973390103 151.08598947 70.9760038917 159.208984375 46.341796875 c 4
 164.996744792 28.787109375 170.275716146 15.9195963542 175.045898438 7.7392578125 c 4
 179.055664063 0.863606770833 178.826497396 -2.49251302083 174.358398438 -2.3291015625 c 4
 170.847981771 -2.20084635417 165.789388021 -0.205403645833 159.182617188 3.6572265625 c 4
 155.495117188 5.8134765625 149.235351563 10.4736328125 140.403320312 17.6376953125 c 4
 129.059570312 28.9807942708 121.622395833 45.5071614583 118.091796875 67.216796875 c 4
 114.409936653 89.8553998047 112.569006543 114.34103415 112.569006543 140.673699912 c 0
 112.569006543 142.869879475 112.581811653 145.078906587 112.607421875 147.30078125 c 4
 112.971354166 178.981770833 117.947265625 218.573893229 127.53515625 266.077148438 c 4
 133.0078125 293.191731771 140.378255208 323.60546875 149.646484375 357.318359375 c 5
 127.736328125 362.368489584 108.491210938 369.904947917 91.9111328125 379.927734375 c 4
 68.6630859375 393.981770833 50.8440755208 412.779947916 38.4541015625 436.322265625 c 4
 27.8961588542 455.458333334 22.6171875 481.523111979 22.6171875 514.516601562 c 4
 22.6171875 547.510091146 27.5660807292 578.853841146 37.4638671875 608.547851562 c 4
 46.7021484375 637.581705729 56.9300130208 652.098632812 68.1474609375 652.098632812 c 4
 77.3850911458 652.098632812 82.00390625 647.479817708 82.00390625 638.2421875 c 4
 73.4505208333 603.136067708 68.021484375 578.535481771 65.716796875 564.440429688 c 4
 62.9163696143 547.313497791 61.5161559839 531.619086194 61.5161559839 517.357194897 c 0
 61.5161559839 505.455718 62.491239406 494.551822305 64.44140625 484.645507812 c 4
 69.37890625 459.560221354 78.6975911458 440.977864583 92.3974609375 428.8984375 c 4
 114.612955729 409.313802083 137.808919271 399.381510417 161.985351562 399.1015625 c 4
 162.32679106 399.097604703 162.667796176 399.095625805 163.008366913 399.095625805 c 0
 187.765882885 399.095625805 210.227937664 409.553008349 230.39453125 430.467773438 c 4
 253.085286458 456.466471354 269.532877604 481.831380208 279.737304688 506.5625 c 4
 290.468424479 532.568359375 296.812825521 557.655273437 298.770507812 581.823242188 c 4
 299.013245326 584.818355655 299.134614083 588.01582045 299.134614083 591.415636574 c 0
 299.134614083 604.401912514 297.363831264 620.340515427 293.822265625 639.231445312 c 4
 291.182942708 648.469726563 289.86328125 653.748697917 289.86328125 655.068359375 c 4
 294.197265625 665.471354166 301.125651041 669.430664062 310.6484375 666.946289062 c 4
 316.953125 665.301106771 321.551106771 662.885091146 324.442382812 659.698242188 c 4
 327.333007812 656.512044271 329.993489583 651.339518229 332.423828125 644.180664062 c 4
 335.173937595 624.927728915 336.54899233 609.122591109 336.54899233 596.765250646 c 0
 336.54899233 594.285011577 336.493599054 591.943665007 336.3828125 589.741210938 c 4
 335.0234375 562.713867187 330.599934896 537.412760416 323.112304688 513.837890625 c 4
 315.006835937 488.322265625 303.934570312 464.926106771 289.895507812 443.649414062 c 4
 273.300455729 418.499674479 255.679036459 398.591471355 237.03125 383.924804688 c 4
 222.36328125 372.388346355 205.788736979 363.619140625 187.307617188 357.6171875 c 5
 177.924804688 329.09765625 169.360351563 294.073242187 161.614257812 252.543945312 c 4
 153.651367187 209.857747396 148.890299479 172.467122396 147.331054688 140.372070312 c 4
EndSplineSet
EndChar

StartChar: Z
Encoding: 90 90 34
Width: 593
VWidth: 965
Flags: HW
HStem: 1.45898 21G<565.542 580.7> 321.438 34.2461<268.462 276.413 334.029 523.624> 560.088 32.8178<143.737 400.072>
VStem: 66.8006 27.26<80.0441 184.391>
LayerCount: 2
Fore
SplineSet
152.458984375 136.243164062 m 1
 143.729166666 142.452148437 133.925130208 149.916992187 123.046875 158.637695312 c 0
 108.880208333 169.995768229 99.4694010417 178.409505209 94.814453125 183.87890625 c 0
 94.6796875 184.052083333 94.5240885417 184.230794271 94.34765625 184.415039062 c 1
 94.20703125 183.909830729 94.111328125 183.336914062 94.060546875 182.696289062 c 0
 93.7747395833 169.164388021 93.2415364583 156.538411458 92.4609375 144.818359375 c 0
 91.6809895833 133.098307292 90.6533203125 122.282226563 89.3779296875 112.370117188 c 0
 86.1767578125 87.494466146 80.7600911458 64.7861328125 73.1279296875 44.2451171875 c 1
 90.3538411458 60.3968098958 105.761067708 76.6520182292 119.349609375 93.0107421875 c 0
 130.011067708 105.845377604 141.047526042 120.256184895 152.458984375 136.243164062 c 1
94.060546875 182.696289062 m 1
 94.060546875 182.696289062 l 1
402.76953125 570.374023438 m 1
 345.054462041 563.516471311 298.506315863 560.087695247 263.125092718 560.087695247 c 0
 248.73572573 560.087695247 236.193377115 560.654817665 225.498046875 561.7890625 c 0
 207.141276042 563.735677083 188.526367187 566.587239583 169.653320312 570.34375 c 0
 150.774414063 574.099609375 133.307942709 578.623697916 117.25390625 583.916015625 c 0
 101.132161458 589.23046875 89.6311848958 594.611002604 82.7509765625 600.057617188 c 0
 77.7106119792 603.897460937 73.0514322917 609.448893229 68.7734375 616.711914062 c 0
 67.6985677083 618.536783854 66.7877604167 620.330729167 66.041015625 622.09375 c 0
 65.2936197917 623.856770833 64.7083333333 625.596679687 64.28515625 627.313476562 c 0
 63.8619791667 629.030273437 63.607421875 630.714518229 63.521484375 632.366210938 c 0
 63.435546875 634.018554687 63.5162760417 635.645833333 63.763671875 637.248046875 c 0
 66.6555989583 646.12890625 72.923828125 649.669921875 82.568359375 647.87109375 c 0
 85.0325520833 647.410807291 87.2307942708 646.021809895 89.1630859375 643.704101562 c 0
 89.7731119792 642.971679687 90.3723958333 642.187825521 90.9609375 641.352539062 c 0
 91.5494791667 640.517252604 92.1263020833 639.633138021 92.69140625 638.700195312 c 0
 93.2565104167 637.767252604 93.8115234375 636.781901042 94.3564453125 635.744140625 c 0
 95.9306640625 632.748697916 97.0944010417 630.799479166 97.84765625 629.896484375 c 0
 104.012369791 622.505859375 119.700520833 615.339192708 144.912109375 608.396484375 c 0
 168.74609375 601.835286458 194.698242188 597.126627604 222.768554688 594.270507812 c 0
 231.719690748 593.360504124 242.024483606 592.90550228 253.682933262 592.90550228 c 0
 273.118894797 592.90550228 296.317031626 594.170074436 323.27734375 596.69921875 c 0
 337.4609375 598.029947917 350.329427083 599.375325521 361.8828125 600.735351562 c 0
 373.435546875 602.096028646 383.516927083 603.447591146 392.126953125 604.790039062 c 0
 400.736979167 606.133138021 407.909830729 607.467122396 413.645507812 608.791992188 c 1
 418.766601563 622.260742188 423.612304688 630.956054688 428.182617188 634.877929688 c 0
 432.033528646 638.183268229 436.249023437 640.676757813 440.829101562 642.358398438 c 0
 445.409179687 644.039388021 450.334960937 644.903320312 455.606445312 644.950195312 c 0
 465.851236979 645.041992187 474.08203125 642.176106771 480.298828125 636.352539062 c 0
 487.076822916 630.006184895 490.284505208 622.402018229 489.921875 613.540039062 c 0
 489.521484375 603.768554687 484.832356771 594.764322917 475.854492188 586.52734375 c 0
 473.637695313 584.492838542 470.835286458 582.5859375 467.447265625 580.806640625 c 0
 464.059244792 579.02734375 460.206380208 577.415364583 455.888671875 575.970703125 c 0
 451.5703125 574.525390625 446.789388021 573.231119792 441.545898438 572.087890625 c 1
 437.140950521 565.598307292 432.265625 556.222981771 426.919921875 543.961914062 c 0
 419.154947917 527.849283854 412.059895834 513.134765625 405.634765625 499.818359375 c 0
 399.208984375 486.501953125 393.443684896 474.564453125 388.338867188 464.005859375 c 0
 375.101888021 436.628255208 363.924153646 413.584635417 354.805664062 394.875 c 0
 345.687174479 376.164713541 338.76171875 362.060546875 334.029296875 352.5625 c 1
 335.445963542 352.511067708 336.902018229 352.461914062 338.397460938 352.415039062 c 0
 339.892252605 352.367513021 341.477539063 352.320638021 343.153320312 352.274414062 c 0
 344.829101563 352.228841146 346.581705729 352.183268229 348.411132812 352.137695312 c 0
 350.240559896 352.092773437 352.240559896 352.046223958 354.411132812 351.998046875 c 0
 363.821940104 351.786458333 374.474934896 351.547851562 386.370117188 351.282226562 c 0
 398.268554688 351.015950521 408.840494792 350.736328125 418.0859375 350.443359375 c 0
 441.1796875 349.712890625 460.181640625 348.747070313 475.091796875 347.545898438 c 0
 490.001953125 346.344075521 500.896158854 344.895833333 507.774414062 343.201171875 c 0
 536.290039062 336.174479166 552.465494791 328.912434895 556.30078125 321.415039062 c 0
 558.220703125 317.661783854 554.981445312 315.450520833 546.583007812 314.78125 c 0
 544.190429687 314.590494792 541.361002604 314.523763021 538.094726562 314.581054688 c 0
 527.025716146 314.833658855 514.528320313 315.136393229 500.602539062 315.489257812 c 0
 486.679361979 315.840820312 471.843424479 316.220052083 456.094726562 316.626953125 c 0
 440.347330729 317.033854167 427.371744791 317.362630209 417.16796875 317.61328125 c 0
 372.983072917 318.699869791 339.494466146 319.328776041 316.702148438 319.5 c 1
 311.180013021 309.645833333 305.869466145 300.274414063 300.770507812 291.385742188 c 0
 295.671549479 282.496419271 290.761393229 274.050130208 286.040039062 266.046875 c 0
 281.318684895 258.04296875 276.752604166 250.424153646 272.341796875 243.190429688 c 0
 248.099609375 203.434570313 225.726236979 170.5625 205.221679688 144.57421875 c 1
 235.306315104 126.636067709 290.235677083 104.558919271 370.009765625 78.3427734375 c 0
 475.975911458 43.5179036458 548.302408854 24.0550130208 586.989257812 19.9541015625 c 0
 589.717773437 19.6643880208 592.839192708 18.439453125 596.353515625 16.279296875 c 0
 599.797526042 14.1627604167 602.635091146 12.0520833333 604.866210938 9.947265625 c 0
 607.258789063 7.693359375 608.455078125 6.1259765625 608.455078125 5.2451171875 c 0
 608.455078125 4.31608072917 608.030598958 3.42708333333 607.181640625 2.578125 c 0
 607.007161458 2.40364583333 606.797200521 2.30696614583 606.551757812 2.2880859375 c 0
 599.422851563 1.7353515625 588.279296875 1.458984375 573.12109375 1.458984375 c 0
 557.962890625 1.45963541667 546.850260416 1.73600260417 539.783203125 2.2880859375 c 0
 526.257161458 3.34733072917 510.393229167 5.7265625 492.19140625 9.42578125 c 0
 473.989583333 13.125 453.459635417 18.1402994792 430.6015625 24.4716796875 c 0
 407.742838541 30.8030598958 382.530273437 38.4554036458 354.963867188 47.4287109375 c 0
 276.936523437 72.8291015625 219.111979166 95.3274739583 181.490234375 114.923828125 c 1
 178.99609375 112.091796875 173.155273438 105.375 163.967773438 94.7734375 c 0
 153.907877605 83.1640625 145.676106771 73.8323567708 139.272460938 66.7783203125 c 0
 125.320638021 51.4085286458 112.930664062 38.7985026042 102.102539062 28.9482421875 c 0
 94.612955729 22.1363932292 89.1555989583 17.3111979167 85.73046875 14.47265625 c 0
 82.2584635417 11.5950520833 77.7177734375 8.76953125 72.1083984375 5.99609375 c 0
 66.4072265625 3.17643229167 60.98828125 1.9404296875 55.8515625 2.2880859375 c 0
 53.2916666667 2.54329427083 50.8059895833 3.2080078125 48.39453125 4.2822265625 c 0
 45.9837239583 5.35579427083 43.6409505208 6.83528645833 41.3662109375 8.720703125 c 0
 36.5927734375 12.67578125 34.9339192708 16.5354817708 36.3896484375 20.2998046875 c 0
 46.3375651042 45.9996744792 54.0947265625 77.564778646 59.6611328125 114.995117188 c 0
 64.420749179 146.996430377 66.8005573622 176.742922477 66.8005573622 204.234593489 c 0
 66.8005573622 214.96021344 66.438327304 225.34262759 65.7138671875 235.381835938 c 0
 66.4150390625 237.855143229 67.9895833333 240.150065104 70.4375 242.266601562 c 0
 73.8841145833 244.929361979 76.453125 245.521484375 78.14453125 244.04296875 c 0
 102.654296875 222.634114583 121.925455729 206.160807292 135.958007812 194.623046875 c 0
 144.611653645 187.5078125 152.122395833 181.537434895 158.490234375 176.711914062 c 0
 164.858072917 171.886393229 169.936197917 168.3046875 173.724609375 165.966796875 c 1
 193.970703125 189.505859375 215.706054687 219.487955729 238.930664062 255.913085938 c 0
 255.463867187 281.843424479 267.958007813 303.685221354 276.413085938 321.438476562 c 1
 187.0859375 324.927734375 l 1
 186.41015625 325.227539062 l 2
 182.645833333 329.080403646 180.752278646 334.997070313 180.729492188 342.977539062 c 0
 180.704101563 351.315429687 183.166992187 355.643880208 188.118164062 355.962890625 c 0
 192.575930078 356.046546558 197.762828862 356.088374524 203.678860413 356.088374524 c 0
 214.291463004 356.088374524 227.250397553 355.95377312 242.555664062 355.684570312 c 0
 250.307617187 355.547851563 257.453776042 355.442382813 263.994140625 355.368164062 c 0
 270.534505208 355.293294271 276.298177083 355.250976563 281.28515625 355.241210938 c 0
 286.272135417 355.230794271 290.583007813 355.249674479 294.217773438 355.297851562 c 1
 313.279622396 390.254882813 334.549479167 431.40625 358.02734375 478.751953125 c 0
 367.953125 498.770833334 382.8671875 529.311523438 402.76953125 570.374023438 c 1
EndSplineSet
EndChar

StartChar: a
Encoding: 97 97 35
Width: 333
VWidth: 965
Flags: HW
HStem: 3.45703 35.9717<91.4122 175.145> 275.519 27.3906<139.974 235.165>
VStem: 22.6611 40.4824<66.6286 211.418> 274.891 3.21875<203.828 207.91>
LayerCount: 2
Fore
SplineSet
278.109375 205.552734375 m 4
 278.059895833 204.401041666 277.552734375 203.825195312 276.587890625 203.825195312 c 4
 276.126302083 203.825195312 275.560546875 203.956705729 274.890625 204.219726562 c 5
 272.963541667 210.739908854 263.556966146 225.910807292 246.670898438 249.732421875 c 4
 234.592773438 266.923177084 216.973307292 275.518554688 193.8125 275.518554688 c 4
 187.990234375 275.518554688 181.817708333 274.975260417 175.294921875 273.888671875 c 4
 159.764973958 271.296223958 143.975585937 265.158854167 127.926757812 255.4765625 c 4
 125.308919271 253.825520833 122.666666667 252.166666667 120 250.5 c 4
 117.333333333 248.833333333 114.90625 247.044270833 112.71875 245.1328125 c 4
 100.239583333 234.377604167 90.7239583333 223.772460937 84.171875 213.317382812 c 4
 72.0572916667 193.105794271 65.1868489583 171.507486979 63.560546875 148.522460938 c 4
 63.2825520833 144.108398438 63.1435546875 139.815429688 63.1435546875 135.643554688 c 4
 63.1435546875 104.196289063 71.0413411458 79.6106770833 86.8369140625 61.88671875 c 4
 89.6123046875 58.62890625 94.1966145833 54.5263671875 100.58984375 49.5791015625 c 4
 110.32421875 42.8121744792 120.08984375 39.4287109375 129.88671875 39.4287109375 c 4
 135.125651042 39.4287109375 140.373372396 40.3961588542 145.629882812 42.3310546875 c 4
 171.876627604 50.7770182292 195.711263021 69.8138020833 217.133789062 99.44140625 c 4
 237.711263021 128.48046875 248.843098958 155.19140625 250.529296875 179.57421875 c 4
 250.843098958 185.19140625 253.592122396 189.594726563 258.776367188 192.784179688 c 4
 264.258789063 195.594726563 269.630533854 197.009114583 274.891601562 197.02734375 c 4
 280.963867187 197.009114583 286.013997396 195.859700521 290.041992188 193.579101562 c 4
 290.680664063 193.193033854 291.038736979 192.890299479 291.116210938 192.670898438 c 4
 291.094726563 192.547200521 291.083984375 192.422526041 291.083984375 192.296875 c 4
 291.083984375 191.966796875 291.157552083 191.628255208 291.3046875 191.28125 c 4
 288.434895833 179.09375 286.228190104 168.171223958 284.684570312 158.513671875 c 4
 284.228190104 156.171223958 283.878580729 154.251627604 283.635742188 152.754882812 c 4
 280.545247396 136.251627604 278.795572917 123.054036458 278.38671875 113.162109375 c 4
 278.233723958 111.514973958 278.157226562 109.982096354 278.157226562 108.563476562 c 4
 278.157226562 107.593424479 278.193033854 106.676757813 278.264648438 105.813476562 c 4
 278.754882813 89.271158854 280.68359375 77.4228515625 284.05078125 70.2685546875 c 4
 285.350260417 67.4228515625 286.55859375 64.4918619792 287.67578125 61.4755859375 c 4
 289.225260417 58.4918619792 290.541015625 55.8121744792 291.623046875 53.4365234375 c 4
 293.207682292 51.1455078125 294.630859375 48.7177734375 295.892578125 46.1533203125 c 4
 303.964192708 33.3844401042 310.529622396 22.9622395833 315.588867188 14.88671875 c 4
 320.529622396 6.96223958333 323.717773437 1.41438802083 325.153320312 -1.7568359375 c 4
 325.354492188 -2.5986328125 l 6
 325.635091146 -3.69108072917 325.775390625 -4.7177734375 325.775390625 -5.6787109375 c 4
 325.775390625 -8.47102864583 324.589192708 -10.7080078125 322.216796875 -12.3896484375 c 4
 321.155598958 -13.2509765625 319.730143229 -13.681640625 317.940429688 -13.681640625 c 4
 316.112955729 -13.681640625 313.905924479 -13.2327473958 311.319335938 -12.3349609375 c 4
 305.773111979 -10.1116536458 298.9140625 -6.64680989583 290.7421875 -1.9404296875 c 4
 281.580729167 3.35319010417 271.612304687 17.3792317708 260.836914062 40.1376953125 c 4
 249.860351562 62.8655598958 243.860677083 74.2294921875 242.837890625 74.2294921875 c 4
 242.815104167 74.2294921875 242.794596355 74.2236328125 242.776367188 74.2119140625 c 4
 226.258789063 57.4039713542 217.872070313 48.7679036458 217.616210938 48.3037109375 c 4
 191.205403646 18.7679036458 160.802408854 3.81901041667 126.407226562 3.45703125 c 5
 78.1357421873 5.15234375 46.7213541667 28.9977213542 32.1640625 74.9931640625 c 4
 25.8287760417 95.1038411462 22.6611328125 114.782552084 22.6611328125 134.029296875 c 4
 22.6611328125 155.622395833 26.6477864583 176.672200521 34.62109375 197.178710938 c 4
 40.8736979167 213.059570313 48.4814453125 226.741861979 57.4443359375 238.225585938 c 4
 90.4814453125 279.408528646 133.667317708 300.947591146 187.001953125 302.842773438 c 4
 188.417317708 302.887044271 189.809895833 302.909179688 191.1796875 302.909179688 c 4
 193.033854167 302.909179688 194.845703125 302.868489584 196.615234375 302.787109375 c 4
 201.538411458 302.262369792 206.618164063 301.585611979 211.854492188 300.756835938 c 4
 216.618164063 299.585611979 221.421223958 298.103841146 226.263671875 296.311523438 c 4
 260.996744792 282.407877605 278.36328125 255.067057292 278.36328125 214.2890625 c 4
 278.36328125 211.442057292 278.278645833 208.529947917 278.109375 205.552734375 c 4
EndSplineSet
Substitution2: "Single Substitution lookup 5 subtable" a.ss02
Substitution2: "Single Substitution lookup 4 subtable" a.ss02
Substitution2: "Single Substitution lookup 3 subtable" a.ss01
Substitution2: "Single Substitution lookup 2 subtable" a.ss01
EndChar

StartChar: b
Encoding: 98 98 36
Width: 394
VWidth: 965
Flags: HW
HStem: 0.942383 36.1221<80.6619 204.783> 253.979 41.2803<76.3035 112.388> 285.979 35.5938<122.628 297.489>
VStem: 26.4453 39.29<51.1517 151.433> 43.4443 40.4316<295.259 370.881> 326.444 37.2646<151.062 260.72>
LayerCount: 2
Fore
SplineSet
87.30078125 295.48828125 m 4xcc
 135.100260417 312.49609375 180.113606771 321.191080729 222.340820312 321.573242188 c 4
 223.405273437 321.588867188 224.465820313 321.596679688 225.522460938 321.596679688 c 4
 244.089518229 321.596679688 261.415364583 319.231119792 277.5 314.5 c 4
 294.5 309.5 309.610677083 301.895833333 322.83203125 291.6875 c 4
 350.083333333 270.90234375 363.708984375 244.330403646 363.708984375 211.971679688 c 4
 363.708984375 209.366210937 363.620768229 206.723632812 363.444335938 204.043945312 c 4
 363.148111979 199.347981771 362.805664063 194.508138021 362.416992188 189.524414062 c 4
 362.138997396 184.508138021 361.314453125 179.781901042 359.943359375 175.345703125 c 4
 359.314453125 173.115234375 358.666666667 170.833333333 358 168.5 c 4
 357.333333333 166.166666667 356.526041667 163.674804687 355.578125 161.024414062 c 4
 353.859375 156.341471354 351.833333333 151.666666667 349.5 147 c 4
 347.166666667 142.333333333 344.5 137.5 341.5 132.5 c 4
 338.5 127.5 335.333333333 122.666666667 332 118 c 4
 328.666666667 113.333333333 325 108.666666667 321 104 c 4
 317 99.3333333333 312.603190104 94.5625 307.809570312 89.6875 c 4
 279.269856771 60.5625 249.178059896 38.3388671875 217.534179688 23.0166015625 c 4
 187.141601563 8.30045572917 157.955729167 0.9423828125 129.9765625 0.9423828125 c 4
 128.82421875 0.9423828125 127.674153646 0.954752604167 126.526367188 0.9794921875 c 6
 126.346679688 0.9833984375 l 6
 98.7822265627 1.6611328125 77.6956380208 7.146484375 63.0869140625 17.439453125 c 4
 48.3623046875 27.8131510417 38.5 37.6666666667 33.5 47 c 4
 28.796875 55.7786458333 26.4453125 65.5224609375 26.4453125 76.2314453125 c 4
 26.4453125 76.9072265625 26.4547526042 77.5872395833 26.4736328125 78.271484375 c 4
 26.8245442708 95.423828125 31.6959635417 116.217447917 41.087890625 140.65234375 c 4
 57.0234375 180.869791667 70.4716796875 200.978515625 81.4326171875 200.978515625 c 4
 81.4443359375 200.978515625 l 4
 81.5029296875 200.978515625 l 4
 85.8382161458 200.978515625 88.4677734375 199.385091146 89.3916015625 196.198242188 c 4
 89.6832682292 195.144205729 89.8291015625 194.196940104 89.8291015625 193.356445312 c 4
 89.8291015625 193.028320312 89.8069661458 192.716796875 89.7626953125 192.421875 c 4
 89.7802734375 192.08984375 89.7890625 191.759114583 89.7890625 191.4296875 c 4
 89.7890625 188.832682292 89.2360026042 186.311848959 88.1298828125 183.8671875 c 4
 86.7099609375 180.622395833 85.6067708333 177.621419271 84.8203125 174.864257812 c 4
 72.9401041667 142.288085937 66.5963541667 116.401367188 65.7890625 97.2041015625 c 4
 65.7532552083 96.1604817708 65.7353515625 95.1305338542 65.7353515625 94.1142578125 c 4
 65.7353515625 61.2229817708 84.449544271 42.3772786458 121.877929688 37.5771484375 c 4
 124.678710937 37.2353515625 127.72265625 37.064453125 131.009765625 37.064453125 c 4
 144.247395834 37.064453125 161.426432292 39.8359375 182.546875 45.37890625 c 4
 195.515625 49.1263020833 212.194986979 58.1087239583 232.584960938 72.326171875 c 4
 294.861653646 117.442057292 326.148111979 165.659505208 326.444335938 216.978515625 c 4
 326.148111979 262.979166667 287.837565104 285.979492188 211.512695312 285.979492188 c 4
 211.444335938 285.979492188 l 4
 211.319335938 285.979492188 l 4xb4
 179.075846354 285.979492188 151.025065104 280.701822917 127.166992188 270.146484375 c 4
 102.388997396 259.382161458 84.7311197917 253.992838542 74.193359375 253.978515625 c 4
 68.7311197917 253.992838542 64 254.666666667 60 256 c 4
 56 257.333333333 52.8333333333 259.333333333 50.5 262 c 4
 48.1666666667 264.666666667 46.3333333333 267.833333333 45 271.5 c 4
 43.9088541667 274.5 43.36328125 277.730794271 43.36328125 281.192382812 c 4
 43.36328125 281.961263021 43.3902994792 282.741536458 43.4443359375 283.533203125 c 4
 43.8147786458 291.844401042 47.8147786458 312.277669271 55.4443359375 344.833007812 c 4
 65.8147786458 386.944335937 92.420247396 451.433919271 135.260742188 538.301757812 c 5
 138.400065104 544.063476563 142.855143229 546.944335938 148.625976562 546.944335938 c 4
 148.737304688 546.944335938 l 4
 148.834960937 546.946289063 148.932617187 546.947265625 149.030273438 546.947265625 c 4
 151.118164063 546.947265625 153.313476563 546.569661458 155.616210938 545.814453125 c 4
 159.205403646 543.938151042 162.612955729 542.305989583 165.838867188 540.91796875 c 4
 167.279622396 540.305989583 168.666666667 539 170 537 c 4
 170.585286459 536.121744792 170.877929688 535.435221355 170.877929688 534.940429688 c 4
 170.877929688 534.306966146 170.400065105 533.986328125 169.444335938 533.978515625 c 4
 169.42578125 533.978515625 l 4
 169.141927083 533.978515625 169 533.65234375 169 533 c 4
 169 532.333333333 168.833333333 531.666666667 168.5 531 c 4
 168.166666667 530.333333333 167.833333333 529.5 167.5 528.5 c 4
 167.166666667 527.5 166.666666667 526.333333333 166 525 c 4
 165.333333333 523.666666667 164.591796875 522.45703125 163.775390625 521.37109375 c 4
 163.258463542 520.45703125 162.420247396 518.809570313 161.260742188 516.428710938 c 4
 160.420247396 514.142903646 159.452148437 512.220377604 158.356445312 510.661132812 c 4
 150.785481771 496.220377604 145.330403646 485.275716146 141.991210938 477.827148438 c 4
 103.247721354 399.786132813 83.8759765625 343.799479167 83.8759765625 309.8671875 c 4
 83.8759765625 309.35546875 83.8805338542 308.848632813 83.8896484375 308.346679688 c 4
 83.9632161458 304.115559896 84.224609375 300.358398437 84.673828125 297.075195312 c 4
 84.8639322917 295.864257812 85.3020833333 295.258789062 85.98828125 295.258789062 c 4
 86.0859375 295.258789062 86.1888020833 295.271158854 86.296875 295.295898438 c 4
 86.4739583333 295.221679687 86.6318359375 295.184570312 86.7705078125 295.184570312 c 4
 86.9990234375 295.184570312 87.17578125 295.285807291 87.30078125 295.48828125 c 4xcc
EndSplineSet
EndChar

StartChar: c
Encoding: 99 99 37
Width: 351
VWidth: 965
Flags: HW
HStem: 1.20952 37.8833<116.429 239.991> 285.163 37.5355<137.023 254.833>
VStem: 27.2207 41.0312<81.6024 210.218>
LayerCount: 2
Fore
SplineSet
165.555664062 317.20703125 m 0
 183.227801157 320.868074492 199.591261943 322.698596112 214.64604642 322.698596112 c 0
 223.696640422 322.698596112 232.274260365 322.037019804 240.37890625 320.713867188 c 0
 248.126302083 319.571289063 252.975585937 317.267252604 254.926757812 313.801757812 c 0
 259.642252604 305.933919271 260.716145833 297.9609375 258.1484375 289.8828125 c 0
 257.3828125 287.9609375 256.810221354 286.349609375 256.430664062 285.048828125 c 0
 255.557801714 282.517562384 250.811724981 281.251929513 242.192433863 281.251929513 c 0
 234.810270147 281.251929513 224.586945839 282.180322801 211.522460938 284.037109375 c 0
 206.507486979 284.679036458 201.052408854 285.054361979 195.157226562 285.163085938 c 0
 191.719075521 285.054361979 188.099934896 284.915039063 184.299804688 284.745117188 c 0
 144.099934896 280.248372396 112.715169271 256.683919271 90.1455078125 214.051757812 c 0
 75.3818359375 186.683919271 68.083984375 161.632486979 68.251953125 138.897460938 c 0
 68.083984375 110.299153646 78.9381510417 87.0159505208 100.814453125 69.0478515625 c 0
 104.938151042 65.6826171875 109.438802083 62.3359375 114.31640625 59.0078125 c 0
 134.772135417 45.6692708333 156.672851563 39.0309244792 180.018554688 39.0927734375 c 1
 212.006184896 39.0309244792 240 46.7490234375 264 62.2470703125 c 0
 282 73.4156901042 297.333333333 90 310 112 c 5
 312.666666667 98.6666666667 303.666666667 79.5 283 54.5 c 0
 272.333333333 42.1666666667 260.333333333 32.0095499857 247 24.0286499572 c 0
 222.176206486 8.81589473196 196.312522454 1.20951711934 169.408947905 1.20951711934 c 0
 160.908985059 1.20951711934 152.305221175 1.96877964206 143.59765625 3.4873046875 c 0
 133.865885417 5.16243489583 125.263997396 7.71484375 117.791992188 11.14453125 c 0
 88.5973307293 24.3815104167 66.4085286458 41.1595052083 51.2255859375 61.478515625 c 0
 34.4085286458 84.4928385417 26.4069010417 112.487630208 27.220703125 145.462890625 c 1
 39.0735677083 243.154296875 85.185221354 300.40234375 165.555664062 317.20703125 c 0
EndSplineSet
EndChar

StartChar: d
Encoding: 100 100 38
Width: 392
VWidth: 965
Flags: HW
HStem: 1.16113 37.1562<68.1137 125.06> 244.442 35.5127<125.335 201.51> 666.575 20G<395.628 404.056>
VStem: 24.5117 38.4893<40.6228 174.029> 215.573 47.5176<142.572 233.394> 234.7 28.3906<295.386 351.474> 392.645 26.5469<591.239 663.181>
LayerCount: 2
Fore
SplineSet
244.453125 331.68359375 m 4xf6
 255.885416667 392.26171875 271.155598958 450.411458333 290.263671875 506.1328125 c 4
 309.37109375 561.854817708 329.635091146 606.620768229 351.055664062 640.430664062 c 4
 370.544596354 671.193684895 387.958333333 686.575195312 403.296875 686.575195312 c 4
 404.815755208 686.575195312 406.314778645 686.424153645 407.793945312 686.122070312 c 5
 415.392252604 681.455403645 419.19140625 671.151367187 419.19140625 655.209960938 c 4
 419.19140625 640.511393229 415.961914063 621.020507813 409.502929688 596.737304688 c 4
 396.039388021 546.116210937 378.208658855 493.984375 356.010742188 440.341796875 c 4
 333.814127604 386.69921875 312.560872395 332.826497396 292.250976562 278.723632812 c 4
 272.810872395 226.937825521 263.090820312 192.636393229 263.090820312 175.819335938 c 4xfa
 263.090820312 175.066731771 263.110351562 174.348958334 263.149414062 173.666015625 c 4
 264.128580729 156.505859375 265.669270833 143.239583333 267.771484375 133.8671875 c 4
 269.873697917 124.494791667 275.786132813 113.953450521 285.508789062 102.243164062 c 4
 295.232747395 90.5335286457 309.356445312 80.5602213542 327.879882812 72.3232421875 c 4
 333.413085937 69.8623046875 336.1796875 67.7327473958 336.1796875 65.9345703125 c 4
 336.1796875 64.1110026042 333.333007813 62.6285807292 327.639648438 61.4873046875 c 4
 323.977539063 60.7535807292 320.220377604 60.38671875 316.368164062 60.38671875 c 4
 304.732747395 60.38671875 292.229492187 63.7353515625 278.858398438 70.4326171875 c 4
 260.521158854 79.6181640625 245.477213541 101.630533854 233.7265625 136.469726562 c 5
 213.357421875 105.009765625 l 6
 198.547526042 82.1354166667 186.478515625 65.8616536458 177.150390625 56.1884765625 c 4
 165.381510416 44.1656901042 155.513020833 34.6728515625 147.544921875 27.7099609375 c 4
 139.578125 20.7457682292 128.164713541 14.0227864583 113.3046875 7.541015625 c 4
 103.553385417 3.28776041667 94.2008463542 1.1611328125 85.2470703125 1.1611328125 c 4
 80.5576171875 1.1611328125 75.9778645833 1.74446614583 71.5078125 2.9111328125 c 4
 41.7734375 14.3531901042 26.1080729167 43.6142578125 24.51171875 90.6943359375 c 4
 24.4088541667 93.7145182292 24.357421875 96.6975911458 24.357421875 99.6435546875 c 4
 24.357421875 126.02766927 28.4654947917 149.445638021 36.681640625 169.897460938 c 4
 48.5677083333 199.487304687 66.1624348958 224.624023437 89.4658203125 245.307617188 c 4
 112.768554688 265.989257813 139.437174479 277.538411458 169.471679688 279.955078125 c 4
 191.348632813 279.490234375 213.091471354 268.861002604 234.700195312 248.067382812 c 5
 235.803059896 271.083658854 239.054036459 298.955729167 244.453125 331.68359375 c 4xf6
392.264648438 648.84375 m 5
 369.269856771 617.942708333 347.157877605 573.229492187 325.928710938 514.704101562 c 4
 304.699544271 456.178059895 289.055989584 405.114257812 278.998046875 361.512695312 c 4
 271.184895833 327.640299479 267.278320312 306.777994791 267.278320312 298.92578125 c 4
 267.278320312 296.670572917 267.600585937 295.488606771 268.245117188 295.379882812 c 4
 351.178059896 500.537434896 392.64453125 617.083984375 392.64453125 645.01953125 c 4
 392.64453125 646.56640625 392.517903646 647.841145833 392.264648438 648.84375 c 5
215.569335938 199.884765625 m 4
 213.456054687 213.638020834 205.742513021 225.286783855 192.428710938 234.831054688 c 4
 183.492513021 241.238606771 174.355143229 244.442382812 165.016601562 244.442382812 c 4
 160.443033854 244.442382812 155.822265625 243.674479166 151.154296875 242.138671875 c 4
 139.388671875 238.267578125 127.099609375 229.848958333 114.287109375 216.8828125 c 4
 101.473307292 203.915364583 91.1194661458 190.588216146 83.2255859375 176.901367188 c 4
 70.0569661458 154.068684896 63.3193359375 127.162434896 63.0126953125 96.1826171875 c 4
 63.0048828125 95.3414713542 63.0009765625 94.509765625 63.0009765625 93.6875 c 4
 63.0009765625 56.7740885417 71.36328125 38.3173828125 88.087890625 38.3173828125 c 4
 95.3294270833 38.3173828125 104.139322917 41.7776692708 114.517578125 48.6982421875 c 4
 145.21875 69.1754557292 173.170247396 103.412760417 198.372070312 151.41015625 c 5
 212.114257812 183.760742188 l 6
 214.420247396 191.638346355 215.573242188 196.918294271 215.573242188 199.600585938 c 4
 215.573242188 199.699544271 215.571940105 199.794270834 215.569335938 199.884765625 c 4
EndSplineSet
Substitution2: "Single Substitution lookup 3 subtable" d.ss01
Substitution2: "Single Substitution lookup 2 subtable" d.ss01
EndChar

StartChar: e
Encoding: 101 101 39
Width: 316
VWidth: 965
Flags: HW
HStem: -0.0253906 34.0475<112.804 249.597> 136 32.9043<65 124.006> 264.274 36.6625<110.776 187.806>
VStem: 19.8566 43.5232<78.9346 136 168.904 219.651> 188 34.25<223.238 263.424>
LayerCount: 2
Fore
SplineSet
188 254 m 4
 188 260.849609375 177.486979167 264.274414062 156.4609375 264.274414062 c 4
 135.434895833 264.274414062 114.664713542 253.151692708 94.150390625 230.90625 c 4
 73.63671875 208.660807292 63.3798828125 188.842773438 63.3798828125 171.452148438 c 4
 63.3798828125 170.598632813 63.40234375 169.749348958 63.447265625 168.904296875 c 5
 100.346354167 168.99609375 134.350260417 185.081054688 165.458984375 217.159179688 c 4
 180.486328125 232.476236979 188 244.756510417 188 254 c 4
293.620117188 77.91796875 m 5
 293.873372396 77.97265625 294 77.6666666667 294 77 c 4
 294 53.6666666667 281.895833333 34.966796875 257.6875 20.900390625 c 4
 233.229166667 6.966796875 206.954427083 -0.00846354166667 178.86328125 -0.025390625 c 4
 94.9544270833 1.32486979167 43.845703125 38.0455729167 25.537109375 110.13671875 c 4
 21.7501253232 125.226399803 19.8566332973 139.6424276 19.8566332973 153.384802141 c 0
 19.8566332973 184.487946965 29.5561149066 212.140278543 48.955078125 236.341796875 c 4
 79.6516927083 274.780598958 115.668945313 296.067708333 157.006835938 300.203125 c 4
 162.069377475 300.692296074 166.838219222 300.93688161 171.31336118 300.93688161 c 0
 202.566934716 300.93688161 222.25 288.487490939 222.25 262.070312501 c 0
 222.25 252.481770834 218.166666667 239.958333334 210 224.5 c 4
 202 208.833333333 191.007486979 194.674804687 177.022460938 182.024414062 c 4
 143.674153646 151.341471354 106.333333333 136 65 136 c 5
 65.6666666667 110.666666667 75.1666666667 87.3333333333 93.5 66 c 4
 111.833333333 44.6666666667 139.827473958 34.0152994792 177.482421875 34.0458984375 c 28
 177.663085938 34.0458984375 l 5
 179.048654524 34.0300323002 180.422708219 34.0220992315 181.785247023 34.0220992315 c 0
 240.301899509 34.0220992315 277.580189564 48.6540557377 293.620117188 77.91796875 c 5
EndSplineSet
Substitution2: "Single Substitution lookup 7 subtable" e.ss03
Substitution2: "Single Substitution lookup 6 subtable" e.ss03
Substitution2: "Single Substitution lookup 5 subtable" e.ss02
Substitution2: "Single Substitution lookup 4 subtable" e.ss02
Substitution2: "Single Substitution lookup 3 subtable" e.ss01
Substitution2: "Single Substitution lookup 2 subtable" e.ss01
EndChar

StartChar: f
Encoding: 102 102 40
Width: 394
VWidth: 965
Flags: HW
HStem: 200.537 37.1587<66.7155 122.054> 323.243 41.8986<194.357 289.629> 623.869 43.8806<320.025 375.328>
VStem: 20.002 46.2009<139.859 198.691> 98.7412 39.311<-199.179 75.4821> 376.966 31.1055<477.019 622.623>
LayerCount: 2
Fore
SplineSet
362.028320312 667.74609375 m 4
 372.400065104 667.501302083 380.821940104 663.289713542 387.293945312 655.111328125 c 4
 394.261393229 646.305338542 399.877278646 636.496744792 404.141601562 625.685546875 c 4
 408.402018229 614.888020833 411.313476562 603.102213541 412.875976562 590.328125 c 4
 414.105143229 580.28515625 414.599934895 570.1953125 414.360351562 560.05859375 c 4
 413.992513021 544.50390625 411.896158854 528.841796875 408.071289062 513.072265625 c 4
 406.809570313 507.871744792 405.384440105 502.687174479 403.795898438 497.518554688 c 4
 402.208007813 492.350585937 400.45703125 487.199869791 398.54296875 482.06640625 c 4
 396.628255209 476.932942709 394.55078125 471.816080729 392.310546875 466.715820312 c 4
 390.069661458 461.615559896 387.666666667 456.532877605 385.1015625 451.467773438 c 4
 382.535807292 446.402669271 379.806966146 441.354817709 376.915039062 436.32421875 c 4
 362.447591146 411.150390625 345.627604167 389.444010416 326.455078125 371.205078125 c 4
 316.836588542 362.0546875 306.486979167 354.115559896 295.40625 347.387695312 c 4
 284.326171875 340.659179687 272.521158854 335.145833333 259.991210938 330.84765625 c 4
 245.21492056 325.777897868 230.411857301 323.243018676 215.58202116 323.243018676 c 0
 214.557738181 323.243018676 213.533327482 323.25511141 212.508789062 323.279296875 c 4
 207.920898437 323.388020833 203.295247396 323.747721354 198.631835938 324.358398438 c 4
 194.303059896 324.926106771 189.930338542 325.7109375 185.513671875 326.712890625 c 4
 184.936848958 325.25 184.22265625 322.700846355 183.37109375 319.065429688 c 4
 182.827473958 316.749674479 182.230794271 314.012695313 181.581054688 310.854492188 c 4
 180.930664063 307.695638021 180.227539063 304.118815105 179.471679688 300.124023438 c 4
 177.958658855 292.129231771 176.211588542 282.273111979 174.23046875 270.555664062 c 4
 174.037109375 269.410481771 173.841471355 268.247070313 173.643554688 267.065429688 c 4
 173.445638021 265.883138021 173.24609375 264.687174479 173.044921875 263.477539062 c 4
 172.84375 262.267903646 172.640299479 261.041992188 172.434570312 259.799804688 c 4
 172.229492187 258.556966146 172.023111979 257.30078125 171.815429688 256.03125 c 4
 171.607096355 254.762369792 171.397460938 253.478515625 171.186523438 252.1796875 c 4
 170.975585938 250.880859375 170.762695313 249.569661458 170.547851562 248.24609375 c 4
 170.334309895 246.921875 170.119140625 245.585286458 169.90234375 244.236328125 c 4
 169.686197917 242.88671875 169.468424479 241.525390625 169.249023438 240.15234375 c 4
 169.029622396 238.779296875 168.809570313 237.395182292 168.588867188 236 c 4
 168.367513021 234.604817708 168.144856771 233.198567708 167.920898438 231.78125 c 4
 174.234049479 229.860026041 180.121744792 228.051106771 185.583984375 226.354492188 c 4
 191.046223958 224.657226563 196.166341146 223.046875 200.944335938 221.5234375 c 4
 205.722330729 220 210.272786458 218.526692708 214.595703125 217.103515625 c 4
 227.572916667 212.833333334 237.78125 209.237955729 245.220703125 206.317382812 c 4
 250.213541667 204.357747396 255.723632813 201.971679688 261.750976562 199.159179688 c 4
 267.777669271 196.347330729 274.318684896 193.110351563 281.374023438 189.448242188 c 4
 288.428059896 185.786132813 296.00390625 181.696289063 304.1015625 177.178710938 c 6
 304.637695312 176.7421875 l 5
 307.380859375 172.030273438 l 6
 308.146484375 170.138346354 308.820638021 167.860026041 309.403320312 165.1953125 c 4
 309.402018229 164.882161459 309.384440105 164.684570313 309.350585938 164.602539062 c 6
 308.920898438 163.551757812 l 6
 308.841471354 163.359049479 308.71484375 163.206054687 308.541015625 163.092773438 c 4
 307.435546875 162.372721354 306.217122396 161.452148437 304.885742188 160.331054688 c 4
 303.542643229 159.199544271 302.095703125 157.871744791 300.544921875 156.34765625 c 4
 296.087239584 151.966796875 291.9609375 149.820963542 288.166015625 149.91015625 c 4
 287.313151042 149.930338542 286.461263021 150.076497396 285.610351562 150.348632812 c 4
 284.758138021 150.620768229 283.912109375 151.013346355 283.072265625 151.526367188 c 4
 267.215494792 158.047851563 252.1640625 163.877604167 237.91796875 169.015625 c 4
 223.649088542 174.162109375 210.229817709 178.599934895 197.66015625 182.329101562 c 4
 185.211588542 186.023111979 173.533528646 189.031575521 162.625976562 191.354492188 c 5
 148.830403646 91.6832682293 140.843098959 -4.24772135417 138.6640625 -96.4384765625 c 4
 138.303385417 -111.687825521 138.102213542 -126.938802083 138.060546875 -142.19140625 c 4
 138.054991319 -144.210069448 138.052213542 -146.225410886 138.052213542 -148.237430565 c 0
 138.052213542 -161.315558456 138.169574653 -174.253342018 138.404296875 -187.05078125 c 4
 139.037109375 -188.517578125 139.469401042 -189.724609375 139.701171875 -190.671875 c 4
 139.96875 -191.762369792 140.089192708 -192.875 140.0625 -194.009765625 c 4
 139.895833333 -201.067057292 133.385091146 -204.713541667 120.530273438 -204.94921875 c 4
 119.286783854 -204.972005209 118.098958333 -204.970052084 116.966796875 -204.943359375 c 4
 107.947916666 -204.73046875 102.419596354 -202.834635417 100.381835938 -199.255859375 c 4
 99.623372396 -197.624348958 99.0846354167 -195.847330729 98.765625 -193.924804688 c 4
 98.4466145833 -192.001627604 98.314453125 -189.879882812 98.369140625 -187.559570312 c 4
 98.40625 -185.978841145 98.5302734375 -184.30078125 98.7412109375 -182.525390625 c 6
 100.232421875 -85.3251953125 l 6
 100.218098958 -75.3401692708 100.334635417 -65.1136067708 100.58203125 -54.6455078125 c 4
 101.001302083 -36.9222005208 101.805338542 -18.3658854167 102.994140625 1.0234375 c 5
 98.6158854167 27.2252604167 89.1044921875 53.2574869792 74.4599609375 79.1201171875 c 4
 71.4729817708 84.3955078125 68.7548828125 89.2122395833 66.3056640625 93.5703125 c 4
 63.8564453125 97.9290364587 61.6591796875 101.858398438 59.7138671875 105.358398438 c 4
 57.7692057292 108.858398438 56.0875651042 111.91015625 54.6689453125 114.513671875 c 4
 53.2490234375 117.120442708 52.0843098958 119.29296875 51.1748046875 121.03125 c 6
 49.2080078125 124.96484375 l 6
 47.3128255208 129.126302083 44.2014973958 135.57421875 39.8740234375 144.30859375 c 4
 37.6975911458 148.700520833 35.7867838542 152.658203125 34.1416015625 156.181640625 c 4
 33.3186848958 157.9453125 32.5618489583 159.600585938 31.87109375 161.147460938 c 4
 31.1796875 162.694986979 30.5546875 164.135742187 29.99609375 165.469726562 c 4
 28.8795572917 168.134440104 27.7360026042 171.053710937 26.5654296875 174.227539062 c 4
 25.3961588542 177.402018229 24.19921875 180.832682291 22.974609375 184.51953125 c 4
 20.8756510417 190.843098958 19.884765625 196.485351562 20.001953125 201.446289062 c 4
 20.1686197917 208.499674479 22.5481770833 214.169921875 27.140625 218.45703125 c 4
 34.6725260417 225.490885417 48.4860026042 230.496419271 68.5810546875 233.473632812 c 4
 87.5765800839 236.288432825 102.160632359 237.695832832 112.333211514 237.695832832 c 0
 112.75782184 237.695832832 113.174746126 237.693380741 113.583984375 237.688476562 c 4
 115.520182292 237.665039062 117.291015625 237.667643229 118.896484375 237.696289062 c 4
 120.502604166 237.724283854 121.940755208 237.778320313 123.2109375 237.858398438 c 6
 127.1875 238.262695312 l 5
 147.153320312 340.668945312 l 5
 146.559570312 341.166015625 l 6
 146.294596354 341.374348958 145.987955729 341.595703125 145.639648438 341.830078125 c 4
 145.291341146 342.065104167 144.903645833 342.310546875 144.4765625 342.56640625 c 4
 143.208333333 343.326171875 141.524414063 344.423502605 139.424804688 345.858398438 c 4
 138.379882813 346.573242187 137.226888021 347.374674479 135.965820312 348.262695312 c 4
 134.705403645 349.150065104 133.336914062 350.124674479 131.860351562 351.186523438 c 4
 129.829752604 352.646809896 128.076822917 354.051757813 126.6015625 355.401367188 c 6
 122.875976562 359.470703125 l 6
 122.370768229 360.156901042 121.9375 360.838216146 121.576171875 361.514648438 c 4
 121.213541666 362.191731771 120.923502604 362.865559896 120.706054688 363.536132812 c 4
 120.004882812 368.068359375 l 6
 120.153971354 374.810546875 123.4453125 382.342447917 129.87890625 390.6640625 c 4
 131.151692709 392.30859375 132.626302084 393.111002604 134.302734375 393.071289062 c 4
 136.190755208 392.749023437 139.090169271 391.364583333 143.000976562 388.91796875 c 4
 144.839518229 387.768229167 146.574544271 386.696614583 148.206054688 385.703125 c 4
 149.836914063 384.709635417 151.291992187 383.837890625 152.571289062 383.087890625 c 4
 153.849934895 382.337239583 154.976888021 381.690429687 155.952148438 381.147460938 c 4
 156.926106771 380.605794271 157.729817709 380.178059896 158.36328125 379.864257812 c 5
 160.376953125 387.986002604 162.528971354 395.943684896 164.819335938 403.737304688 c 4
 167.109700521 411.530924479 169.583007812 419.317382813 172.239257812 427.096679688 c 4
 177.655273437 442.958007813 183.777669271 458.592447917 190.606445312 474 c 4
 197.435872396 489.408854167 205.013997396 504.699544271 213.340820312 519.872070312 c 4
 238.431966145 565.593424479 264.436197916 601.670898437 291.353515625 628.104492188 c 4
 304.868489583 641.375976563 317.496744791 651.321940104 329.23828125 657.942382812 c 4
 340.835585369 664.480636049 351.574802493 667.749762668 361.45593262 667.749762668 c 0
 361.647049526 667.749762668 361.837845424 667.748539695 362.028320312 667.74609375 c 4
376.993164062 596.4765625 m 4
 374.879882813 605.71484375 372.056315105 612.594726563 368.522460938 617.116210938 c 4
 365.090820313 621.506184896 361.009765625 623.757161458 356.279296875 623.869140625 c 4
 355.077473958 623.897135416 353.817057292 623.790364583 352.498046875 623.548828125 c 4
 351.177734375 623.307291667 349.799804687 622.928059896 348.364257812 622.411132812 c 4
 345.468424479 621.369466145 342.361979166 619.76171875 339.044921875 617.587890625 c 4
 301.039713542 589.626953125 269.5390625 551.879882813 244.54296875 504.346679688 c 4
 219.930338542 457.545898437 203.149414063 411.788736979 194.200195312 367.075195312 c 5
 196.599283854 366.699544271 198.978515625 366.377278646 201.337890625 366.108398438 c 4
 203.697916667 365.840169271 206.039388021 365.625651042 208.362304688 365.46484375 c 4
 210.685221355 365.303385417 212.992513021 365.195638021 215.284179688 365.141601562 c 4
 216.445345812 365.114150726 217.60226491 365.100425308 218.75493698 365.100425308 c 0
 235.289634806 365.100425308 250.950424043 367.924697601 265.737304688 373.573242188 c 4
 273.647460937 376.594726563 281.315429687 380.427734375 288.741210938 385.072265625 c 4
 296.165690105 389.716796875 303.350260417 395.175455729 310.294921875 401.448242188 c 4
 327.099609375 416.627278646 340.942382813 434.713216146 351.823242188 455.706054688 c 4
 355.451497396 462.707356771 358.750651042 470.033528645 361.720703125 477.684570312 c 4
 364.690755208 485.336263021 367.332682292 493.316080729 369.646484375 501.624023438 c 4
 371.959635417 509.932617187 373.943033855 518.567057291 375.596679688 527.52734375 c 4
 376.097981771 530.244140625 376.554361979 532.915039062 376.965820312 535.540039062 c 4
 377.791992187 540.807617187 378.438151042 545.892252604 378.904296875 550.793945312 c 4
 379.370442708 555.694335937 379.656901042 560.41015625 379.763671875 564.94140625 c 4
 379.902994792 570.815755209 379.740885417 576.383463542 379.27734375 581.64453125 c 4
 379.046223958 584.271484375 378.739908854 586.821289063 378.358398438 589.293945312 c 4
 377.978190105 591.765950521 377.523111979 594.16015625 376.993164062 596.4765625 c 4
339.044921875 617.587890625 m 5
 339.044921875 617.587890625 l 5
338.473632812 618.409179688 m 1029
122.106445312 197.920898438 m 5
 121.013346354 198.646809896 117.998372396 199.335611979 113.061523438 199.987304688 c 4
 110.478190105 200.328450521 107.869140625 200.51171875 105.234375 200.537109375 c 4
 102.600911459 200.5625 99.938151042 200.428710937 97.24609375 200.135742188 c 4
 94.5546875 199.842122396 91.8349609375 199.389648437 89.0869140625 198.778320312 c 4
 86.3401692708 198.166341145 83.5625 197.393229166 80.75390625 196.458984375 c 4
 79.3489583333 195.991536458 77.9375 195.483723958 76.51953125 194.935546875 c 4
 75.1009114583 194.388020833 73.6751302083 193.799804687 72.2421875 193.170898438 c 4
 70.3997395833 192.363606771 68.970703125 190.851888021 67.955078125 188.635742188 c 4
 66.7931257125 186.102316604 66.2028899444 182.347818194 66.2028899444 177.9943182 c 0
 66.2028899444 163.852247182 71.7983459004 140.811823408 82.9892578125 108.873046875 c 4
 89.1500651042 91.2923177083 94.2613932292 76.201171875 98.3232421875 63.599609375 c 4
 99.1025390625 61.1842447917 99.8473307293 58.8453776042 100.557617188 56.5830078125 c 4
 101.267903646 54.3199869792 101.934570313 52.1650390625 102.557617188 50.1181640625 c 4
 103.180664063 48.0719401042 103.762695313 46.1276041667 104.303710938 44.28515625 c 4
 104.843424479 42.443359375 105.341145833 40.7080078125 105.796875 39.0791015625 c 5
 108.317708333 67.7724609375 113.698567708 120.204752604 121.939453125 196.375976562 c 6
 122.106445312 197.920898438 l 5
EndSplineSet
EndChar

StartChar: g
Encoding: 103 103 41
Width: 307
VWidth: 965
Flags: HW
HStem: -203.835 38.958<163.426 213.155> 301 26.2539<153.331 184.591>
VStem: 24.873 58.4609<9.24175 72.2261> 24.873 37.4004<-48.2089 53.3395> 113.881 32.1191<239.562 296.433> 192 33.9912<238.766 297.297> 219.993 36.0029<-162.621 -17.5102>
LayerCount: 2
Fore
SplineSet
146 268 m 4xcc
 146 259.333333333 149.333333333 251.666666667 156 245 c 4
 162.666666667 238.333333333 167 235 169 235 c 4
 171 235 175.333333333 238.333333333 182 245 c 4
 188.666666667 251.666666667 192 259.333333333 192 268 c 4
 192 276.666666667 188.666666667 284.333333333 182 291 c 4
 175.333333333 297.666666667 171 301 169 301 c 4
 167 301 162.666666667 297.666666667 156 291 c 4
 149.333333333 284.333333333 146 276.666666667 146 268 c 4xcc
208 313 m 4
 219.994140625 302.096354167 225.991210938 289.475260417 225.991210938 275.13671875 c 4xcc
 225.991210938 263.174479167 221.817382813 250.016927083 213.469726562 235.6640625 c 4
 207.032226562 224.625651041 197.115234375 213.573242187 183.71875 202.506835938 c 4
 183.90625 202.168945313 196.421875 156.501302083 221.265625 65.50390625 c 4
 244.419270833 -18.697265625 255.99609375 -82.9586588543 255.99609375 -127.280273438 c 4
 255.99609375 -161.741210938 248.997395833 -184.147786459 235 -194.5 c 4
 226.585286459 -200.723307292 217.260091146 -203.834960938 207.024414062 -203.834960938 c 4
 178.335611979 -203.834960938 142.494140625 -179.389973959 99.5 -130.5 c 4
 49.7486979167 -73.92578125 24.873046875 -23.8987630208 24.873046875 19.5810546875 c 4
 24.873046875 27.0810546875 25.61328125 34.3863932292 27.09375 41.4970703125 c 4
 31.6126302083 64.7281901042 44.6315104167 76.34375 66.150390625 76.34375 c 4
 66.5559895833 76.34375 66.9645182292 76.3395182292 67.3759765625 76.3310546875 c 4
 77.7919921875 76.1103515625 83.111328125 71.5608723958 83.333984375 62.6826171875 c 4xea
 83.111328125 56.8942057292 79.5 49.3333333333 72.5 40 c 4
 65.6822916667 30.9095052083 62.2734375 20.4729817708 62.2734375 8.6904296875 c 4
 62.2734375 8.3759765625 62.2757161458 8.060546875 62.2802734375 7.744140625 c 4
 62.2796223958 7.60677083333 62.279296875 7.46907552083 62.279296875 7.3310546875 c 4
 62.279296875 -21.7718098958 81.8828125 -59.015299479 121.08984375 -104.399414062 c 4
 157.83984375 -144.717773437 183.980794271 -164.876953125 199.512695312 -164.876953125 c 4
 203.396158854 -164.876953125 206.616536458 -163.616210937 209.173828125 -161.094726562 c 4
 216.38671875 -154.541992187 219.993164062 -141.533528646 219.993164062 -122.069335938 c 4xda
 219.993164062 -87.8779296877 208.864257812 -33.765625 186.606445312 40.267578125 c 4
 160.868815104 125.422526042 146.5 173.166666667 143.5 183.5 c 4
 140.5 193.833333333 137.144856771 202.890950521 133.434570312 210.672851562 c 4
 120.398763021 235.279622395 113.880859375 256.145182291 113.880859375 273.26953125 c 4
 113.880859375 291.556640625 121.314127604 305.577148437 136.180664062 315.331054688 c 4
 148.043945313 323.279622396 159.703125 327.25390625 171.158203125 327.25390625 c 4
 183.682942708 327.25390625 195.963541667 322.502604167 208 313 c 4
EndSplineSet
Substitution2: "Single Substitution lookup 3 subtable" g.ss01
Substitution2: "Single Substitution lookup 2 subtable" g.ss01
EndChar

StartChar: h
Encoding: 104 104 42
Width: 375
VWidth: 965
Flags: HW
HStem: 1.51074 53.0537<74.1618 108.788> 647.601 20G<190.811 200.513>
VStem: 32.3096 41.833<55.645 210.802> 173.098 45.7861<584.485 667.424>
LayerCount: 2
Fore
SplineSet
211.504882812 139.977539062 m 4
 179.168294271 91.9925130207 149.868489583 57.0319010417 123.60546875 35.095703125 c 4
 97.3424479167 13.1588541667 75.9547526042 1.9638671875 59.4423828125 1.5107421875 c 4
 53.6722005208 1.35188802083 47.5569661458 4.9873046875 41.0966796875 12.4169921875 c 4
 35.2386067708 19.1559244792 32.3095703125 37.5641276042 32.3095703125 67.6416015625 c 4
 32.3095703125 153.594726562 77.3385416667 334.397460937 167.396484375 610.049804688 c 4
 169.581380208 616.734700521 171.481770833 622.46484375 173.09765625 627.240234375 c 4
 182.205729167 654.147135417 188.785481771 667.600585938 192.836914062 667.600585938 c 4
 208.188476562 667.533528646 216.870768229 661.495117187 218.883789062 649.485351562 c 4
 218.883789062 647.453450521 216.531575521 639.398111979 211.827148438 625.319335938 c 4
 197.284179687 581.798502605 181.110677083 532.371744792 163.306640625 477.0390625 c 4
 140.391276042 405.813802083 119.560872396 329.672526042 100.815429688 248.615234375 c 4
 83.0335035287 171.738549503 74.1425404491 115.472479032 74.1425404491 79.8170229593 c 0
 74.1425404491 77.028659506 74.1969149869 74.3663445609 74.3056640625 71.830078125 c 4
 74.7767692568 60.31967539 77.979434269 54.5644740226 83.9136590993 54.5644740226 c 0
 100.605372051 54.5644740226 138.908566414 100.098321223 198.823242188 191.166015625 c 4
 199.138346355 191.727213542 200.666341146 194.551106771 203.407226562 199.637695312 c 4
 207.950846354 208.066731771 214.254557292 212.28125 222.318359375 212.28125 c 4
 225.134114584 212.28125 228.188151042 211.779947917 231.48046875 210.77734375 c 4
 236.508463542 209.294921875 240.059570313 202.310872396 242.133789062 189.825195312 c 4
 249.377929687 151.275065104 264.010416667 116.6875 286.03125 86.0625 c 4
 321.835286459 38.7037760417 339.737304688 12.5218098958 339.737304688 7.5166015625 c 4
 339.737304688 0.527669270833 333.940755209 -3.41341145833 322.34765625 -4.306640625 c 4
 321.306640625 -4.11653645833 317.397460937 -3.12630208333 310.620117188 -1.3359375 c 4
 303.128580729 0.642578125 298.705078125 2.501953125 297.349609375 4.2421875 c 4
 258.5625 54.0045572917 231.102213541 99.0992838543 214.96875 139.526367188 c 4
 214.434895833 140.866861979 213.520833333 141.217773437 212.2265625 140.579101562 c 4
 212.001302083 140.557617187 211.760742187 140.357096354 211.504882812 139.977539062 c 4
EndSplineSet
Substitution2: "Single Substitution lookup 3 subtable" h.ss01
Substitution2: "Single Substitution lookup 2 subtable" h.ss01
EndChar

StartChar: i
Encoding: 105 105 43
Width: 149
VWidth: 965
Flags: HW
HStem: 299.175 20G<74.5568 78.5258>
VStem: 28.7733 56.0795<11.0423 92.0896> 28.7733 41.1738<11.0423 243.05>
LayerCount: 2
Fore
SplineSet
74.0062385829 426.362110729 m 2x80
 78.4730073458 423.731898656 83.0620875321 420.352668759 87.773479142 416.22442104 c 2
 91.7581830323 412.641464481 l 2
 102.811283435 402.518112656 109.728198564 395.827143148 112.50892842 392.568555959 c 0
 114.530797335 390.199797768 114.213398617 387.453497851 111.556732264 384.329656206 c 0
 110.494400745 383.081634959 109.117129236 382.153195322 107.424917735 381.544337296 c 0
 99.4679214753 379.617054717 91.433913878 379.497952239 83.3228949433 381.187029864 c 0
 79.1953600105 382.046053483 75.2565398444 383.335244186 71.506434445 385.054601973 c 0
 64.0012037565 388.493859867 57.3903318529 393.596463395 51.6738187342 400.362412558 c 0
 50.2155623961 402.087301973 49.12573946 403.9228034 48.404349926 405.868916839 c 0
 47.682960392 407.815030278 47.322265625 409.889974665 47.322265625 412.09375 c 0
 47.322265625 416.52582627 48.782595272 420.384696788 51.7032545661 423.670361554 c 0
 55.7829476807 428.257103993 61.2506593591 429.885583589 68.1063896014 428.555800344 c 0
 68.5789274993 428.463133821 69.0565373045 428.346970972 69.539219017 428.207311797 c 0
 70.0084513758 428.069872125 70.4838566882 427.909528452 70.9654349541 427.726280778 c 2
 74.0062385829 426.362110729 l 2x80
89.5454177724 312.723726471 m 2
 90.5923318117 311.713361212 91.4250435415 310.34689784 92.0435529618 308.624336355 c 0
 92.662062382 306.901774871 93.0761287158 304.883481853 93.2857519631 302.569457302 c 0
 93.4953752104 300.255432751 93.5311575162 297.56541293 93.3930988805 294.499397841 c 0
 92.5929893603 281.951187563 91.2962464093 268.466233099 89.5028700276 254.04453445 c 0
 87.7094936459 239.6228358 85.4182923873 224.251387916 82.6292662517 207.930190798 c 0
 81.7479280406 202.896437535 80.8046162923 197.599736934 79.7993310067 192.040088994 c 0
 78.7940457211 186.480441053 77.7284643723 180.667021002 76.6025869602 174.599828839 c 0
 72.1655686369 147.023384993 69.9470594753 122.748182894 69.9470594753 101.774222542 c 0xa0
 69.9470594753 74.4742555501 73.7056462821 52.7672353405 81.2228198957 36.653161913 c 0
 83.2109318322 33.3350090547 84.4209313723 29.6310083434 84.8528185159 25.5411597791 c 0
 85.2847056595 21.4513112148 84.9532165575 16.5286252169 83.8583512098 10.7731017855 c 0
 83.7250438603 10.4425081177 83.4988707162 10.0998434823 83.1798317777 9.74510787933 c 0
 81.5872424441 6.82276986305 80.0743722839 4.83850936972 78.6412212971 3.79232639935 c 0
 75.772270474 1.25815130989 72.0269148782 0.0499745983741 67.4051545097 0.167796264801 c 0
 58.8112790982 0.051489193374 51.7170652325 3.61059634701 46.1225129124 10.8451177257 c 0
 43.4245017183 14.4395820718 41.0242724107 18.8059178128 38.9218249896 23.9441249487 c 0
 36.8193775685 29.0823320846 35.0012774394 35.0064994441 33.4675246023 41.7166270271 c 0
 30.3380406692 55.5519446552 28.7732987027 69.9055255284 28.7732987027 84.7773696468 c 0xc0
 28.7732987027 87.239473317 28.816185711 89.7157817318 28.9019597275 92.2062948913 c 0
 29.6372909165 114.143182562 32.2130932498 138.589897497 36.6293667275 165.546439696 c 2
 45.602588027 221.225548128 l 2
 49.4349068089 244.378211443 52.5441548595 262.410631273 54.9303321788 275.322807617 c 0
 57.316509498 288.234983961 59.0302398748 296.251178314 60.0715233091 299.371390676 c 0
 65.3526030824 312.57409011 71.2749597792 319.175439827 77.8385933996 319.175439827 c 0
 79.2130363468 319.175439827 80.6155989747 318.885973858 82.0462812832 318.307041922 c 2
 89.5454177724 312.723726471 l 2
EndSplineSet
Substitution2: "Single Substitution lookup 5 subtable" i.ss02
Substitution2: "Single Substitution lookup 4 subtable" i.ss02
Substitution2: "Single Substitution lookup 3 subtable" i.ss01
Substitution2: "Single Substitution lookup 2 subtable" i.ss01
EndChar

StartChar: j
Encoding: 106 106 44
Width: 328
VWidth: 965
Flags: HW
HStem: -199.194 35.3203<144.64 205.678> 451.679 58.9121<236.923 283.319>
VStem: 15.6387 49.5195<-69.1829 34.4062> 15.6387 36.8916<-54.594 -7.60938> 220.263 36.7969<-152.795 355.336>
LayerCount: 2
Fore
SplineSet
240.505859375 510.590820312 m 0xc8
 249.172181796 510.200865571 260.293926587 505.137714529 273.87109375 495.401367188 c 0
 287.598146839 485.556447664 295.655112985 478.99622631 298.041992188 475.720703125 c 0
 299.855143229 473.234885433 300.76171875 470.875835954 300.76171875 468.643554688 c 0
 300.760735371 468.176449684 300.721998392 467.716814267 300.645507812 467.264648438 c 0
 299.94059084 456.874023438 291.354327819 451.678710938 274.88671875 451.678710938 c 0
 273.976854346 451.678710938 273.079393409 451.693033855 272.194335938 451.721679688 c 0
 263.146391164 452.385300042 255.470609914 453.025274 249.166992188 453.641601562 c 0
 243.43418061 454.202754878 239.146420193 456.353145503 236.303710938 460.092773438 c 0
 220.9253796 481.719400308 213.226811891 493.816405516 213.208007812 496.383789062 c 0
 213.136420694 505.910841427 221.023139444 510.674838823 236.868164062 510.67578125 c 0
 238.037109375 510.674804687 239.249674479 510.646484375 240.505859375 510.590820312 c 0xc8
54.322265625 37.470703125 m 0
 61.5462239583 37.470703125 65.158203125 34.4143880208 65.158203125 28.3017578125 c 0xe8
 65.158203125 27.3794571314 65.0934244792 26.4025691106 64.9638671875 25.37109375 c 0
 63.1250150144 13.7938605369 59.0755358478 2.80037095354 52.8154296875 -7.609375 c 1
 52.5302734375 -8.6484375 l 1xd8
 52.5897646652 -23.7169897619 65.4458844569 -49.2700496577 91.0986328125 -85.3076171875 c 0
 128.746079333 -137.685221354 158.734686104 -163.874023438 181.064453125 -163.874023438 c 0
 188.244147419 -163.874023438 194.619147419 -161.242838542 200.189453125 -155.98046875 c 0
 213.572594248 -142.892369585 220.263674977 -81.0134633347 220.262695312 29.65625 c 0
 220.263671875 55.6220703125 219.903645833 84.2893880209 219.182617188 115.658203125 c 0
 218.395183356 149.79985092 218.000977627 180.306686857 218 207.178710938 c 0
 218 300.005377517 222.421223958 348.571783767 231.263671875 352.877929688 c 0
 234.581286105 354.552516749 237.40745798 355.393337062 239.7421875 355.400390625 c 0
 242.977618345 355.210818416 245.562253761 355.073123104 247.49609375 354.987304688 c 0
 252.92089144 354.744181699 256.294263836 353.567749407 257.616210938 351.458007812 c 0
 258.583658854 349.915254146 259.067382812 344.361217688 259.067382812 334.795898438 c 0
 259.067382812 330.396829125 258.951497395 325.177428083 258.719726562 319.137695312 c 2
 255.286132812 252.759765625 l 1
 254.857421875 239.955078125 l 1
 255.528320312 76.7822265625 l 2
 256.549153645 45.093492879 257.059570312 18.1859407956 257.059570312 -3.9404296875 c 0
 257.059570312 -19.9298749572 256.792317708 -33.3829999572 256.2578125 -44.2998046875 c 2
 254.329101562 -83.69140625 l 2
 252.077764513 -133.780250387 241.241501492 -167.623023825 221.8203125 -185.219726562 c 0
 211.133731449 -194.536132813 197.825137699 -199.194335938 181.89453125 -199.194335938 c 0
 180.421493903 -199.194335938 178.927027757 -199.154622396 177.411132812 -199.075195312 c 0
 148.445022596 -197.774023791 111.297561659 -167.803646187 65.96875 -109.1640625 c 0
 53.019356361 -92.2450311185 42.8051636527 -77.656163931 35.326171875 -65.3974609375 c 0
 27.8799918998 -53.1925392762 23.1885856498 -43.4002215678 21.251953125 -36.0205078125 c 0
 17.509765625 -21.7663170282 15.638671875 -11.5072024448 15.638671875 -5.2431640625 c 2xe8
 15.6533203125 -4.3291015625 l 2
 16.9380454562 22.7391955678 29.8276938937 36.6724637969 54.322265625 37.470703125 c 0
239.7421875 355.400390625 m 1
 239.7421875 355.400390625 l 1
EndSplineSet
EndChar

